<?xml version="1.0" encoding="UTF-8" standalone="no"?>
<!-- Created with Inkscape (http://www.inkscape.org/) -->

<svg
   xmlns:dc="http://purl.org/dc/elements/1.1/"
   xmlns:cc="http://creativecommons.org/ns#"
   xmlns:rdf="http://www.w3.org/1999/02/22-rdf-syntax-ns#"
   xmlns:svg="http://www.w3.org/2000/svg"
   xmlns="http://www.w3.org/2000/svg"
   xmlns:sodipodi="http://sodipodi.sourceforge.net/DTD/sodipodi-0.dtd"
   xmlns:inkscape="http://www.inkscape.org/namespaces/inkscape"
   width="143.88692mm"
   height="110.36724mm"
   viewBox="0 0 143.88691 110.36724"
   version="1.1"
   id="svg847"
   inkscape:version="0.92.2 5c3e80d, 2017-08-06"
   sodipodi:docname="debug.svg"
   inkscape:export-filename="/Users/vandaele/Documents/fun/senslab/www-iotlab/schemas/Images/debug.png"
   inkscape:export-xdpi="180"
   inkscape:export-ydpi="180">
  <defs
     id="defs841">
    <marker
       inkscape:stockid="Arrow2Mend"
       orient="auto"
       refY="0"
       refX="0"
       id="marker1030"
       style="overflow:visible"
       inkscape:isstock="true">
      <path
         inkscape:connector-curvature="0"
         id="path1028"
         style="fill:#808080;fill-opacity:1;fill-rule:evenodd;stroke:#808080;stroke-width:0.625;stroke-linejoin:round;stroke-opacity:1"
         d="M 8.7185878,4.0337352 -2.2072895,0.01601326 8.7185884,-4.0017078 c -1.7454984,2.3720609 -1.7354408,5.6174519 -6e-7,8.035443 z"
         transform="scale(-0.6)" />
    </marker>
    <inkscape:path-effect
       effect="bspline"
       id="path-effect996"
       is_visible="true"
       weight="33.333333"
       steps="2"
       helper_size="0"
       apply_no_weight="true"
       apply_with_weight="true"
       only_selected="false" />
    <inkscape:path-effect
       only_selected="false"
       apply_with_weight="true"
       apply_no_weight="true"
       helper_size="0"
       steps="2"
       weight="33.333333"
       is_visible="true"
       id="path-effect987"
       effect="bspline" />
    <inkscape:path-effect
       effect="bspline"
       id="path-effect947"
       is_visible="true"
       weight="33.333333"
       steps="2"
       helper_size="0"
       apply_no_weight="true"
       apply_with_weight="true"
       only_selected="false" />
    <inkscape:path-effect
       effect="bspline"
       id="path-effect1058"
       is_visible="true"
       weight="33.333333"
       steps="2"
       helper_size="0"
       apply_no_weight="true"
       apply_with_weight="true"
       only_selected="false" />
    <inkscape:path-effect
       only_selected="false"
       apply_with_weight="true"
       apply_no_weight="true"
       helper_size="0"
       steps="2"
       weight="33.333333"
       is_visible="true"
       id="path-effect1054"
       effect="bspline" />
    <inkscape:path-effect
       effect="bspline"
       id="path-effect1050"
       is_visible="true"
       weight="33.333333"
       steps="2"
       helper_size="0"
       apply_no_weight="true"
       apply_with_weight="true"
       only_selected="false" />
    <inkscape:path-effect
       effect="bspline"
       id="path-effect942"
       is_visible="true"
       weight="33.333333"
       steps="2"
       helper_size="0"
       apply_no_weight="true"
       apply_with_weight="true"
       only_selected="false" />
    <marker
       inkscape:isstock="true"
       style="overflow:visible"
       id="marker2663"
       refX="0"
       refY="0"
       orient="auto"
       inkscape:stockid="Arrow2Mend"
       inkscape:collect="always">
      <path
         transform="scale(-0.6)"
         d="M 8.7185878,4.0337352 -2.2072895,0.01601326 8.7185884,-4.0017078 c -1.7454984,2.3720609 -1.7354408,5.6174519 -6e-7,8.035443 z"
         style="fill:#808080;fill-opacity:1;fill-rule:evenodd;stroke:#808080;stroke-width:0.625;stroke-linejoin:round;stroke-opacity:1"
         id="path2661"
         inkscape:connector-curvature="0" />
    </marker>
    <marker
       inkscape:stockid="Arrow2Lend"
       orient="auto"
       refY="0"
       refX="0"
       id="marker2657"
       style="overflow:visible"
       inkscape:isstock="true">
      <path
         id="path2655"
         style="fill:#000000;fill-opacity:1;fill-rule:evenodd;stroke:#000000;stroke-width:0.625;stroke-linejoin:round;stroke-opacity:1"
         d="M 8.7185878,4.0337352 -2.2072895,0.01601326 8.7185884,-4.0017078 c -1.7454984,2.3720609 -1.7354408,5.6174519 -6e-7,8.035443 z"
         transform="matrix(-1.1,0,0,-1.1,-1.1,0)"
         inkscape:connector-curvature="0" />
    </marker>
    <marker
       inkscape:stockid="Arrow2Lend"
       orient="auto"
       refY="0"
       refX="0"
       id="Arrow2Lend"
       style="overflow:visible"
       inkscape:isstock="true">
      <path
         id="path2406"
         style="fill:#000000;fill-opacity:1;fill-rule:evenodd;stroke:#000000;stroke-width:0.625;stroke-linejoin:round;stroke-opacity:1"
         d="M 8.7185878,4.0337352 -2.2072895,0.01601326 8.7185884,-4.0017078 c -1.7454984,2.3720609 -1.7354408,5.6174519 -6e-7,8.035443 z"
         transform="matrix(-1.1,0,0,-1.1,-1.1,0)"
         inkscape:connector-curvature="0" />
    </marker>
    <marker
       inkscape:stockid="EmptyTriangleOutL"
       orient="auto"
       refY="0"
       refX="0"
       id="EmptyTriangleOutL"
       style="overflow:visible"
       inkscape:isstock="true">
      <path
         id="path2545"
         d="M 5.77,0 -2.88,5 V -5 Z"
         style="fill:#ffffff;fill-rule:evenodd;stroke:#000000;stroke-width:1.00000003pt;stroke-opacity:1"
         transform="matrix(0.8,0,0,0.8,-4.8,0)"
         inkscape:connector-curvature="0" />
    </marker>
    <marker
       inkscape:stockid="TriangleOutL"
       orient="auto"
       refY="0"
       refX="0"
       id="TriangleOutL"
       style="overflow:visible"
       inkscape:isstock="true">
      <path
         id="path2527"
         d="M 5.77,0 -2.88,5 V -5 Z"
         style="fill:#000000;fill-opacity:1;fill-rule:evenodd;stroke:#000000;stroke-width:1.00000003pt;stroke-opacity:1"
         transform="scale(0.8)"
         inkscape:connector-curvature="0" />
    </marker>
    <inkscape:path-effect
       effect="bspline"
       id="path-effect2383"
       is_visible="true"
       weight="33.333333"
       steps="2"
       helper_size="0"
       apply_no_weight="true"
       apply_with_weight="true"
       only_selected="false" />
    <inkscape:path-effect
       only_selected="false"
       apply_with_weight="true"
       apply_no_weight="true"
       helper_size="0"
       steps="2"
       weight="33.333333"
       is_visible="true"
       id="path-effect2379"
       effect="bspline" />
    <inkscape:path-effect
       effect="bspline"
       id="path-effect2365"
       is_visible="true"
       weight="33.333333"
       steps="2"
       helper_size="0"
       apply_no_weight="true"
       apply_with_weight="true"
       only_selected="false" />
    <inkscape:path-effect
       effect="bspline"
       id="path-effect2361"
       is_visible="true"
       weight="33.333333"
       steps="2"
       helper_size="0"
       apply_no_weight="true"
       apply_with_weight="true"
       only_selected="false" />
    <inkscape:path-effect
       effect="bspline"
       id="path-effect2357"
       is_visible="true"
       weight="33.333333"
       steps="2"
       helper_size="0"
       apply_no_weight="true"
       apply_with_weight="true"
       only_selected="false" />
    <inkscape:path-effect
       effect="bspline"
       id="path-effect2353"
       is_visible="true"
       weight="33.333333"
       steps="2"
       helper_size="0"
       apply_no_weight="true"
       apply_with_weight="true"
       only_selected="false" />
    <inkscape:path-effect
       effect="bspline"
       id="path-effect2349"
       is_visible="true"
       weight="33.333333"
       steps="2"
       helper_size="0"
       apply_no_weight="true"
       apply_with_weight="true"
       only_selected="false" />
    <inkscape:path-effect
       effect="bspline"
       id="path-effect2324"
       is_visible="true"
       weight="33.333333"
       steps="2"
       helper_size="0"
       apply_no_weight="true"
       apply_with_weight="true"
       only_selected="false" />
    <inkscape:path-effect
       effect="bspline"
       id="path-effect2320"
       is_visible="true"
       weight="33.333333"
       steps="2"
       helper_size="0"
       apply_no_weight="true"
       apply_with_weight="true"
       only_selected="false" />
    <inkscape:path-effect
       effect="bspline"
       id="path-effect2316"
       is_visible="true"
       weight="33.333333"
       steps="2"
       helper_size="0"
       apply_no_weight="true"
       apply_with_weight="true"
       only_selected="false" />
    <inkscape:path-effect
       only_selected="false"
       apply_with_weight="true"
       apply_no_weight="true"
       helper_size="0"
       steps="2"
       weight="33.333333"
       is_visible="true"
       id="path-effect2312"
       effect="bspline" />
    <inkscape:path-effect
       only_selected="false"
       apply_with_weight="true"
       apply_no_weight="true"
       helper_size="0"
       steps="2"
       weight="33.333333"
       is_visible="true"
       id="path-effect2304"
       effect="bspline" />
    <inkscape:path-effect
       effect="bspline"
       id="path-effect2258"
       is_visible="true"
       weight="33.333333"
       steps="2"
       helper_size="0"
       apply_no_weight="true"
       apply_with_weight="true"
       only_selected="false" />
    <inkscape:path-effect
       effect="bspline"
       id="path-effect2242"
       is_visible="true"
       weight="33.333333"
       steps="2"
       helper_size="0"
       apply_no_weight="true"
       apply_with_weight="true"
       only_selected="false" />
    <inkscape:path-effect
       effect="bspline"
       id="path-effect2238"
       is_visible="true"
       weight="33.333333"
       steps="2"
       helper_size="0"
       apply_no_weight="true"
       apply_with_weight="true"
       only_selected="false" />
    <inkscape:path-effect
       effect="bspline"
       id="path-effect4800"
       is_visible="true"
       weight="30"
       steps="1"
       helper_size="5"
       apply_no_weight="false"
       apply_with_weight="false"
       only_selected="false" />
    <inkscape:path-effect
       effect="bspline"
       id="path-effect4798"
       is_visible="true"
       weight="33.333333"
       steps="1"
       helper_size="0"
       apply_no_weight="true"
       apply_with_weight="true"
       only_selected="false" />
    <inkscape:path-effect
       effect="bend_path"
       id="path-effect1107"
       is_visible="true"
       bendpath="m 168.78505,157.52766 h 90.83734"
       prop_scale="1"
       scale_y_rel="false"
       vertical="false" />
    <inkscape:path-effect
       effect="bspline"
       id="path-effect1105"
       is_visible="true"
       weight="33.333333"
       steps="2"
       helper_size="0"
       apply_no_weight="true"
       apply_with_weight="true"
       only_selected="false" />
    <inkscape:path-effect
       effect="bspline"
       id="path-effect1058-3"
       is_visible="true"
       weight="33.333333"
       steps="2"
       helper_size="0"
       apply_no_weight="true"
       apply_with_weight="true"
       only_selected="false" />
    <marker
       inkscape:stockid="Arrow2Mend"
       orient="auto"
       refY="0"
       refX="0"
       id="marker924"
       style="overflow:visible"
       inkscape:isstock="true">
      <path
         inkscape:connector-curvature="0"
         id="path922"
         style="fill:#808080;fill-opacity:1;fill-rule:evenodd;stroke:#808080;stroke-width:0.625;stroke-linejoin:round;stroke-opacity:1"
         d="M 8.7185878,4.0337352 -2.2072895,0.01601326 8.7185884,-4.0017078 c -1.7454984,2.3720609 -1.7354408,5.6174519 -6e-7,8.035443 z"
         transform="scale(-0.6)" />
    </marker>
    <inkscape:path-effect
       only_selected="false"
       apply_with_weight="true"
       apply_no_weight="true"
       helper_size="0"
       steps="2"
       weight="33.333333"
       is_visible="true"
       id="path-effect2304-33"
       effect="bspline" />
  </defs>
  <sodipodi:namedview
     id="base"
     pagecolor="#ffffff"
     bordercolor="#666666"
     borderopacity="1.0"
     inkscape:pageopacity="0.0"
     inkscape:pageshadow="2"
     inkscape:zoom="1.0899794"
     inkscape:cx="264.57269"
     inkscape:cy="208.56801"
     inkscape:document-units="mm"
     inkscape:current-layer="layer4"
     showgrid="false"
     inkscape:window-width="1440"
     inkscape:window-height="856"
     inkscape:window-x="-2"
     inkscape:window-y="0"
     inkscape:window-maximized="0"
     showguides="false"
     fit-margin-top="10"
     fit-margin-left="10"
     fit-margin-right="10"
     fit-margin-bottom="10"
     inkscape:snap-grids="false"
     inkscape:snap-to-guides="false"
     inkscape:object-nodes="true">
    <inkscape:grid
       type="xygrid"
       id="grid1533"
       originx="-27.482536"
       originy="-6.7204853" />
  </sodipodi:namedview>
  <metadata
     id="metadata844">
    <rdf:RDF>
      <cc:Work
         rdf:about="">
        <dc:format>image/svg+xml</dc:format>
        <dc:type
           rdf:resource="http://purl.org/dc/dcmitype/StillImage" />
        <dc:title />
      </cc:Work>
    </rdf:RDF>
  </metadata>
  <g
     inkscape:groupmode="layer"
     id="layer2"
     inkscape:label="texte 1" />
  <g
     inkscape:label="Calque 1"
     inkscape:groupmode="layer"
     id="layer1"
     transform="translate(-27.48254,-179.91227)"
     style="display:inline">
    <path
       sodipodi:nodetypes="cc"
       inkscape:original-d="M 72.824397,209.32512 H 112.38082"
       inkscape:path-effect="#path-effect2304"
       inkscape:connector-curvature="0"
       id="path2302"
       d="m 72.824397,209.32512 c 0,0 39.556423,0 39.556423,0"
       style="fill:none;stroke:#808080;stroke-width:0.79503804;stroke-linecap:butt;stroke-linejoin:miter;stroke-miterlimit:4;stroke-dasharray:none;stroke-opacity:1;marker-end:url(#marker2663)" />
    <path
       id="path998"
       d="m 59.090314,210.85858 c -1.977496,0 -2.928349,1.10244 -6.17365,1.10244 -3.245299,0 -4.189261,-1.10244 -6.173648,-1.10244 -5.112555,0 -9.260476,4.14792 -9.260476,9.26048 v 1.7639 c 0,1.82591 1.4814,3.30731 3.307312,3.30731 h 24.253621 c 1.82592,0 3.30732,-1.4814 3.30732,-3.30731 v -1.7639 c 0,-5.11256 -4.14792,-9.26048 -9.260479,-9.26048 z m 5.953159,11.02438 H 40.789852 v -1.7639 c 0,-3.27975 2.673411,-5.95317 5.953164,-5.95317 1.005972,0 2.638959,1.10244 6.173648,1.10244 3.562251,0 5.160787,-1.10244 6.17365,-1.10244 3.279749,0 5.953159,2.67342 5.953159,5.95317 z M 52.916664,209.75614 c 5.477737,0 9.921939,-4.4442 9.921939,-9.92193 0,-5.47774 -4.444202,-9.92194 -9.921939,-9.92194 -5.477735,0 -9.921937,4.4442 -9.921937,9.92194 0,5.47773 4.444202,9.92193 9.921937,9.92193 z m 0,-16.53656 c 3.644934,0 6.614629,2.96969 6.614629,6.61463 0,3.64493 -2.969695,6.61462 -6.614629,6.61462 -3.644932,0 -6.614625,-2.96969 -6.614625,-6.61462 0,-3.64494 2.969693,-6.61463 6.614625,-6.61463 z"
       inkscape:connector-curvature="0"
       style="fill:currentColor;stroke-width:0.06890234" />
    <path
       inkscape:connector-curvature="0"
       id="path3085"
       d="m 122.48854,270.27959 c -0.0471,0 -0.0852,0.0383 -0.0852,0.0853 v 0.25572 h -0.0852 c -0.0471,0 -0.0852,0.0381 -0.0852,0.0852 v 0.59669 h 0.68188 v -0.59669 c 0,-0.0471 -0.0382,-0.0852 -0.0852,-0.0852 h -0.0852 v -0.25572 c 0,-0.0472 -0.0382,-0.0853 -0.0852,-0.0853 z m 1.36382,0 c -0.0471,0 -0.0852,0.0383 -0.0852,0.0853 v 0.25572 h -0.0852 c -0.0471,0 -0.0852,0.0381 -0.0852,0.0852 v 0.59669 h 0.68188 v -0.59669 c 0,-0.0471 -0.0383,-0.0852 -0.0852,-0.0852 h -0.0852 v -0.25572 c 0,-0.0472 -0.0383,-0.0853 -0.0852,-0.0853 z m 1.36376,0 c -0.0471,0 -0.0852,0.0383 -0.0852,0.0853 v 0.25572 h -0.0852 c -0.0471,0 -0.0852,0.0381 -0.0852,0.0852 v 0.59669 h 0.68195 v -0.59669 c 0,-0.0471 -0.0382,-0.0852 -0.0852,-0.0852 h -0.0852 v -0.25572 c 0,-0.0472 -0.0381,-0.0853 -0.0852,-0.0853 z m 1.36384,0 c -0.0471,0 -0.0852,0.0383 -0.0852,0.0853 v 0.25572 h -0.0852 c -0.0471,0 -0.0852,0.0381 -0.0852,0.0852 v 0.59669 h 0.68195 v -0.59669 c 0,-0.0471 -0.0383,-0.0852 -0.0852,-0.0852 h -0.0852 v -0.25572 c 0,-0.0472 -0.0381,-0.0853 -0.0852,-0.0853 z m -4.91474,1.36316 c -0.37661,0 -0.68193,0.30526 -0.68193,0.68186 v 5.90991 c 0,0.37661 0.30532,0.68194 0.68193,0.68194 h 5.90854 c 0.37663,0 0.6819,-0.30533 0.6819,-0.68194 v -5.90991 c 0,-0.3766 -0.30527,-0.68186 -0.6819,-0.68186 z m -1.61952,1.25013 c -0.0471,0 -0.0852,0.0383 -0.0852,0.0853 v 0.0852 h -0.25571 c -0.0471,0 -0.0852,0.0383 -0.0852,0.0852 v 0.17052 c 0,0.0472 0.0383,0.0852 0.0852,0.0852 h 0.25571 v 0.0853 c 2e-5,0.0472 0.0383,0.0852 0.0852,0.0852 h 0.59667 v -0.68195 z m 8.55093,0 v 0.68195 h 0.59669 c 0.0471,0 0.0852,-0.0382 0.0852,-0.0852 v -0.0852 h 0.25572 c 0.0471,0 0.0852,-0.0381 0.0852,-0.0853 v -0.17053 c 0,-0.0472 -0.0383,-0.0852 -0.0852,-0.0852 h -0.25572 v -0.0852 c 0,-0.0472 -0.0381,-0.0853 -0.0852,-0.0853 z m -8.55093,1.36383 c -0.0471,0 -0.0852,0.0383 -0.0852,0.0852 v 0.0853 h -0.25571 c -0.0471,0 -0.0852,0.0383 -0.0852,0.0852 v 0.17045 c 0,0.0471 0.0383,0.0853 0.0852,0.0853 h 0.25571 v 0.0853 c 0,0.0471 0.0383,0.0852 0.0852,0.0852 h 0.59667 v -0.68189 z m 8.55093,0 v 0.6819 h 0.59669 c 0.0471,0 0.0852,-0.0381 0.0852,-0.0852 v -0.0853 h 0.25572 c 0.0471,0 0.0852,-0.0383 0.0852,-0.0852 v -0.17045 c 0,-0.0472 -0.0383,-0.0852 -0.0852,-0.0852 h -0.25572 v -0.0852 c 0,-0.0472 -0.0381,-0.0853 -0.0852,-0.0853 z m -8.55093,1.36384 c -0.0471,0 -0.0852,0.0383 -0.0852,0.0852 v 0.0853 h -0.25571 c -0.0471,0 -0.0852,0.0383 -0.0852,0.0853 v 0.17045 c 0,0.0472 0.0383,0.0853 0.0852,0.0853 h 0.25571 v 0.0852 c 0,0.0472 0.0383,0.0852 0.0852,0.0852 h 0.59667 v -0.68189 z m 8.55093,0 v 0.68188 h 0.59669 c 0.0471,0 0.0852,-0.0381 0.0852,-0.0853 v -0.0852 h 0.25572 c 0.0471,0 0.0852,-0.0383 0.0852,-0.0852 v -0.17045 c 0,-0.0472 -0.0383,-0.0853 -0.0852,-0.0853 h -0.25572 v -0.0852 c 0,-0.0471 -0.0381,-0.0852 -0.0852,-0.0852 z m -8.55093,1.36382 c -0.0471,0 -0.0852,0.0381 -0.0852,0.0852 v 0.0852 h -0.25571 c -0.0471,0 -0.0852,0.0383 -0.0852,0.0853 v 0.17046 c 0,0.0472 0.0383,0.0852 0.0852,0.0852 h 0.25571 v 0.0852 c 0,0.0471 0.0383,0.0853 0.0852,0.0853 h 0.59667 v -0.6819 z m 8.55093,0 v 0.68189 h 0.59669 c 0.0471,0 0.0852,-0.0381 0.0852,-0.0852 v -0.0852 h 0.25572 c 0.0471,0 0.0852,-0.0383 0.0852,-0.0853 v -0.17045 c 0,-0.0472 -0.0383,-0.0853 -0.0852,-0.0853 h -0.25572 v -0.0852 c 0,-0.0472 -0.0381,-0.0853 -0.0852,-0.0853 z m -6.36381,2.27233 v 0.59669 c 0,0.0471 0.0381,0.0852 0.0852,0.0852 h 0.0852 v 0.25572 c 0,0.0471 0.0382,0.0852 0.0852,0.0852 h 0.17045 c 0.0471,0 0.0852,-0.0383 0.0852,-0.0852 v -0.25572 h 0.0852 c 0.0471,-10e-6 0.0852,-0.0383 0.0852,-0.0852 v -0.59669 z m 1.36383,0 v 0.59669 c 0,0.0471 0.0381,0.0852 0.0852,0.0852 h 0.0852 v 0.25572 c 0,0.0471 0.0382,0.0852 0.0852,0.0852 h 0.17045 c 0.0471,0 0.0852,-0.0383 0.0852,-0.0852 v -0.25572 h 0.0852 c 0.0471,-10e-6 0.0852,-0.0383 0.0852,-0.0852 v -0.59669 z m 1.36376,0 v 0.59669 c 0,0.0471 0.0383,0.0852 0.0852,0.0852 h 0.0852 v 0.25572 c 0,0.0471 0.0381,0.0852 0.0852,0.0852 h 0.17051 c 0.0471,0 0.0852,-0.0383 0.0852,-0.0852 v -0.25572 h 0.0852 c 0.0471,0 0.0852,-0.0383 0.0852,-0.0852 v -0.59669 z m 1.36383,0 v 0.59669 c 0,0.0471 0.0382,0.0852 0.0852,0.0852 h 0.0852 v 0.25572 c 0,0.0471 0.0381,0.0852 0.0852,0.0852 h 0.17051 c 0.0471,0 0.0852,-0.0383 0.0852,-0.0852 v -0.25572 h 0.0852 c 0.0471,0 0.0852,-0.0383 0.0852,-0.0852 v -0.59669 z"
       style="display:inline;opacity:1;fill:#000000;stroke:none;stroke-width:0.014;stroke-miterlimit:4;stroke-dasharray:none" />
    <path
       style="display:inline;opacity:1;fill:currentColor;stroke-width:0.01420648"
       d="m 138.36355,270.27959 c -0.0471,0 -0.0852,0.0383 -0.0852,0.0853 v 0.25572 h -0.0852 c -0.0471,0 -0.0852,0.0381 -0.0852,0.0852 v 0.59669 h 0.68188 v -0.59669 c 0,-0.0471 -0.0382,-0.0852 -0.0852,-0.0852 h -0.0852 v -0.25572 c 0,-0.0472 -0.0382,-0.0853 -0.0852,-0.0853 z m 1.36382,0 c -0.0471,0 -0.0852,0.0383 -0.0852,0.0853 v 0.25572 h -0.0852 c -0.0471,0 -0.0852,0.0381 -0.0852,0.0852 v 0.59669 h 0.68188 v -0.59669 c 0,-0.0471 -0.0383,-0.0852 -0.0852,-0.0852 h -0.0852 v -0.25572 c 0,-0.0472 -0.0383,-0.0853 -0.0852,-0.0853 z m 1.36376,0 c -0.0471,0 -0.0852,0.0383 -0.0852,0.0853 v 0.25572 h -0.0852 c -0.0471,0 -0.0852,0.0381 -0.0852,0.0852 v 0.59669 h 0.68195 v -0.59669 c 0,-0.0471 -0.0382,-0.0852 -0.0852,-0.0852 h -0.0852 v -0.25572 c 0,-0.0472 -0.0381,-0.0853 -0.0852,-0.0853 z m 1.36384,0 c -0.0471,0 -0.0852,0.0383 -0.0852,0.0853 v 0.25572 h -0.0852 c -0.0471,0 -0.0852,0.0381 -0.0852,0.0852 v 0.59669 h 0.68195 v -0.59669 c 0,-0.0471 -0.0383,-0.0852 -0.0852,-0.0852 h -0.0852 v -0.25572 c 0,-0.0472 -0.0381,-0.0853 -0.0852,-0.0853 z m -4.91474,1.36316 c -0.37661,0 -0.68193,0.30526 -0.68193,0.68186 v 5.90991 c 0,0.37661 0.30532,0.68194 0.68193,0.68194 h 5.90854 c 0.37663,0 0.6819,-0.30533 0.6819,-0.68194 v -5.90991 c 0,-0.3766 -0.30527,-0.68186 -0.6819,-0.68186 z m -1.61952,1.25013 c -0.0471,0 -0.0852,0.0383 -0.0852,0.0853 v 0.0852 h -0.25571 c -0.0471,0 -0.0852,0.0383 -0.0852,0.0852 v 0.17052 c 0,0.0472 0.0383,0.0852 0.0852,0.0852 h 0.25571 v 0.0853 c 2e-5,0.0472 0.0383,0.0852 0.0852,0.0852 h 0.59667 v -0.68195 z m 8.55093,0 v 0.68195 h 0.59669 c 0.0471,0 0.0852,-0.0382 0.0852,-0.0852 v -0.0852 h 0.25572 c 0.0471,0 0.0852,-0.0381 0.0852,-0.0853 v -0.17053 c 0,-0.0472 -0.0383,-0.0852 -0.0852,-0.0852 h -0.25572 v -0.0852 c 0,-0.0472 -0.0381,-0.0853 -0.0852,-0.0853 z m -8.55093,1.36383 c -0.0471,0 -0.0852,0.0383 -0.0852,0.0852 v 0.0853 h -0.25571 c -0.0471,0 -0.0852,0.0383 -0.0852,0.0852 v 0.17045 c 0,0.0471 0.0383,0.0853 0.0852,0.0853 h 0.25571 v 0.0853 c 0,0.0471 0.0383,0.0852 0.0852,0.0852 h 0.59667 v -0.68189 z m 8.55093,0 v 0.6819 h 0.59669 c 0.0471,0 0.0852,-0.0381 0.0852,-0.0852 v -0.0853 h 0.25572 c 0.0471,0 0.0852,-0.0383 0.0852,-0.0852 v -0.17045 c 0,-0.0472 -0.0383,-0.0852 -0.0852,-0.0852 h -0.25572 v -0.0852 c 0,-0.0472 -0.0381,-0.0853 -0.0852,-0.0853 z m -8.55093,1.36384 c -0.0471,0 -0.0852,0.0383 -0.0852,0.0852 v 0.0853 h -0.25571 c -0.0471,0 -0.0852,0.0383 -0.0852,0.0853 v 0.17045 c 0,0.0472 0.0383,0.0853 0.0852,0.0853 h 0.25571 v 0.0852 c 0,0.0472 0.0383,0.0852 0.0852,0.0852 h 0.59667 v -0.68189 z m 8.55093,0 v 0.68188 h 0.59669 c 0.0471,0 0.0852,-0.0381 0.0852,-0.0853 v -0.0852 h 0.25572 c 0.0471,0 0.0852,-0.0383 0.0852,-0.0852 v -0.17045 c 0,-0.0472 -0.0383,-0.0853 -0.0852,-0.0853 h -0.25572 v -0.0852 c 0,-0.0471 -0.0381,-0.0852 -0.0852,-0.0852 z m -8.55093,1.36382 c -0.0471,0 -0.0852,0.0381 -0.0852,0.0852 v 0.0852 h -0.25571 c -0.0471,0 -0.0852,0.0383 -0.0852,0.0853 v 0.17046 c 0,0.0472 0.0383,0.0852 0.0852,0.0852 h 0.25571 v 0.0852 c 0,0.0471 0.0383,0.0853 0.0852,0.0853 h 0.59667 v -0.6819 z m 8.55093,0 v 0.68189 h 0.59669 c 0.0471,0 0.0852,-0.0381 0.0852,-0.0852 v -0.0852 h 0.25572 c 0.0471,0 0.0852,-0.0383 0.0852,-0.0853 v -0.17045 c 0,-0.0472 -0.0383,-0.0853 -0.0852,-0.0853 h -0.25572 v -0.0852 c 0,-0.0472 -0.0381,-0.0853 -0.0852,-0.0853 z m -6.36381,2.27233 v 0.59669 c 0,0.0471 0.0381,0.0852 0.0852,0.0852 h 0.0852 v 0.25572 c 0,0.0471 0.0382,0.0852 0.0852,0.0852 h 0.17045 c 0.0471,0 0.0852,-0.0383 0.0852,-0.0852 v -0.25572 h 0.0852 c 0.0471,-10e-6 0.0852,-0.0383 0.0852,-0.0852 v -0.59669 z m 1.36383,0 v 0.59669 c 0,0.0471 0.0381,0.0852 0.0852,0.0852 h 0.0852 v 0.25572 c 0,0.0471 0.0382,0.0852 0.0852,0.0852 h 0.17045 c 0.0471,0 0.0852,-0.0383 0.0852,-0.0852 v -0.25572 h 0.0852 c 0.0471,-10e-6 0.0852,-0.0383 0.0852,-0.0852 v -0.59669 z m 1.36376,0 v 0.59669 c 0,0.0471 0.0383,0.0852 0.0852,0.0852 h 0.0852 v 0.25572 c 0,0.0471 0.0381,0.0852 0.0852,0.0852 h 0.17051 c 0.0471,0 0.0852,-0.0383 0.0852,-0.0852 v -0.25572 h 0.0852 c 0.0471,0 0.0852,-0.0383 0.0852,-0.0852 v -0.59669 z m 1.36383,0 v 0.59669 c 0,0.0471 0.0382,0.0852 0.0852,0.0852 h 0.0852 v 0.25572 c 0,0.0471 0.0381,0.0852 0.0852,0.0852 h 0.17051 c 0.0471,0 0.0852,-0.0383 0.0852,-0.0852 v -0.25572 h 0.0852 c 0.0471,0 0.0852,-0.0383 0.0852,-0.0852 v -0.59669 z"
       id="path3087"
       inkscape:connector-curvature="0" />
    <path
       inkscape:connector-curvature="0"
       id="path3089"
       d="m 154.23856,270.27959 c -0.0471,0 -0.0852,0.0383 -0.0852,0.0853 v 0.25572 h -0.0852 c -0.0471,0 -0.0852,0.0381 -0.0852,0.0852 v 0.59669 h 0.68188 v -0.59669 c 0,-0.0471 -0.0382,-0.0852 -0.0852,-0.0852 h -0.0852 v -0.25572 c 0,-0.0472 -0.0382,-0.0853 -0.0852,-0.0853 z m 1.36382,0 c -0.0471,0 -0.0852,0.0383 -0.0852,0.0853 v 0.25572 h -0.0852 c -0.0471,0 -0.0852,0.0381 -0.0852,0.0852 v 0.59669 h 0.68188 v -0.59669 c 0,-0.0471 -0.0383,-0.0852 -0.0852,-0.0852 h -0.0852 v -0.25572 c 0,-0.0472 -0.0383,-0.0853 -0.0852,-0.0853 z m 1.36376,0 c -0.0471,0 -0.0852,0.0383 -0.0852,0.0853 v 0.25572 h -0.0852 c -0.0471,0 -0.0852,0.0381 -0.0852,0.0852 v 0.59669 h 0.68195 v -0.59669 c 0,-0.0471 -0.0382,-0.0852 -0.0852,-0.0852 h -0.0852 v -0.25572 c 0,-0.0472 -0.0381,-0.0853 -0.0852,-0.0853 z m 1.36384,0 c -0.0471,0 -0.0852,0.0383 -0.0852,0.0853 v 0.25572 h -0.0852 c -0.0471,0 -0.0852,0.0381 -0.0852,0.0852 v 0.59669 h 0.68195 v -0.59669 c 0,-0.0471 -0.0383,-0.0852 -0.0852,-0.0852 h -0.0852 v -0.25572 c 0,-0.0472 -0.0381,-0.0853 -0.0852,-0.0853 z m -4.91474,1.36316 c -0.37661,0 -0.68193,0.30526 -0.68193,0.68186 v 5.90991 c 0,0.37661 0.30532,0.68194 0.68193,0.68194 h 5.90854 c 0.37663,0 0.6819,-0.30533 0.6819,-0.68194 v -5.90991 c 0,-0.3766 -0.30527,-0.68186 -0.6819,-0.68186 z m -1.61952,1.25013 c -0.0471,0 -0.0852,0.0383 -0.0852,0.0853 v 0.0852 h -0.25571 c -0.0471,0 -0.0852,0.0383 -0.0852,0.0852 v 0.17052 c 0,0.0472 0.0383,0.0852 0.0852,0.0852 h 0.25571 v 0.0853 c 2e-5,0.0472 0.0383,0.0852 0.0852,0.0852 h 0.59667 v -0.68195 z m 8.55093,0 v 0.68195 h 0.59669 c 0.0471,0 0.0852,-0.0382 0.0852,-0.0852 v -0.0852 h 0.25572 c 0.0471,0 0.0852,-0.0381 0.0852,-0.0853 v -0.17053 c 0,-0.0472 -0.0383,-0.0852 -0.0852,-0.0852 h -0.25572 v -0.0852 c 0,-0.0472 -0.0381,-0.0853 -0.0852,-0.0853 z m -8.55093,1.36383 c -0.0471,0 -0.0852,0.0383 -0.0852,0.0852 v 0.0853 h -0.25571 c -0.0471,0 -0.0852,0.0383 -0.0852,0.0852 v 0.17045 c 0,0.0471 0.0383,0.0853 0.0852,0.0853 h 0.25571 v 0.0853 c 0,0.0471 0.0383,0.0852 0.0852,0.0852 h 0.59667 v -0.68189 z m 8.55093,0 v 0.6819 h 0.59669 c 0.0471,0 0.0852,-0.0381 0.0852,-0.0852 v -0.0853 h 0.25572 c 0.0471,0 0.0852,-0.0383 0.0852,-0.0852 v -0.17045 c 0,-0.0472 -0.0383,-0.0852 -0.0852,-0.0852 h -0.25572 v -0.0852 c 0,-0.0472 -0.0381,-0.0853 -0.0852,-0.0853 z m -8.55093,1.36384 c -0.0471,0 -0.0852,0.0383 -0.0852,0.0852 v 0.0853 h -0.25571 c -0.0471,0 -0.0852,0.0383 -0.0852,0.0853 v 0.17045 c 0,0.0472 0.0383,0.0853 0.0852,0.0853 h 0.25571 v 0.0852 c 0,0.0472 0.0383,0.0852 0.0852,0.0852 h 0.59667 v -0.68189 z m 8.55093,0 v 0.68188 h 0.59669 c 0.0471,0 0.0852,-0.0381 0.0852,-0.0853 v -0.0852 h 0.25572 c 0.0471,0 0.0852,-0.0383 0.0852,-0.0852 v -0.17045 c 0,-0.0472 -0.0383,-0.0853 -0.0852,-0.0853 h -0.25572 v -0.0852 c 0,-0.0471 -0.0381,-0.0852 -0.0852,-0.0852 z m -8.55093,1.36382 c -0.0471,0 -0.0852,0.0381 -0.0852,0.0852 v 0.0852 h -0.25571 c -0.0471,0 -0.0852,0.0383 -0.0852,0.0853 v 0.17046 c 0,0.0472 0.0383,0.0852 0.0852,0.0852 h 0.25571 v 0.0852 c 0,0.0471 0.0383,0.0853 0.0852,0.0853 h 0.59667 v -0.6819 z m 8.55093,0 v 0.68189 h 0.59669 c 0.0471,0 0.0852,-0.0381 0.0852,-0.0852 v -0.0852 h 0.25572 c 0.0471,0 0.0852,-0.0383 0.0852,-0.0853 v -0.17045 c 0,-0.0472 -0.0383,-0.0853 -0.0852,-0.0853 h -0.25572 v -0.0852 c 0,-0.0472 -0.0381,-0.0853 -0.0852,-0.0853 z m -6.36381,2.27233 v 0.59669 c 0,0.0471 0.0381,0.0852 0.0852,0.0852 h 0.0852 v 0.25572 c 0,0.0471 0.0382,0.0852 0.0852,0.0852 h 0.17045 c 0.0471,0 0.0852,-0.0383 0.0852,-0.0852 v -0.25572 h 0.0852 c 0.0471,-10e-6 0.0852,-0.0383 0.0852,-0.0852 v -0.59669 z m 1.36383,0 v 0.59669 c 0,0.0471 0.0381,0.0852 0.0852,0.0852 h 0.0852 v 0.25572 c 0,0.0471 0.0382,0.0852 0.0852,0.0852 h 0.17045 c 0.0471,0 0.0852,-0.0383 0.0852,-0.0852 v -0.25572 h 0.0852 c 0.0471,-10e-6 0.0852,-0.0383 0.0852,-0.0852 v -0.59669 z m 1.36376,0 v 0.59669 c 0,0.0471 0.0383,0.0852 0.0852,0.0852 h 0.0852 v 0.25572 c 0,0.0471 0.0381,0.0852 0.0852,0.0852 h 0.17051 c 0.0471,0 0.0852,-0.0383 0.0852,-0.0852 v -0.25572 h 0.0852 c 0.0471,0 0.0852,-0.0383 0.0852,-0.0852 v -0.59669 z m 1.36383,0 v 0.59669 c 0,0.0471 0.0382,0.0852 0.0852,0.0852 h 0.0852 v 0.25572 c 0,0.0471 0.0381,0.0852 0.0852,0.0852 h 0.17051 c 0.0471,0 0.0852,-0.0383 0.0852,-0.0852 v -0.25572 h 0.0852 c 0.0471,0 0.0852,-0.0383 0.0852,-0.0852 v -0.59669 z"
       style="display:inline;opacity:1;fill:#000000;stroke:none;stroke-width:0.014;stroke-miterlimit:4;stroke-dasharray:none" />
    <path
       style="display:inline;fill:currentColor;stroke-width:0.05167578"
       d="m 121.26881,198.73213 c -0.68729,0 -1.24024,0.55294 -1.24024,1.24023 v 22.73763 h -1.00769 c -0.34106,0 -0.62011,0.27906 -0.62011,0.62012 v 1.85984 h 11.2851 v -6.61407 h -0.74311 c -0.34106,0 -0.62012,0.27906 -0.62012,0.62012 v 3.46232 h -5.8136 l 0.0259,-21.44572 14.90865,0.0517 v 13.47463 h 2.48047 v -14.76657 c 0,-0.68729 -0.55296,-1.24023 -1.24024,-1.24023 z m 4.36666,4.96094 c -0.34106,0 -0.62012,0.27906 -0.62012,0.62011 v 2.06706 c 0,0.34106 0.27906,0.62012 0.62012,0.62012 h 2.06705 c 0.34106,0 0.62012,-0.27906 0.62012,-0.62012 v -2.06706 c 0,-0.34105 -0.27906,-0.62011 -0.62012,-0.62011 z m 6.61458,0 c -0.34106,0 -0.62012,0.27906 -0.62012,0.62011 v 2.06706 c 0,0.34106 0.27906,0.62012 0.62012,0.62012 h 2.06705 c 0.34107,0 0.62012,-0.27906 0.62012,-0.62012 v -2.06706 c 0,-0.34105 -0.27905,-0.62011 -0.62012,-0.62011 z m -6.61458,4.96094 c -0.34106,0 -0.62012,0.27905 -0.62012,0.62011 v 2.06706 c 0,0.34106 0.27906,0.62012 0.62012,0.62012 h 2.06705 c 0.34106,0 0.62012,-0.27906 0.62012,-0.62012 v -2.06706 c 0,-0.34106 -0.27906,-0.62011 -0.62012,-0.62011 z m 6.61458,0 c -0.34106,0 -0.62012,0.27905 -0.62012,0.62011 v 2.06706 c 0,0.34106 0.27906,0.62012 0.62012,0.62012 h 2.06705 c 0.34107,0 0.62012,-0.27906 0.62012,-0.62012 v -2.06706 c 0,-0.34106 -0.27905,-0.62011 -0.62012,-0.62011 z m -6.61458,4.96093 c -0.34106,0 -0.62012,0.27906 -0.62012,0.62012 v 2.06706 c 0,0.34106 0.27906,0.62011 0.62012,0.62011 h 2.06705 c 0.34106,0 0.62012,-0.27905 0.62012,-0.62011 v -2.06706 c 0,-0.34106 -0.27906,-0.62012 -0.62012,-0.62012 z m 6.61458,0 c -0.34106,0 -0.62012,0.27906 -0.62012,0.62012 v 0.52245 c 0.0904,-0.0112 0.18197,-0.0186 0.27544,-0.0186 h 3.03185 v -0.50385 c 0,-0.34106 -0.27905,-0.62011 -0.62012,-0.62011 z"
       id="path987"
       inkscape:connector-curvature="0" />
    <path
       inkscape:connector-curvature="0"
       id="path1169"
       d="m 133.25317,216.45442 c -1.02234,0 -1.85179,0.82944 -1.85179,1.85178 v 13.57976 c 0,1.02234 0.82945,1.85179 1.85179,1.85179 h 13.57976 c 1.02234,0 1.85178,-0.82945 1.85178,-1.85179 V 218.3062 c 0,-1.02234 -0.82944,-1.85178 -1.85178,-1.85178 z m 10.63172,2.98172 c 0.0964,-4.2e-4 0.18871,0.049 0.23863,0.13721 l 0.18189,0.3173 c 0.23293,-0.0422 0.4703,-0.0422 0.70324,0 l 0.18189,-0.3173 c 0.0666,-0.11757 0.20855,-0.16632 0.335,-0.11973 0.26177,0.0976 0.50138,0.23736 0.71213,0.41261 0.10205,0.0843 0.12864,0.23291 0.0621,0.34827 l -0.18188,0.31722 c 0.15307,0.17747 0.27283,0.38378 0.35269,0.60784 h 0.36605 c 0.13311,0 0.24847,0.0954 0.27066,0.22854 0.0444,0.26621 0.0466,0.54574 0,0.82304 -0.0222,0.1331 -0.13755,0.23064 -0.27066,0.23064 h -0.36605 c -0.0799,0.22406 -0.19962,0.43037 -0.35269,0.60785 l 0.18188,0.31729 c 0.0665,0.11536 0.0422,0.26397 -0.0621,0.34827 -0.21075,0.17525 -0.45257,0.315 -0.71213,0.41261 -0.12645,0.0466 -0.26845,-0.002 -0.335,-0.11981 l -0.18189,-0.31722 c -0.23072,0.0421 -0.47031,0.0421 -0.70324,0 l -0.18189,0.31722 c -0.0665,0.11758 -0.20856,0.1664 -0.33501,0.11981 -0.26177,-0.0976 -0.50137,-0.23736 -0.71212,-0.41261 -0.10205,-0.0843 -0.12864,-0.23291 -0.0621,-0.34827 l 0.18189,-0.31729 c -0.15307,-0.17748 -0.27284,-0.38379 -0.35271,-0.60785 h -0.36604 c -0.13311,0 -0.24847,-0.0953 -0.27066,-0.22846 -0.0444,-0.26621 -0.0466,-0.54574 0,-0.82304 0.0222,-0.1331 0.13755,-0.23072 0.27066,-0.23072 h 0.36604 c 0.0799,-0.22406 0.19964,-0.43037 0.35271,-0.60784 l -0.18189,-0.31722 c -0.0666,-0.11536 -0.0422,-0.26397 0.0621,-0.34827 0.21075,-0.17525 0.45257,-0.315 0.71212,-0.41261 0.0316,-0.0117 0.0642,-0.0173 0.0964,-0.0175 z m -6.16456,0.67106 c 0.28257,-8.2e-4 0.56762,0.0219 0.85047,0.0696 0.25511,0.0444 0.44373,0.26398 0.44373,0.52353 v 0.74536 c 0.45034,0.15972 0.86293,0.39931 1.21787,0.70323 l 0.64559,-0.37268 c 0.22185,-0.12866 0.50796,-0.0799 0.67212,0.11755 0.35938,0.43037 0.73652,0.92289 0.93396,1.45974 0.0887,0.24181 0.002,0.51471 -0.22183,0.6456 l -0.74762,0.37267 c 0.0865,0.46587 0.0865,0.94279 0,1.40866 l 0.74762,0.37268 c 0.22406,0.12867 0.32171,0.40157 0.23298,0.64559 -0.19744,0.53686 -0.58573,1.0293 -0.94511,1.45967 -0.16416,0.19744 -0.44805,0.24629 -0.67212,0.11762 l -0.64559,-0.37268 c -0.35494,0.30392 -0.76753,0.54573 -1.21787,0.70324 v 0.74535 c 0,0.25734 -0.18413,0.47916 -0.43703,0.52353 -0.54572,0.0932 -1.11813,0.0976 -1.68383,0 -0.25512,-0.0444 -0.44366,-0.26397 -0.44366,-0.52353 v -0.74535 c -0.45033,-0.15973 -0.86292,-0.39932 -1.21787,-0.70324 l -0.64559,0.37042 c -0.22184,0.12867 -0.50803,0.0799 -0.67219,-0.11755 -0.35938,-0.43037 -0.7387,-0.92284 -0.93614,-1.45748 -0.0887,-0.24181 0.009,-0.51471 0.2329,-0.64559 l 0.73873,-0.37268 c -0.0865,-0.46365 -0.0865,-0.94061 0,-1.40647 l -0.73873,-0.37486 c -0.22406,-0.12867 -0.32386,-0.40161 -0.2329,-0.64341 0.19744,-0.53686 0.57676,-1.0293 0.93614,-1.45967 0.16416,-0.19744 0.44813,-0.24629 0.67219,-0.11762 l 0.64559,0.37275 c 0.35495,-0.30392 0.76754,-0.54573 1.21787,-0.70323 v -0.74762 c 0,-0.25512 0.18195,-0.47697 0.43485,-0.52134 0.27286,-0.0466 0.5529,-0.071 0.83547,-0.0718 z m 6.96409,0.87179 c -0.64277,-0.0216 -1.12492,0.72008 -0.61191,1.38734 0.85408,0.65664 1.82795,-0.31722 1.1713,-1.17131 -0.18683,-0.14413 -0.37942,-0.20998 -0.55939,-0.21603 z m -6.9277,2.49399 c -0.38179,-0.006 -0.79544,0.12297 -1.19579,0.43077 -1.3133,1.70818 0.6367,3.6581 2.34487,2.3448 1.0055,-1.30782 0.0981,-2.75733 -1.14908,-2.77557 z m 6.12817,2.59398 c 0.0964,-5.3e-4 0.18871,0.0491 0.23863,0.13728 l 0.18189,0.31723 c 0.23293,-0.0422 0.4703,-0.0422 0.70324,0 l 0.18189,-0.31723 c 0.0666,-0.11757 0.20855,-0.16639 0.335,-0.1198 0.26177,0.0976 0.50138,0.23736 0.71213,0.41261 0.10205,0.0843 0.12864,0.23291 0.0621,0.34827 l -0.18188,0.31722 c 0.15307,0.17747 0.27283,0.38378 0.35269,0.60784 h 0.36605 c 0.13311,0 0.24847,0.0954 0.27066,0.22853 0.0444,0.26622 0.0466,0.54574 0,0.82305 -0.0222,0.1331 -0.13755,0.23072 -0.27066,0.23072 h -0.36605 c -0.0799,0.22406 -0.19962,0.43037 -0.35269,0.60784 l 0.18188,0.31722 c 0.0665,0.11536 0.0422,0.26396 -0.0621,0.34826 -0.21075,0.17526 -0.45257,0.31501 -0.71213,0.41262 -0.12645,0.0466 -0.26845,-0.002 -0.335,-0.11981 l -0.18189,-0.31722 c -0.23072,0.0421 -0.47031,0.0421 -0.70324,0 l -0.18189,0.31722 c -0.0665,0.11758 -0.20856,0.16639 -0.33501,0.11981 -0.26177,-0.0976 -0.50137,-0.23736 -0.71212,-0.41262 -0.10205,-0.0843 -0.12864,-0.2329 -0.0621,-0.34826 l 0.18189,-0.31722 c -0.15307,-0.17747 -0.27284,-0.38378 -0.35271,-0.60784 h -0.36604 c -0.13311,0 -0.24847,-0.0954 -0.27066,-0.22854 -0.0444,-0.26621 -0.0466,-0.54574 0,-0.82304 0.0222,-0.1331 0.13755,-0.23072 0.27066,-0.23072 h 0.36604 c 0.0799,-0.22406 0.19964,-0.43037 0.35271,-0.60784 l -0.18189,-0.31722 c -0.0666,-0.11536 -0.0422,-0.26397 0.0621,-0.34827 0.21075,-0.17525 0.45257,-0.315 0.71212,-0.41261 0.0316,-0.0117 0.0642,-0.0173 0.0964,-0.0175 z m 0.79953,1.54149 c -0.64277,-0.0211 -1.12492,0.71925 -0.61191,1.38651 0.85408,0.65665 1.82795,-0.31722 1.1713,-1.17131 -0.18683,-0.14364 -0.37942,-0.20928 -0.55939,-0.2152 z"
       style="font-style:normal;font-weight:normal;font-size:77.420578px;line-height:1.25;font-family:sans-serif;letter-spacing:0px;word-spacing:0px;display:inline;fill:currentColor;fill-opacity:1;stroke:none;stroke-width:0.03857886;stroke-miterlimit:4;stroke-dasharray:none" />
    <text
       id="text1238-5"
       y="210.56667"
       x="144.41351"
       style="font-style:normal;font-variant:normal;font-weight:normal;font-stretch:normal;font-size:7.05555534px;line-height:1.25;font-family:'Helvetica Neue';-inkscape-font-specification:'Helvetica Neue, Normal';font-variant-ligatures:normal;font-variant-caps:normal;font-variant-numeric:normal;font-feature-settings:normal;text-align:start;letter-spacing:0px;word-spacing:0px;writing-mode:lr-tb;text-anchor:start;display:inline;fill:#808080;fill-opacity:1;stroke:none;stroke-width:0.26458332"
       xml:space="preserve"><tspan
         style="font-style:normal;font-variant:normal;font-weight:normal;font-stretch:normal;font-size:4.93888903px;font-family:Monaco;-inkscape-font-specification:'Monaco, Normal';font-variant-ligatures:normal;font-variant-caps:normal;font-variant-numeric:normal;font-feature-settings:normal;text-align:start;writing-mode:lr-tb;text-anchor:start;fill:#808080;stroke-width:0.26458332"
         sodipodi:role="line"
         x="144.41351"
         y="210.56667"
         id="tspan3099">$ gdb</tspan></text>
    <path
       sodipodi:nodetypes="cc"
       inkscape:original-d="M 140.32038,267.96633 V 237.59992"
       inkscape:path-effect="#path-effect2304-33"
       inkscape:connector-curvature="0"
       id="path2302-8"
       d="m 140.32038,267.96633 c 0,0 0,-30.36641 0,-30.36641"
       style="display:inline;fill:none;stroke:#808080;stroke-width:0.5;stroke-linecap:butt;stroke-linejoin:miter;stroke-miterlimit:4;stroke-dasharray:none;stroke-opacity:1;marker-end:url(#marker924)" />
    <path
       id="path1146"
       d="m 148.11204,261.3485 c -0.005,0.22128 -0.1703,0.39482 -0.36545,0.39482 h -0.6193 v 0.20313 c 0,0.27757 -0.0546,0.54061 -0.15221,0.77625 l 0.67407,0.76461 c 0.13985,0.15866 0.13985,0.41588 0,0.57453 -0.13988,0.15865 -0.36664,0.15864 -0.5065,0 l -0.61261,-0.69489 c -0.277,0.25483 -0.62993,0.40762 -1.01439,0.40762 v -3.09765 c 0,-0.0841 -0.0601,-0.15235 -0.1343,-0.15235 h -0.26861 c -0.0742,0 -0.1343,0.0682 -0.1343,0.15235 v 3.09765 c -0.38445,0 -0.73739,-0.15279 -1.01439,-0.40762 l -0.6126,0.69489 c -0.13988,0.15865 -0.36664,0.15864 -0.5065,0 -0.13986,-0.15865 -0.13986,-0.41587 0,-0.57453 l 0.67406,-0.76461 c -0.0976,-0.23564 -0.15221,-0.49868 -0.15221,-0.77625 v -0.20313 h -0.61929 c -0.19514,0 -0.3601,-0.17354 -0.36545,-0.39482 -0.006,-0.22958 0.15685,-0.41768 0.358,-0.41768 h 0.62674 v -0.74578 l -0.52185,-0.59196 c -0.13986,-0.15865 -0.13986,-0.41587 0,-0.57453 0.13987,-0.15865 0.36662,-0.15865 0.5065,0 l 0.61138,0.69352 h 2.56842 l 0.61138,-0.6935 c 0.13988,-0.15866 0.36663,-0.15866 0.50651,0 0.13985,0.15865 0.13985,0.41587 0,0.57452 l -0.52185,0.59195 v 0.74578 h 0.62675 c 0.20114,0 0.36356,0.1881 0.358,0.41768 z m -2.8538,-3.66768 c -0.69229,0 -1.2535,0.6366 -1.2535,1.42188 h 2.50699 c 0,-0.78528 -0.5612,-1.42188 -1.25349,-1.42188 z"
       inkscape:connector-curvature="0"
       style="fill:#808080;stroke-width:0.01191994" />
  </g>
  <g
     inkscape:groupmode="layer"
     id="layer4"
     inkscape:label="texte"
     style="display:inline"
     transform="translate(-27.48254,-92.912272)">
    <text
       id="text1218"
       y="131.9196"
       x="85.857452"
       style="font-style:italic;font-variant:normal;font-weight:normal;font-stretch:normal;font-size:6.05119705px;line-height:1.25;font-family:'Helvetica Neue';-inkscape-font-specification:'Helvetica Neue, Italic';font-variant-ligatures:normal;font-variant-caps:normal;font-variant-numeric:normal;font-feature-settings:normal;text-align:start;letter-spacing:0px;word-spacing:0px;writing-mode:lr-tb;text-anchor:start;display:inline;fill:#808080;fill-opacity:1;stroke:none;stroke-width:0.14381179"
       xml:space="preserve"><tspan
         sodipodi:role="line"
         id="tspan1220"
         x="85.857452"
         y="131.9196"
         style="font-style:italic;font-variant:normal;font-weight:normal;font-stretch:normal;font-size:6.05119705px;font-family:'Helvetica Neue';-inkscape-font-specification:'Helvetica Neue, Italic';font-variant-ligatures:normal;font-variant-caps:normal;font-variant-numeric:normal;font-feature-settings:normal;text-align:start;writing-mode:lr-tb;text-anchor:start;fill:#808080">SSH</tspan></text>
  </g>
</svg>
