<?xml version="1.0" encoding="UTF-8" standalone="no"?>
<!-- Created with Inkscape (http://www.inkscape.org/) -->

<svg
   xmlns:dc="http://purl.org/dc/elements/1.1/"
   xmlns:cc="http://creativecommons.org/ns#"
   xmlns:rdf="http://www.w3.org/1999/02/22-rdf-syntax-ns#"
   xmlns:svg="http://www.w3.org/2000/svg"
   xmlns="http://www.w3.org/2000/svg"
   xmlns:sodipodi="http://sodipodi.sourceforge.net/DTD/sodipodi-0.dtd"
   xmlns:inkscape="http://www.inkscape.org/namespaces/inkscape"
   width="269.89169mm"
   height="184.27739mm"
   viewBox="0 0 269.89169 184.27739"
   version="1.1"
   id="svg847"
   inkscape:version="0.92.2 5c3e80d, 2017-08-06"
   sodipodi:docname="design-infra.svg"
   inkscape:export-filename="/Users/vandaele/Documents/fun/senslab/www-iotlab/schemas/Images/design-infra-layers.png"
   inkscape:export-xdpi="180"
   inkscape:export-ydpi="180">
  <defs
     id="defs841">
    <inkscape:path-effect
       effect="bspline"
       id="path-effect1058"
       is_visible="true"
       weight="33.333333"
       steps="2"
       helper_size="0"
       apply_no_weight="true"
       apply_with_weight="true"
       only_selected="false" />
    <inkscape:path-effect
       only_selected="false"
       apply_with_weight="true"
       apply_no_weight="true"
       helper_size="0"
       steps="2"
       weight="33.333333"
       is_visible="true"
       id="path-effect1054"
       effect="bspline" />
    <inkscape:path-effect
       effect="bspline"
       id="path-effect1050"
       is_visible="true"
       weight="33.333333"
       steps="2"
       helper_size="0"
       apply_no_weight="true"
       apply_with_weight="true"
       only_selected="false" />
    <inkscape:path-effect
       effect="bspline"
       id="path-effect942"
       is_visible="true"
       weight="33.333333"
       steps="2"
       helper_size="0"
       apply_no_weight="true"
       apply_with_weight="true"
       only_selected="false" />
    <marker
       inkscape:isstock="true"
       style="overflow:visible"
       id="marker2663"
       refX="0"
       refY="0"
       orient="auto"
       inkscape:stockid="Arrow2Mend">
      <path
         transform="scale(-0.6)"
         d="M 8.7185878,4.0337352 -2.2072895,0.01601326 8.7185884,-4.0017078 c -1.7454984,2.3720609 -1.7354408,5.6174519 -6e-7,8.035443 z"
         style="fill:#808080;fill-opacity:1;fill-rule:evenodd;stroke:#808080;stroke-width:0.625;stroke-linejoin:round;stroke-opacity:1"
         id="path2661"
         inkscape:connector-curvature="0" />
    </marker>
    <marker
       inkscape:stockid="Arrow2Mend"
       orient="auto"
       refY="0"
       refX="0"
       id="Arrow2Mend"
       style="overflow:visible"
       inkscape:isstock="true"
       inkscape:collect="always">
      <path
         id="path2412"
         style="fill:#808080;fill-opacity:1;fill-rule:evenodd;stroke:#808080;stroke-width:0.625;stroke-linejoin:round;stroke-opacity:1"
         d="M 8.7185878,4.0337352 -2.2072895,0.01601326 8.7185884,-4.0017078 c -1.7454984,2.3720609 -1.7354408,5.6174519 -6e-7,8.035443 z"
         transform="scale(-0.6)"
         inkscape:connector-curvature="0" />
    </marker>
    <marker
       inkscape:stockid="Arrow2Lend"
       orient="auto"
       refY="0"
       refX="0"
       id="marker2657"
       style="overflow:visible"
       inkscape:isstock="true">
      <path
         id="path2655"
         style="fill:#000000;fill-opacity:1;fill-rule:evenodd;stroke:#000000;stroke-width:0.625;stroke-linejoin:round;stroke-opacity:1"
         d="M 8.7185878,4.0337352 -2.2072895,0.01601326 8.7185884,-4.0017078 c -1.7454984,2.3720609 -1.7354408,5.6174519 -6e-7,8.035443 z"
         transform="matrix(-1.1,0,0,-1.1,-1.1,0)"
         inkscape:connector-curvature="0" />
    </marker>
    <marker
       inkscape:stockid="Arrow2Lend"
       orient="auto"
       refY="0"
       refX="0"
       id="Arrow2Lend"
       style="overflow:visible"
       inkscape:isstock="true">
      <path
         id="path2406"
         style="fill:#000000;fill-opacity:1;fill-rule:evenodd;stroke:#000000;stroke-width:0.625;stroke-linejoin:round;stroke-opacity:1"
         d="M 8.7185878,4.0337352 -2.2072895,0.01601326 8.7185884,-4.0017078 c -1.7454984,2.3720609 -1.7354408,5.6174519 -6e-7,8.035443 z"
         transform="matrix(-1.1,0,0,-1.1,-1.1,0)"
         inkscape:connector-curvature="0" />
    </marker>
    <marker
       inkscape:stockid="EmptyTriangleOutL"
       orient="auto"
       refY="0"
       refX="0"
       id="EmptyTriangleOutL"
       style="overflow:visible"
       inkscape:isstock="true">
      <path
         id="path2545"
         d="M 5.77,0 -2.88,5 V -5 Z"
         style="fill:#ffffff;fill-rule:evenodd;stroke:#000000;stroke-width:1.00000003pt;stroke-opacity:1"
         transform="matrix(0.8,0,0,0.8,-4.8,0)"
         inkscape:connector-curvature="0" />
    </marker>
    <marker
       inkscape:stockid="TriangleOutL"
       orient="auto"
       refY="0"
       refX="0"
       id="TriangleOutL"
       style="overflow:visible"
       inkscape:isstock="true">
      <path
         id="path2527"
         d="M 5.77,0 -2.88,5 V -5 Z"
         style="fill:#000000;fill-opacity:1;fill-rule:evenodd;stroke:#000000;stroke-width:1.00000003pt;stroke-opacity:1"
         transform="scale(0.8)"
         inkscape:connector-curvature="0" />
    </marker>
    <inkscape:path-effect
       effect="bspline"
       id="path-effect2383"
       is_visible="true"
       weight="33.333333"
       steps="2"
       helper_size="0"
       apply_no_weight="true"
       apply_with_weight="true"
       only_selected="false" />
    <inkscape:path-effect
       only_selected="false"
       apply_with_weight="true"
       apply_no_weight="true"
       helper_size="0"
       steps="2"
       weight="33.333333"
       is_visible="true"
       id="path-effect2379"
       effect="bspline" />
    <inkscape:path-effect
       effect="bspline"
       id="path-effect2365"
       is_visible="true"
       weight="33.333333"
       steps="2"
       helper_size="0"
       apply_no_weight="true"
       apply_with_weight="true"
       only_selected="false" />
    <inkscape:path-effect
       effect="bspline"
       id="path-effect2361"
       is_visible="true"
       weight="33.333333"
       steps="2"
       helper_size="0"
       apply_no_weight="true"
       apply_with_weight="true"
       only_selected="false" />
    <inkscape:path-effect
       effect="bspline"
       id="path-effect2357"
       is_visible="true"
       weight="33.333333"
       steps="2"
       helper_size="0"
       apply_no_weight="true"
       apply_with_weight="true"
       only_selected="false" />
    <inkscape:path-effect
       effect="bspline"
       id="path-effect2353"
       is_visible="true"
       weight="33.333333"
       steps="2"
       helper_size="0"
       apply_no_weight="true"
       apply_with_weight="true"
       only_selected="false" />
    <inkscape:path-effect
       effect="bspline"
       id="path-effect2349"
       is_visible="true"
       weight="33.333333"
       steps="2"
       helper_size="0"
       apply_no_weight="true"
       apply_with_weight="true"
       only_selected="false" />
    <inkscape:path-effect
       effect="bspline"
       id="path-effect2324"
       is_visible="true"
       weight="33.333333"
       steps="2"
       helper_size="0"
       apply_no_weight="true"
       apply_with_weight="true"
       only_selected="false" />
    <inkscape:path-effect
       effect="bspline"
       id="path-effect2320"
       is_visible="true"
       weight="33.333333"
       steps="2"
       helper_size="0"
       apply_no_weight="true"
       apply_with_weight="true"
       only_selected="false" />
    <inkscape:path-effect
       effect="bspline"
       id="path-effect2316"
       is_visible="true"
       weight="33.333333"
       steps="2"
       helper_size="0"
       apply_no_weight="true"
       apply_with_weight="true"
       only_selected="false" />
    <inkscape:path-effect
       only_selected="false"
       apply_with_weight="true"
       apply_no_weight="true"
       helper_size="0"
       steps="2"
       weight="33.333333"
       is_visible="true"
       id="path-effect2312"
       effect="bspline" />
    <inkscape:path-effect
       only_selected="false"
       apply_with_weight="true"
       apply_no_weight="true"
       helper_size="0"
       steps="2"
       weight="33.333333"
       is_visible="true"
       id="path-effect2304"
       effect="bspline" />
    <inkscape:path-effect
       effect="bspline"
       id="path-effect2258"
       is_visible="true"
       weight="33.333333"
       steps="2"
       helper_size="0"
       apply_no_weight="true"
       apply_with_weight="true"
       only_selected="false" />
    <inkscape:path-effect
       effect="bspline"
       id="path-effect2242"
       is_visible="true"
       weight="33.333333"
       steps="2"
       helper_size="0"
       apply_no_weight="true"
       apply_with_weight="true"
       only_selected="false" />
    <inkscape:path-effect
       effect="bspline"
       id="path-effect2238"
       is_visible="true"
       weight="33.333333"
       steps="2"
       helper_size="0"
       apply_no_weight="true"
       apply_with_weight="true"
       only_selected="false" />
    <inkscape:path-effect
       effect="bspline"
       id="path-effect4800"
       is_visible="true"
       weight="30"
       steps="1"
       helper_size="5"
       apply_no_weight="false"
       apply_with_weight="false"
       only_selected="false" />
    <inkscape:path-effect
       effect="bspline"
       id="path-effect4798"
       is_visible="true"
       weight="33.333333"
       steps="1"
       helper_size="0"
       apply_no_weight="true"
       apply_with_weight="true"
       only_selected="false" />
    <inkscape:path-effect
       effect="bend_path"
       id="path-effect1107"
       is_visible="true"
       bendpath="m 168.78505,157.52766 h 90.83734"
       prop_scale="1"
       scale_y_rel="false"
       vertical="false" />
    <inkscape:path-effect
       effect="bspline"
       id="path-effect1105"
       is_visible="true"
       weight="33.333333"
       steps="2"
       helper_size="0"
       apply_no_weight="true"
       apply_with_weight="true"
       only_selected="false" />
  </defs>
  <sodipodi:namedview
     id="base"
     pagecolor="#ffffff"
     bordercolor="#666666"
     borderopacity="1.0"
     inkscape:pageopacity="0.0"
     inkscape:pageshadow="2"
     inkscape:zoom="0.78395062"
     inkscape:cx="497.38883"
     inkscape:cy="345.67041"
     inkscape:document-units="mm"
     inkscape:current-layer="svg847"
     showgrid="false"
     inkscape:window-width="1440"
     inkscape:window-height="855"
     inkscape:window-x="0"
     inkscape:window-y="1"
     inkscape:window-maximized="1"
     fit-margin-top="10"
     fit-margin-left="10"
     fit-margin-right="10"
     fit-margin-bottom="10">
    <inkscape:grid
       type="xygrid"
       id="grid1533"
       originx="-16.899206"
       originy="-13.541371" />
  </sodipodi:namedview>
  <metadata
     id="metadata844">
    <rdf:RDF>
      <cc:Work
         rdf:about="">
        <dc:format>image/svg+xml</dc:format>
        <dc:type
           rdf:resource="http://purl.org/dc/dcmitype/StillImage" />
        <dc:title></dc:title>
      </cc:Work>
    </rdf:RDF>
  </metadata>
  <g
     inkscape:groupmode="layer"
     id="layer4"
     inkscape:label="texte"
     style="display:inline"
     transform="translate(-16.899206,-12.181235)">
    <path
       style="fill:none;stroke:#b3b3b3;stroke-width:0.26499999;stroke-linecap:butt;stroke-linejoin:miter;stroke-miterlimit:4;stroke-dasharray:none;stroke-opacity:1"
       d="m 276.79091,78.058526 c -26.09199,0 -52.18422,0 -78.27673,0"
       id="path1048"
       inkscape:connector-curvature="0"
       inkscape:path-effect="#path-effect1050"
       inkscape:original-d="m 276.79091,78.058526 c -26.09199,-2.64e-4 -52.18422,-2.64e-4 -78.27673,0" />
    <path
       inkscape:original-d="m 276.79091,106.10437 c -9.14794,-2.6e-4 -18.29613,-2.6e-4 -27.44459,0"
       inkscape:path-effect="#path-effect1054"
       inkscape:connector-curvature="0"
       id="path1052"
       d="m 276.79091,106.10437 c -9.14794,0 -18.29613,0 -27.44459,0"
       style="fill:none;stroke:#b3b3b3;stroke-width:0.26499999;stroke-linecap:butt;stroke-linejoin:miter;stroke-miterlimit:4;stroke-dasharray:none;stroke-opacity:1"
       sodipodi:nodetypes="cc" />
    <path
       style="fill:none;stroke:#b3b3b3;stroke-width:0.26499999;stroke-linecap:butt;stroke-linejoin:miter;stroke-miterlimit:4;stroke-dasharray:none;stroke-opacity:1"
       d="m 204.29504,169.60441 c -11.45487,0 -22.91,0 -34.3654,0"
       id="path1056"
       inkscape:connector-curvature="0"
       inkscape:path-effect="#path-effect1058"
       inkscape:original-d="m 204.29504,169.60441 c -11.45487,-2.6e-4 -22.91,-2.6e-4 -34.3654,0"
       sodipodi:nodetypes="cc" />
    <text
       xml:space="preserve"
       style="font-style:normal;font-variant:normal;font-weight:normal;font-stretch:normal;font-size:7.05555534px;line-height:1.25;font-family:'Helvetica Neue';-inkscape-font-specification:'Helvetica Neue, Normal';font-variant-ligatures:normal;font-variant-caps:normal;font-variant-numeric:normal;font-feature-settings:normal;text-align:start;letter-spacing:0px;word-spacing:0px;writing-mode:lr-tb;text-anchor:start;display:inline;fill:#b3b3b3;fill-opacity:1;stroke:none;stroke-width:0.26458332"
       x="257.47797"
       y="105.07935"
       id="text1234"><tspan
         sodipodi:role="line"
         id="tspan1232"
         x="257.47797"
         y="105.07935"
         style="font-style:normal;font-variant:normal;font-weight:normal;font-stretch:normal;font-size:7.05555534px;font-family:'Helvetica Neue';-inkscape-font-specification:'Helvetica Neue, Normal';font-variant-ligatures:normal;font-variant-caps:normal;font-variant-numeric:normal;font-feature-settings:normal;text-align:start;writing-mode:lr-tb;text-anchor:start;fill:#b3b3b3;stroke-width:0.26458332">SITES</tspan></text>
    <text
       id="text1238"
       y="167.53699"
       x="179.49193"
       style="font-style:normal;font-variant:normal;font-weight:normal;font-stretch:normal;font-size:7.05555534px;line-height:1.25;font-family:'Helvetica Neue';-inkscape-font-specification:'Helvetica Neue, Normal';font-variant-ligatures:normal;font-variant-caps:normal;font-variant-numeric:normal;font-feature-settings:normal;text-align:start;letter-spacing:0px;word-spacing:0px;writing-mode:lr-tb;text-anchor:start;display:inline;fill:#b3b3b3;fill-opacity:1;stroke:none;stroke-width:0.26458332"
       xml:space="preserve"><tspan
         sodipodi:role="line"
         id="tspan1240"
         x="179.49193"
         y="167.53699">NODES</tspan></text>
    <text
       id="text1037"
       y="76.441528"
       x="219.23685"
       style="font-style:normal;font-variant:normal;font-weight:normal;font-stretch:normal;font-size:7.05555534px;line-height:1.25;font-family:'Helvetica Neue';-inkscape-font-specification:'Helvetica Neue, Normal';font-variant-ligatures:normal;font-variant-caps:normal;font-variant-numeric:normal;font-feature-settings:normal;text-align:start;letter-spacing:0px;word-spacing:0px;writing-mode:lr-tb;text-anchor:start;display:inline;fill:#b3b3b3;fill-opacity:1;stroke:none;stroke-width:0.26458332"
       xml:space="preserve"><tspan
         sodipodi:role="line"
         id="tspan1039"
         x="219.23685"
         y="76.441528">MASTER SERVER</tspan></text>
  </g>
  <g
     inkscape:label="Calque 1"
     inkscape:groupmode="layer"
     id="layer1"
     transform="translate(-16.899206,-99.181235)"
     style="display:inline">
    <path
       style="display:inline;opacity:0;fill:none;fill-rule:evenodd;stroke:#000000;stroke-width:1.41111112;stroke-linecap:butt;stroke-linejoin:miter;stroke-opacity:1"
       d="m 206.20745,204.02378 v -60.25245 c 0,-0.26459 -0.26458,-0.52917 -0.52917,-0.52917 h -4.67161"
       id="path1608"
       inkscape:connector-type="orthogonal"
       inkscape:connector-curvature="2"
       sodipodi:nodetypes="cccc" />
    <path
       style="fill:none;stroke:#000000;stroke-width:2;stroke-linecap:round;stroke-linejoin:round;stroke-miterlimit:4;stroke-dasharray:none;stroke-opacity:1"
       d="m 130.07086,200.35164 c 0,-4.14356 0,-8.2866 0,-12.4299 0,0 17.52648,0 17.52648,0"
       id="path2240"
       inkscape:connector-curvature="0"
       inkscape:path-effect="#path-effect2242"
       inkscape:original-d="m 130.07086,200.35164 c 2.6e-4,-4.14356 0,-12.4299 0,-12.4299 h 17.52648"
       sodipodi:nodetypes="ccc" />
    <path
       style="fill:none;stroke:#808080;stroke-width:1;stroke-linecap:butt;stroke-linejoin:miter;stroke-miterlimit:4;stroke-dasharray:none;stroke-opacity:1;marker-end:url(#Arrow2Mend)"
       d="m 61.725735,137.6377 c 12.577935,-6.18115 25.155522,-12.36213 37.732892,-12.62579 12.577373,-0.26366 25.154543,5.38972 37.731923,11.04319"
       id="path2256"
       inkscape:connector-curvature="0"
       inkscape:path-effect="#path-effect2258"
       inkscape:original-d="m 61.725735,137.6377 c 12.577881,-6.18126 25.155468,-12.36224 37.732805,-18.54296 12.5776,5.65319 25.15477,11.30657 37.73201,16.96036"
       sodipodi:nodetypes="ccc" />
    <path
       sodipodi:nodetypes="ccc"
       inkscape:original-d="m 47.101694,177.8293 c 7.939985,10.82671 15.879398,21.65327 23.818506,32.48003 13.820248,1.60275 27.640293,3.20576 41.46062,4.80911"
       inkscape:path-effect="#path-effect2304"
       inkscape:connector-curvature="0"
       id="path2302"
       d="m 47.101694,177.8293 c 7.939687,10.82693 15.879102,21.65349 26.758911,27.86828 10.87981,6.21479 24.699854,7.81781 38.520215,9.42086"
       style="fill:none;stroke:#808080;stroke-width:1;stroke-linecap:butt;stroke-linejoin:miter;stroke-miterlimit:4;stroke-dasharray:none;stroke-opacity:1;marker-end:url(#marker2663)" />
    <g
       id="g985"
       transform="translate(-3.7041667,-4.7625)">
      <path
         style="fill:none;stroke:#000000;stroke-width:4;stroke-miterlimit:4;stroke-dasharray:none"
         inkscape:connector-curvature="0"
         d="m 198.89887,145.11079 c 0.40356,-1.05321 0.62995,-2.20486 0.62995,-3.40573 0,-5.21686 -4.23254,-9.4494 -9.4494,-9.4494 -1.9391,0 -3.75024,0.59059 -5.24638,1.59459 -2.72655,-4.72471 -7.81545,-7.8942 -13.65243,-7.8942 -8.70132,0 -15.749,7.04769 -15.749,15.74901 0,0.26577 0.01,0.53153 0.0196,0.79729 -5.51215,1.9391 -9.46909,7.19533 -9.46909,13.37681 0,7.82529 6.34881,14.17411 14.1741,14.17411 h 36.22271 c 6.9591,0 12.59921,-5.64011 12.59921,-12.59921 0,-6.09288 -4.33097,-11.18178 -10.07936,-12.34327 z"
         id="path1522" />
      <text
         id="text2308"
         y="161.47887"
         x="161.45946"
         style="font-style:normal;font-variant:normal;font-weight:normal;font-stretch:normal;font-size:20.48545265px;line-height:1.25;font-family:'Helvetica Neue';-inkscape-font-specification:'Helvetica Neue, Normal';font-variant-ligatures:normal;font-variant-caps:normal;font-variant-numeric:normal;font-feature-settings:normal;text-align:start;letter-spacing:0px;word-spacing:0px;writing-mode:lr-tb;text-anchor:start;fill:#000000;fill-opacity:1;stroke:none;stroke-width:0.51213706"
         xml:space="preserve"><tspan
           style="font-style:normal;font-variant:normal;font-weight:normal;font-stretch:normal;font-size:20.48545265px;font-family:'Helvetica Neue';-inkscape-font-specification:'Helvetica Neue, Normal';font-variant-ligatures:normal;font-variant-caps:normal;font-variant-numeric:normal;font-feature-settings:normal;text-align:start;writing-mode:lr-tb;text-anchor:start;fill:#000000;stroke:none;stroke-width:0.51213706"
           y="161.47887"
           x="161.45946"
           id="tspan2306"
           sodipodi:role="line">API</tspan></text>
    </g>
    <path
       style="fill:none;stroke:#000000;stroke-width:2;stroke-linecap:round;stroke-linejoin:round;stroke-miterlimit:4;stroke-dasharray:none;stroke-opacity:1"
       d="m 249.4634,200.35164 c 0,-4.14356 0,-8.2866 0,-12.4299 0,0 -43.19253,0 -43.19253,0 0,0 0,12.44092 0,12.44092"
       id="path2314"
       inkscape:connector-curvature="0"
       inkscape:path-effect="#path-effect2316"
       inkscape:original-d="m 249.4634,200.35164 c 2.6e-4,-4.14356 0,-12.4299 0,-12.4299 h -43.19253 v 12.44092"
       sodipodi:nodetypes="cccc" />
    <path
       style="fill:none;stroke:#000000;stroke-width:2;stroke-linecap:round;stroke-linejoin:round;stroke-miterlimit:4;stroke-dasharray:none;stroke-opacity:1"
       d="m 174.05568,172.23971 c 0,0 0,15.68203 0,15.68203 0,0 32.21519,0 32.21519,0"
       id="path2318"
       inkscape:connector-curvature="0"
       inkscape:path-effect="#path-effect2320"
       inkscape:original-d="m 174.05568,172.23971 v 15.68203 h 32.21519"
       sodipodi:nodetypes="ccc" />
    <path
       style="fill:none;stroke:#000000;stroke-width:2;stroke-linecap:butt;stroke-linejoin:miter;stroke-miterlimit:4;stroke-dasharray:4, 2;stroke-dashoffset:0;stroke-opacity:1"
       d="m 147.59734,187.92174 c 8.81971,0 17.63915,0 26.45834,0"
       id="path2322"
       inkscape:connector-curvature="0"
       inkscape:path-effect="#path-effect2324"
       inkscape:original-d="m 147.59734,187.92174 c 8.81971,-2.6e-4 17.63915,-2.6e-4 26.45834,0"
       sodipodi:nodetypes="cc" />
    <path
       style="fill:none;stroke:#000000;stroke-width:2;stroke-linecap:round;stroke-linejoin:round;stroke-miterlimit:4;stroke-dasharray:none;stroke-opacity:1"
       d="m 90.28938,260.43303 c 0,-3.28826 0,-6.70243 0,-10.05365 0,0 38.92523,0 38.92523,0 0,0 0,-15.19129 0,-15.19129"
       id="path2347"
       inkscape:connector-curvature="0"
       inkscape:path-effect="#path-effect2349"
       inkscape:original-d="m 90.28938,260.43303 c 2.6e-4,-3.28826 0,-10.05365 0,-10.05365 h 38.92523 v -15.19129"
       sodipodi:nodetypes="cccc" />
    <path
       style="fill:none;stroke:#000000;stroke-width:2;stroke-linecap:round;stroke-linejoin:round;stroke-miterlimit:4;stroke-dasharray:none;stroke-opacity:1"
       d="m 106.18045,250.4564 c -0.0545,3.32528 -0.10903,6.65109 -0.16355,9.97663"
       id="path2351"
       inkscape:connector-curvature="0"
       inkscape:path-effect="#path-effect2353"
       inkscape:original-d="m 106.18045,250.4564 c -0.0543,3.32528 -0.16355,9.97663 -0.16355,9.97663"
       sodipodi:nodetypes="cc" />
    <path
       style="fill:none;stroke:#000000;stroke-width:2;stroke-linecap:round;stroke-linejoin:round;stroke-miterlimit:4;stroke-dasharray:none;stroke-opacity:1"
       d="m 121.97368,250.4564 c 0,3.38071 0,6.65109 0,9.97663"
       id="path2355"
       inkscape:connector-curvature="0"
       inkscape:path-effect="#path-effect2357"
       inkscape:original-d="m 121.97368,250.4564 c 2.6e-4,3.38071 0,9.97663 0,9.97663"
       sodipodi:nodetypes="cc" />
    <path
       style="fill:none;stroke:#000000;stroke-width:2;stroke-linecap:round;stroke-linejoin:round;stroke-miterlimit:4;stroke-dasharray:none;stroke-opacity:1"
       d="m 129.21461,250.37938 c 0,0 8.58617,0 8.58617,0 0,0 0,10.05365 0,10.05365"
       id="path2363"
       inkscape:connector-curvature="0"
       inkscape:path-effect="#path-effect2365"
       inkscape:original-d="m 129.21461,250.37938 h 8.58617 v 10.05365"
       sodipodi:nodetypes="ccc" />
    <path
       sodipodi:nodetypes="ccc"
       inkscape:original-d="m 164.13962,250.37938 h 5.41117 v 10.05365"
       inkscape:path-effect="#path-effect2379"
       inkscape:connector-curvature="0"
       id="path2377"
       d="m 164.13962,250.37938 c 0,0 5.41117,0 5.41117,0 0,0 0,10.05365 0,10.05365"
       style="fill:none;stroke:#000000;stroke-width:2;stroke-linecap:round;stroke-linejoin:round;stroke-miterlimit:4;stroke-dasharray:none;stroke-opacity:1" />
    <path
       style="fill:none;stroke:#000000;stroke-width:2;stroke-linecap:butt;stroke-linejoin:round;stroke-miterlimit:4;stroke-dasharray:4.00000011, 2.00000006;stroke-dashoffset:0;stroke-opacity:1"
       d="m 137.80078,250.37938 c 9.30904,0 18.61782,0 27.92634,0"
       id="path2381"
       inkscape:connector-curvature="0"
       inkscape:path-effect="#path-effect2383"
       inkscape:original-d="m 137.80078,250.37938 c 9.30904,-2.6e-4 18.61782,-2.6e-4 27.92634,0"
       sodipodi:nodetypes="cc" />
    <path
       id="path987"
       d="m 125.01568,211.67196 v -2.06703 c 0,-0.34106 0.27905,-0.62011 0.62011,-0.62011 h 2.06703 c 0.34106,0 0.62011,0.27905 0.62011,0.62011 v 2.06703 c 0,0.34106 -0.27905,0.62011 -0.62011,0.62011 h -2.06703 c -0.34106,0 -0.62011,-0.27905 -0.62011,-0.62011 z m 7.23461,0.62011 h 2.06703 c 0.34106,0 0.62011,-0.27905 0.62011,-0.62011 v -2.06703 c 0,-0.34106 -0.27905,-0.62011 -0.62011,-0.62011 h -2.06703 c -0.34106,0 -0.62011,0.27905 -0.62011,0.62011 v 2.06703 c 0,0.34106 0.27905,0.62011 0.62011,0.62011 z m -6.6145,4.96088 h 2.06703 c 0.34106,0 0.62011,-0.27905 0.62011,-0.62011 v -2.06703 c 0,-0.34106 -0.27905,-0.62011 -0.62011,-0.62011 h -2.06703 c -0.34106,0 -0.62011,0.27905 -0.62011,0.62011 v 2.06703 c 0,0.34106 0.27905,0.62011 0.62011,0.62011 z m 6.6145,0 h 2.06703 c 0.34106,0 0.62011,-0.27905 0.62011,-0.62011 v -2.06703 c 0,-0.34106 -0.27905,-0.62011 -0.62011,-0.62011 h -2.06703 c -0.34106,0 -0.62011,0.27905 -0.62011,0.62011 v 2.06703 c 0,0.34106 0.27905,0.62011 0.62011,0.62011 z m -3.92736,4.34076 v -2.06703 c 0,-0.34106 -0.27905,-0.62011 -0.62011,-0.62011 h -2.06703 c -0.34106,0 -0.62011,0.27905 -0.62011,0.62011 v 2.06703 c 0,0.34106 0.27905,0.62011 0.62011,0.62011 h 2.06703 c 0.34106,0 0.62011,-0.27905 0.62011,-0.62011 z m 3.92736,0.62011 h 2.06703 c 0.34106,0 0.62011,-0.27905 0.62011,-0.62011 v -2.06703 c 0,-0.34106 -0.27905,-0.62011 -0.62011,-0.62011 h -2.06703 c -0.34106,0 -0.62011,0.27905 -0.62011,0.62011 v 2.06703 c 0,0.34106 0.27905,0.62011 0.62011,0.62011 z m 9.30164,6.4078 v 1.86033 h -23.15075 v -1.86033 c 0,-0.34106 0.27905,-0.62011 0.62011,-0.62011 h 1.00768 v -22.73734 c 0,-0.68729 0.55293,-1.24022 1.24022,-1.24022 h 17.41474 c 0.68728,0 1.24021,0.55293 1.24021,1.24022 v 22.73734 h 1.00768 c 0.34106,0 0.62011,0.27905 0.62011,0.62011 z m -19.04252,-0.67178 h 5.81352 v -3.46228 c 0,-0.34106 0.27905,-0.62011 0.62011,-0.62011 h 2.06703 c 0.34106,0 0.62011,0.27905 0.62011,0.62011 v 3.46228 h 5.81353 v -21.39378 l -14.90847,-0.0517 z"
       inkscape:connector-curvature="0"
       style="fill:currentColor;stroke-width:0.05167578" />
    <path
       id="path998"
       d="m 48.50698,154.78648 c -1.977496,0 -2.928349,1.10244 -6.17365,1.10244 -3.245299,0 -4.189261,-1.10244 -6.173648,-1.10244 -5.112555,0 -9.260476,4.14792 -9.260476,9.26048 v 1.7639 c 0,1.82591 1.4814,3.30731 3.307312,3.30731 h 24.253621 c 1.82592,0 3.30732,-1.4814 3.30732,-3.30731 v -1.7639 c 0,-5.11256 -4.14792,-9.26048 -9.260479,-9.26048 z m 5.953159,11.02438 H 30.206518 v -1.7639 c 0,-3.27975 2.673411,-5.95317 5.953164,-5.95317 1.005972,0 2.638959,1.10244 6.173648,1.10244 3.562251,0 5.160787,-1.10244 6.17365,-1.10244 3.279749,0 5.953159,2.67342 5.953159,5.95317 z M 42.33333,153.68404 c 5.477737,0 9.921939,-4.4442 9.921939,-9.92193 0,-5.47774 -4.444202,-9.92194 -9.921939,-9.92194 -5.477735,0 -9.921937,4.4442 -9.921937,9.92194 0,5.47773 4.444202,9.92193 9.921937,9.92193 z m 0,-16.53656 c 3.644934,0 6.614629,2.96969 6.614629,6.61463 0,3.64493 -2.969695,6.61462 -6.614629,6.61462 -3.644932,0 -6.614625,-2.96969 -6.614625,-6.61462 0,-3.64494 2.969693,-6.61463 6.614625,-6.61463 z"
       inkscape:connector-curvature="0"
       style="fill:currentColor;stroke-width:0.06890234" />
    <path
       style="fill:currentColor;stroke-width:0.05167578"
       inkscape:connector-curvature="0"
       d="m 201.21574,211.67196 v -2.06703 c 0,-0.34106 0.27905,-0.62011 0.62011,-0.62011 h 2.06703 c 0.34106,0 0.62011,0.27905 0.62011,0.62011 v 2.06703 c 0,0.34106 -0.27905,0.62011 -0.62011,0.62011 h -2.06703 c -0.34106,0 -0.62011,-0.27905 -0.62011,-0.62011 z m 7.23461,0.62011 h 2.06703 c 0.34106,0 0.62011,-0.27905 0.62011,-0.62011 v -2.06703 c 0,-0.34106 -0.27905,-0.62011 -0.62011,-0.62011 h -2.06703 c -0.34106,0 -0.62011,0.27905 -0.62011,0.62011 v 2.06703 c 0,0.34106 0.27905,0.62011 0.62011,0.62011 z m -6.6145,4.96088 h 2.06703 c 0.34106,0 0.62011,-0.27905 0.62011,-0.62011 v -2.06703 c 0,-0.34106 -0.27905,-0.62011 -0.62011,-0.62011 h -2.06703 c -0.34106,0 -0.62011,0.27905 -0.62011,0.62011 v 2.06703 c 0,0.34106 0.27905,0.62011 0.62011,0.62011 z m 6.6145,0 h 2.06703 c 0.34106,0 0.62011,-0.27905 0.62011,-0.62011 v -2.06703 c 0,-0.34106 -0.27905,-0.62011 -0.62011,-0.62011 h -2.06703 c -0.34106,0 -0.62011,0.27905 -0.62011,0.62011 v 2.06703 c 0,0.34106 0.27905,0.62011 0.62011,0.62011 z m -3.92736,4.34076 v -2.06703 c 0,-0.34106 -0.27905,-0.62011 -0.62011,-0.62011 h -2.06703 c -0.34106,0 -0.62011,0.27905 -0.62011,0.62011 v 2.06703 c 0,0.34106 0.27905,0.62011 0.62011,0.62011 h 2.06703 c 0.34106,0 0.62011,-0.27905 0.62011,-0.62011 z m 3.92736,0.62011 h 2.06703 c 0.34106,0 0.62011,-0.27905 0.62011,-0.62011 v -2.06703 c 0,-0.34106 -0.27905,-0.62011 -0.62011,-0.62011 h -2.06703 c -0.34106,0 -0.62011,0.27905 -0.62011,0.62011 v 2.06703 c 0,0.34106 0.27905,0.62011 0.62011,0.62011 z m 9.30164,6.4078 v 1.86033 h -23.15075 v -1.86033 c 0,-0.34106 0.27905,-0.62011 0.62011,-0.62011 h 1.00768 v -22.73734 c 0,-0.68729 0.55293,-1.24022 1.24022,-1.24022 h 17.41474 c 0.68728,0 1.24021,0.55293 1.24021,1.24022 v 22.73734 h 1.00768 c 0.34106,0 0.62011,0.27905 0.62011,0.62011 z m -19.04252,-0.67178 h 5.81352 v -3.46228 c 0,-0.34106 0.27905,-0.62011 0.62011,-0.62011 h 2.06703 c 0.34106,0 0.62011,0.27905 0.62011,0.62011 v 3.46228 h 5.81353 v -21.39378 l -14.90847,-0.0517 z"
       id="path922" />
    <path
       id="path924"
       d="m 244.07827,211.67196 v -2.06703 c 0,-0.34106 0.27905,-0.62011 0.62011,-0.62011 h 2.06703 c 0.34106,0 0.62011,0.27905 0.62011,0.62011 v 2.06703 c 0,0.34106 -0.27905,0.62011 -0.62011,0.62011 h -2.06703 c -0.34106,0 -0.62011,-0.27905 -0.62011,-0.62011 z m 7.23461,0.62011 h 2.06703 c 0.34106,0 0.62011,-0.27905 0.62011,-0.62011 v -2.06703 c 0,-0.34106 -0.27905,-0.62011 -0.62011,-0.62011 h -2.06703 c -0.34106,0 -0.62011,0.27905 -0.62011,0.62011 v 2.06703 c 0,0.34106 0.27905,0.62011 0.62011,0.62011 z m -6.6145,4.96088 h 2.06703 c 0.34106,0 0.62011,-0.27905 0.62011,-0.62011 v -2.06703 c 0,-0.34106 -0.27905,-0.62011 -0.62011,-0.62011 h -2.06703 c -0.34106,0 -0.62011,0.27905 -0.62011,0.62011 v 2.06703 c 0,0.34106 0.27905,0.62011 0.62011,0.62011 z m 6.6145,0 h 2.06703 c 0.34106,0 0.62011,-0.27905 0.62011,-0.62011 v -2.06703 c 0,-0.34106 -0.27905,-0.62011 -0.62011,-0.62011 h -2.06703 c -0.34106,0 -0.62011,0.27905 -0.62011,0.62011 v 2.06703 c 0,0.34106 0.27905,0.62011 0.62011,0.62011 z m -3.92736,4.34076 v -2.06703 c 0,-0.34106 -0.27905,-0.62011 -0.62011,-0.62011 h -2.06703 c -0.34106,0 -0.62011,0.27905 -0.62011,0.62011 v 2.06703 c 0,0.34106 0.27905,0.62011 0.62011,0.62011 h 2.06703 c 0.34106,0 0.62011,-0.27905 0.62011,-0.62011 z m 3.92736,0.62011 h 2.06703 c 0.34106,0 0.62011,-0.27905 0.62011,-0.62011 v -2.06703 c 0,-0.34106 -0.27905,-0.62011 -0.62011,-0.62011 h -2.06703 c -0.34106,0 -0.62011,0.27905 -0.62011,0.62011 v 2.06703 c 0,0.34106 0.27905,0.62011 0.62011,0.62011 z m 9.30164,6.4078 v 1.86033 h -23.15075 v -1.86033 c 0,-0.34106 0.27905,-0.62011 0.62011,-0.62011 h 1.00768 v -22.73734 c 0,-0.68729 0.55293,-1.24022 1.24022,-1.24022 h 17.41474 c 0.68728,0 1.24021,0.55293 1.24021,1.24022 v 22.73734 h 1.00768 c 0.34106,0 0.62011,0.27905 0.62011,0.62011 z M 241.572,227.94984 h 5.81352 v -3.46228 c 0,-0.34106 0.27905,-0.62011 0.62011,-0.62011 h 2.06703 c 0.34106,0 0.62011,0.27905 0.62011,0.62011 v 3.46228 h 5.81353 v -21.39378 l -14.90847,-0.0517 z"
       inkscape:connector-curvature="0"
       style="fill:currentColor;stroke-width:0.05167578" />
    <path
       style="display:inline;opacity:1;fill:currentColor;stroke-width:0.01420648"
       d="m 119.8427,263.45871 c -0.0471,0 -0.0852,0.0383 -0.0852,0.0853 v 0.25572 h -0.0852 c -0.0471,0 -0.0852,0.0381 -0.0852,0.0852 v 0.59669 h 0.68189 v -0.59669 c 0,-0.0471 -0.0382,-0.0852 -0.0852,-0.0852 h -0.0852 v -0.25572 c 0,-0.0472 -0.0382,-0.0853 -0.0852,-0.0853 z m 1.36383,0 c -0.0471,0 -0.0852,0.0383 -0.0852,0.0853 v 0.25572 h -0.0852 c -0.0471,0 -0.0852,0.0381 -0.0852,0.0852 v 0.59669 h 0.68188 v -0.59669 c 0,-0.0471 -0.0383,-0.0852 -0.0852,-0.0852 h -0.0852 v -0.25572 c 0,-0.0472 -0.0383,-0.0853 -0.0852,-0.0853 z m 1.36376,0 c -0.0471,0 -0.0852,0.0383 -0.0852,0.0853 v 0.25572 h -0.0852 c -0.0471,0 -0.0852,0.0381 -0.0852,0.0852 v 0.59669 h 0.68195 v -0.59669 c 0,-0.0471 -0.0382,-0.0852 -0.0852,-0.0852 h -0.0852 v -0.25572 c 0,-0.0472 -0.0381,-0.0853 -0.0852,-0.0853 z m 1.36384,0 c -0.0471,0 -0.0852,0.0383 -0.0852,0.0853 v 0.25572 h -0.0852 c -0.0471,0 -0.0852,0.0381 -0.0852,0.0852 v 0.59669 h 0.68195 v -0.59669 c 0,-0.0471 -0.0383,-0.0852 -0.0852,-0.0852 h -0.0852 v -0.25572 c 0,-0.0472 -0.0381,-0.0853 -0.0852,-0.0853 z m -4.91474,1.36316 c -0.37661,0 -0.68194,0.30526 -0.68194,0.68186 v 5.90991 c 0,0.37661 0.30533,0.68194 0.68194,0.68194 h 5.90854 c 0.37663,0 0.6819,-0.30533 0.6819,-0.68194 v -5.90991 c 0,-0.3766 -0.30527,-0.68186 -0.6819,-0.68186 z m -1.61953,1.25013 c -0.0471,0 -0.0852,0.0383 -0.0852,0.0853 v 0.0852 h -0.2557 c -0.0471,0 -0.0852,0.0383 -0.0852,0.0852 v 0.17052 c 0,0.0472 0.0383,0.0852 0.0852,0.0852 h 0.2557 v 0.0853 c 2e-5,0.0472 0.0383,0.0852 0.0852,0.0852 h 0.59667 v -0.68195 z m 8.55094,0 v 0.68195 h 0.59669 c 0.0471,0 0.0852,-0.0382 0.0852,-0.0852 v -0.0852 h 0.25572 c 0.0471,0 0.0852,-0.0381 0.0852,-0.0853 v -0.17053 c 0,-0.0472 -0.0383,-0.0852 -0.0852,-0.0852 h -0.25572 v -0.0852 c 0,-0.0472 -0.0381,-0.0853 -0.0852,-0.0853 z m -8.55094,1.36383 c -0.0471,0 -0.0852,0.0383 -0.0852,0.0852 v 0.0853 h -0.2557 c -0.0471,0 -0.0852,0.0383 -0.0852,0.0852 v 0.17045 c 0,0.0471 0.0383,0.0853 0.0852,0.0853 h 0.2557 v 0.0853 c 0,0.0471 0.0383,0.0852 0.0852,0.0852 h 0.59667 v -0.68189 z m 8.55094,0 v 0.6819 h 0.59669 c 0.0471,0 0.0852,-0.0381 0.0852,-0.0852 v -0.0853 h 0.25572 c 0.0471,0 0.0852,-0.0383 0.0852,-0.0852 v -0.17045 c 0,-0.0472 -0.0383,-0.0852 -0.0852,-0.0852 h -0.25572 v -0.0852 c 0,-0.0472 -0.0381,-0.0853 -0.0852,-0.0853 z m -8.55094,1.36384 c -0.0471,0 -0.0852,0.0383 -0.0852,0.0852 v 0.0853 h -0.2557 c -0.0471,0 -0.0852,0.0383 -0.0852,0.0853 v 0.17045 c 0,0.0472 0.0383,0.0853 0.0852,0.0853 h 0.2557 v 0.0852 c 0,0.0472 0.0383,0.0852 0.0852,0.0852 h 0.59667 v -0.68189 z m 8.55094,0 v 0.68188 h 0.59669 c 0.0471,0 0.0852,-0.0381 0.0852,-0.0853 v -0.0852 h 0.25572 c 0.0471,0 0.0852,-0.0383 0.0852,-0.0852 v -0.17045 c 0,-0.0472 -0.0383,-0.0853 -0.0852,-0.0853 h -0.25572 v -0.0852 c 0,-0.0471 -0.0381,-0.0852 -0.0852,-0.0852 z m -8.55094,1.36382 c -0.0471,0 -0.0852,0.0381 -0.0852,0.0852 v 0.0852 h -0.2557 c -0.0471,0 -0.0852,0.0383 -0.0852,0.0853 v 0.17046 c 0,0.0472 0.0383,0.0852 0.0852,0.0852 h 0.2557 v 0.0852 c 0,0.0471 0.0383,0.0853 0.0852,0.0853 h 0.59667 v -0.6819 z m 8.55094,0 v 0.68189 h 0.59669 c 0.0471,0 0.0852,-0.0381 0.0852,-0.0852 v -0.0852 h 0.25572 c 0.0471,0 0.0852,-0.0383 0.0852,-0.0853 v -0.17045 c 0,-0.0472 -0.0383,-0.0853 -0.0852,-0.0853 h -0.25572 v -0.0852 c 0,-0.0472 -0.0381,-0.0853 -0.0852,-0.0853 z m -6.36382,2.27233 v 0.59669 c 0,0.0471 0.0381,0.0852 0.0852,0.0852 h 0.0852 v 0.25572 c 0,0.0471 0.0382,0.0852 0.0852,0.0852 h 0.17045 c 0.0471,0 0.0852,-0.0383 0.0852,-0.0852 v -0.25572 h 0.0852 c 0.0471,-10e-6 0.0852,-0.0383 0.0852,-0.0852 v -0.59669 z m 1.36383,0 v 0.59669 c 0,0.0471 0.0381,0.0852 0.0852,0.0852 h 0.0852 v 0.25572 c 0,0.0471 0.0382,0.0852 0.0852,0.0852 h 0.17045 c 0.0471,0 0.0852,-0.0383 0.0852,-0.0852 v -0.25572 h 0.0852 c 0.0471,-10e-6 0.0852,-0.0383 0.0852,-0.0852 v -0.59669 z m 1.36377,0 v 0.59669 c 0,0.0471 0.0383,0.0852 0.0852,0.0852 h 0.0852 v 0.25572 c 0,0.0471 0.0381,0.0852 0.0852,0.0852 h 0.17051 c 0.0471,0 0.0852,-0.0383 0.0852,-0.0852 v -0.25572 h 0.0852 c 0.0471,0 0.0852,-0.0383 0.0852,-0.0852 v -0.59669 z m 1.36383,0 v 0.59669 c 0,0.0471 0.0382,0.0852 0.0852,0.0852 h 0.0852 v 0.25572 c 0,0.0471 0.0381,0.0852 0.0852,0.0852 h 0.17051 c 0.0471,0 0.0852,-0.0383 0.0852,-0.0852 v -0.25572 h 0.0852 c 0.0471,0 0.0852,-0.0383 0.0852,-0.0852 v -0.59669 z"
       id="path938"
       inkscape:connector-curvature="0" />
    <path
       inkscape:connector-curvature="0"
       id="path944"
       d="m 135.71771,263.45871 c -0.0471,0 -0.0852,0.0383 -0.0852,0.0853 v 0.25572 h -0.0852 c -0.0471,0 -0.0852,0.0381 -0.0852,0.0852 v 0.59669 h 0.68189 v -0.59669 c 0,-0.0471 -0.0382,-0.0852 -0.0852,-0.0852 h -0.0852 v -0.25572 c 0,-0.0472 -0.0382,-0.0853 -0.0852,-0.0853 z m 1.36383,0 c -0.0471,0 -0.0852,0.0383 -0.0852,0.0853 v 0.25572 h -0.0852 c -0.0471,0 -0.0852,0.0381 -0.0852,0.0852 v 0.59669 h 0.68188 v -0.59669 c 0,-0.0471 -0.0383,-0.0852 -0.0852,-0.0852 h -0.0852 v -0.25572 c 0,-0.0472 -0.0383,-0.0853 -0.0852,-0.0853 z m 1.36376,0 c -0.0471,0 -0.0852,0.0383 -0.0852,0.0853 v 0.25572 h -0.0852 c -0.0471,0 -0.0852,0.0381 -0.0852,0.0852 v 0.59669 h 0.68195 v -0.59669 c 0,-0.0471 -0.0382,-0.0852 -0.0852,-0.0852 h -0.0852 v -0.25572 c 0,-0.0472 -0.0381,-0.0853 -0.0852,-0.0853 z m 1.36384,0 c -0.0471,0 -0.0852,0.0383 -0.0852,0.0853 v 0.25572 h -0.0852 c -0.0471,0 -0.0852,0.0381 -0.0852,0.0852 v 0.59669 h 0.68195 v -0.59669 c 0,-0.0471 -0.0383,-0.0852 -0.0852,-0.0852 h -0.0852 v -0.25572 c 0,-0.0472 -0.0381,-0.0853 -0.0852,-0.0853 z m -4.91474,1.36316 c -0.37661,0 -0.68194,0.30526 -0.68194,0.68186 v 5.90991 c 0,0.37661 0.30533,0.68194 0.68194,0.68194 h 5.90854 c 0.37663,0 0.6819,-0.30533 0.6819,-0.68194 v -5.90991 c 0,-0.3766 -0.30527,-0.68186 -0.6819,-0.68186 z m -1.61953,1.25013 c -0.0471,0 -0.0852,0.0383 -0.0852,0.0853 v 0.0852 h -0.2557 c -0.0471,0 -0.0852,0.0383 -0.0852,0.0852 v 0.17052 c 0,0.0472 0.0383,0.0852 0.0852,0.0852 h 0.2557 v 0.0853 c 2e-5,0.0472 0.0383,0.0852 0.0852,0.0852 h 0.59667 v -0.68195 z m 8.55094,0 v 0.68195 h 0.59669 c 0.0471,0 0.0852,-0.0382 0.0852,-0.0852 v -0.0852 h 0.25572 c 0.0471,0 0.0852,-0.0381 0.0852,-0.0853 v -0.17053 c 0,-0.0472 -0.0383,-0.0852 -0.0852,-0.0852 h -0.25572 v -0.0852 c 0,-0.0472 -0.0381,-0.0853 -0.0852,-0.0853 z m -8.55094,1.36383 c -0.0471,0 -0.0852,0.0383 -0.0852,0.0852 v 0.0853 h -0.2557 c -0.0471,0 -0.0852,0.0383 -0.0852,0.0852 v 0.17045 c 0,0.0471 0.0383,0.0853 0.0852,0.0853 h 0.2557 v 0.0853 c 0,0.0471 0.0383,0.0852 0.0852,0.0852 h 0.59667 v -0.68189 z m 8.55094,0 v 0.6819 h 0.59669 c 0.0471,0 0.0852,-0.0381 0.0852,-0.0852 v -0.0853 h 0.25572 c 0.0471,0 0.0852,-0.0383 0.0852,-0.0852 v -0.17045 c 0,-0.0472 -0.0383,-0.0852 -0.0852,-0.0852 h -0.25572 v -0.0852 c 0,-0.0472 -0.0381,-0.0853 -0.0852,-0.0853 z m -8.55094,1.36384 c -0.0471,0 -0.0852,0.0383 -0.0852,0.0852 v 0.0853 h -0.2557 c -0.0471,0 -0.0852,0.0383 -0.0852,0.0853 v 0.17045 c 0,0.0472 0.0383,0.0853 0.0852,0.0853 h 0.2557 v 0.0852 c 0,0.0472 0.0383,0.0852 0.0852,0.0852 h 0.59667 v -0.68189 z m 8.55094,0 v 0.68188 h 0.59669 c 0.0471,0 0.0852,-0.0381 0.0852,-0.0853 v -0.0852 h 0.25572 c 0.0471,0 0.0852,-0.0383 0.0852,-0.0852 v -0.17045 c 0,-0.0472 -0.0383,-0.0853 -0.0852,-0.0853 h -0.25572 v -0.0852 c 0,-0.0471 -0.0381,-0.0852 -0.0852,-0.0852 z m -8.55094,1.36382 c -0.0471,0 -0.0852,0.0381 -0.0852,0.0852 v 0.0852 h -0.2557 c -0.0471,0 -0.0852,0.0383 -0.0852,0.0853 v 0.17046 c 0,0.0472 0.0383,0.0852 0.0852,0.0852 h 0.2557 v 0.0852 c 0,0.0471 0.0383,0.0853 0.0852,0.0853 h 0.59667 v -0.6819 z m 8.55094,0 v 0.68189 h 0.59669 c 0.0471,0 0.0852,-0.0381 0.0852,-0.0852 v -0.0852 h 0.25572 c 0.0471,0 0.0852,-0.0383 0.0852,-0.0853 v -0.17045 c 0,-0.0472 -0.0383,-0.0853 -0.0852,-0.0853 h -0.25572 v -0.0852 c 0,-0.0472 -0.0381,-0.0853 -0.0852,-0.0853 z m -6.36382,2.27233 v 0.59669 c 0,0.0471 0.0381,0.0852 0.0852,0.0852 h 0.0852 v 0.25572 c 0,0.0471 0.0382,0.0852 0.0852,0.0852 h 0.17045 c 0.0471,0 0.0852,-0.0383 0.0852,-0.0852 v -0.25572 h 0.0852 c 0.0471,-10e-6 0.0852,-0.0383 0.0852,-0.0852 v -0.59669 z m 1.36383,0 v 0.59669 c 0,0.0471 0.0381,0.0852 0.0852,0.0852 h 0.0852 v 0.25572 c 0,0.0471 0.0382,0.0852 0.0852,0.0852 h 0.17045 c 0.0471,0 0.0852,-0.0383 0.0852,-0.0852 v -0.25572 h 0.0852 c 0.0471,-10e-6 0.0852,-0.0383 0.0852,-0.0852 v -0.59669 z m 1.36377,0 v 0.59669 c 0,0.0471 0.0383,0.0852 0.0852,0.0852 h 0.0852 v 0.25572 c 0,0.0471 0.0381,0.0852 0.0852,0.0852 h 0.17051 c 0.0471,0 0.0852,-0.0383 0.0852,-0.0852 v -0.25572 h 0.0852 c 0.0471,0 0.0852,-0.0383 0.0852,-0.0852 v -0.59669 z m 1.36383,0 v 0.59669 c 0,0.0471 0.0382,0.0852 0.0852,0.0852 h 0.0852 v 0.25572 c 0,0.0471 0.0381,0.0852 0.0852,0.0852 h 0.17051 c 0.0471,0 0.0852,-0.0383 0.0852,-0.0852 v -0.25572 h 0.0852 c 0.0471,0 0.0852,-0.0383 0.0852,-0.0852 v -0.59669 z"
       style="display:inline;opacity:1;fill:currentColor;stroke-width:0.01420648" />
    <path
       style="display:inline;opacity:1;fill:currentColor;stroke-width:0.01420648"
       d="m 167.46773,263.45871 c -0.0471,0 -0.0852,0.0383 -0.0852,0.0853 v 0.25572 h -0.0852 c -0.0471,0 -0.0852,0.0381 -0.0852,0.0852 v 0.59669 h 0.68189 v -0.59669 c 0,-0.0471 -0.0382,-0.0852 -0.0852,-0.0852 h -0.0852 v -0.25572 c 0,-0.0472 -0.0382,-0.0853 -0.0852,-0.0853 z m 1.36383,0 c -0.0471,0 -0.0852,0.0383 -0.0852,0.0853 v 0.25572 h -0.0852 c -0.0471,0 -0.0852,0.0381 -0.0852,0.0852 v 0.59669 h 0.68188 v -0.59669 c 0,-0.0471 -0.0383,-0.0852 -0.0852,-0.0852 h -0.0852 v -0.25572 c 0,-0.0472 -0.0383,-0.0853 -0.0852,-0.0853 z m 1.36376,0 c -0.0471,0 -0.0852,0.0383 -0.0852,0.0853 v 0.25572 h -0.0852 c -0.0471,0 -0.0852,0.0381 -0.0852,0.0852 v 0.59669 h 0.68195 v -0.59669 c 0,-0.0471 -0.0382,-0.0852 -0.0852,-0.0852 h -0.0852 v -0.25572 c 0,-0.0472 -0.0381,-0.0853 -0.0852,-0.0853 z m 1.36384,0 c -0.0471,0 -0.0852,0.0383 -0.0852,0.0853 v 0.25572 h -0.0852 c -0.0471,0 -0.0852,0.0381 -0.0852,0.0852 v 0.59669 h 0.68195 v -0.59669 c 0,-0.0471 -0.0383,-0.0852 -0.0852,-0.0852 h -0.0852 v -0.25572 c 0,-0.0472 -0.0381,-0.0853 -0.0852,-0.0853 z m -4.91474,1.36316 c -0.37661,0 -0.68194,0.30526 -0.68194,0.68186 v 5.90991 c 0,0.37661 0.30533,0.68194 0.68194,0.68194 h 5.90854 c 0.37663,0 0.6819,-0.30533 0.6819,-0.68194 v -5.90991 c 0,-0.3766 -0.30527,-0.68186 -0.6819,-0.68186 z m -1.61953,1.25013 c -0.0471,0 -0.0852,0.0383 -0.0852,0.0853 v 0.0852 h -0.2557 c -0.0471,0 -0.0852,0.0383 -0.0852,0.0852 v 0.17052 c 0,0.0472 0.0383,0.0852 0.0852,0.0852 h 0.2557 v 0.0853 c 2e-5,0.0472 0.0383,0.0852 0.0852,0.0852 h 0.59667 v -0.68195 z m 8.55094,0 v 0.68195 h 0.59669 c 0.0471,0 0.0852,-0.0382 0.0852,-0.0852 v -0.0852 h 0.25572 c 0.0471,0 0.0852,-0.0381 0.0852,-0.0853 v -0.17053 c 0,-0.0472 -0.0383,-0.0852 -0.0852,-0.0852 h -0.25572 v -0.0852 c 0,-0.0472 -0.0381,-0.0853 -0.0852,-0.0853 z m -8.55094,1.36383 c -0.0471,0 -0.0852,0.0383 -0.0852,0.0852 v 0.0853 h -0.2557 c -0.0471,0 -0.0852,0.0383 -0.0852,0.0852 v 0.17045 c 0,0.0471 0.0383,0.0853 0.0852,0.0853 h 0.2557 v 0.0853 c 0,0.0471 0.0383,0.0852 0.0852,0.0852 h 0.59667 v -0.68189 z m 8.55094,0 v 0.6819 h 0.59669 c 0.0471,0 0.0852,-0.0381 0.0852,-0.0852 v -0.0853 h 0.25572 c 0.0471,0 0.0852,-0.0383 0.0852,-0.0852 v -0.17045 c 0,-0.0472 -0.0383,-0.0852 -0.0852,-0.0852 h -0.25572 v -0.0852 c 0,-0.0472 -0.0381,-0.0853 -0.0852,-0.0853 z m -8.55094,1.36384 c -0.0471,0 -0.0852,0.0383 -0.0852,0.0852 v 0.0853 h -0.2557 c -0.0471,0 -0.0852,0.0383 -0.0852,0.0853 v 0.17045 c 0,0.0472 0.0383,0.0853 0.0852,0.0853 h 0.2557 v 0.0852 c 0,0.0472 0.0383,0.0852 0.0852,0.0852 h 0.59667 v -0.68189 z m 8.55094,0 v 0.68188 h 0.59669 c 0.0471,0 0.0852,-0.0381 0.0852,-0.0853 v -0.0852 h 0.25572 c 0.0471,0 0.0852,-0.0383 0.0852,-0.0852 v -0.17045 c 0,-0.0472 -0.0383,-0.0853 -0.0852,-0.0853 h -0.25572 v -0.0852 c 0,-0.0471 -0.0381,-0.0852 -0.0852,-0.0852 z m -8.55094,1.36382 c -0.0471,0 -0.0852,0.0381 -0.0852,0.0852 v 0.0852 h -0.2557 c -0.0471,0 -0.0852,0.0383 -0.0852,0.0853 v 0.17046 c 0,0.0472 0.0383,0.0852 0.0852,0.0852 h 0.2557 v 0.0852 c 0,0.0471 0.0383,0.0853 0.0852,0.0853 h 0.59667 v -0.6819 z m 8.55094,0 v 0.68189 h 0.59669 c 0.0471,0 0.0852,-0.0381 0.0852,-0.0852 v -0.0852 h 0.25572 c 0.0471,0 0.0852,-0.0383 0.0852,-0.0853 v -0.17045 c 0,-0.0472 -0.0383,-0.0853 -0.0852,-0.0853 h -0.25572 v -0.0852 c 0,-0.0472 -0.0381,-0.0853 -0.0852,-0.0853 z m -6.36382,2.27233 v 0.59669 c 0,0.0471 0.0381,0.0852 0.0852,0.0852 h 0.0852 v 0.25572 c 0,0.0471 0.0382,0.0852 0.0852,0.0852 h 0.17045 c 0.0471,0 0.0852,-0.0383 0.0852,-0.0852 v -0.25572 h 0.0852 c 0.0471,-10e-6 0.0852,-0.0383 0.0852,-0.0852 v -0.59669 z m 1.36383,0 v 0.59669 c 0,0.0471 0.0381,0.0852 0.0852,0.0852 h 0.0852 v 0.25572 c 0,0.0471 0.0382,0.0852 0.0852,0.0852 h 0.17045 c 0.0471,0 0.0852,-0.0383 0.0852,-0.0852 v -0.25572 h 0.0852 c 0.0471,-10e-6 0.0852,-0.0383 0.0852,-0.0852 v -0.59669 z m 1.36377,0 v 0.59669 c 0,0.0471 0.0383,0.0852 0.0852,0.0852 h 0.0852 v 0.25572 c 0,0.0471 0.0381,0.0852 0.0852,0.0852 h 0.17051 c 0.0471,0 0.0852,-0.0383 0.0852,-0.0852 v -0.25572 h 0.0852 c 0.0471,0 0.0852,-0.0383 0.0852,-0.0852 v -0.59669 z m 1.36383,0 v 0.59669 c 0,0.0471 0.0382,0.0852 0.0852,0.0852 h 0.0852 v 0.25572 c 0,0.0471 0.0381,0.0852 0.0852,0.0852 h 0.17051 c 0.0471,0 0.0852,-0.0383 0.0852,-0.0852 v -0.25572 h 0.0852 c 0.0471,0 0.0852,-0.0383 0.0852,-0.0852 v -0.59669 z"
       id="path946"
       inkscape:connector-curvature="0" />
    <path
       inkscape:connector-curvature="0"
       id="path948"
       d="m 103.96769,263.45871 c -0.0471,0 -0.0852,0.0383 -0.0852,0.0853 v 0.25572 h -0.0852 c -0.0471,0 -0.0852,0.0381 -0.0852,0.0852 v 0.59669 h 0.68189 v -0.59669 c 0,-0.0471 -0.0382,-0.0852 -0.0852,-0.0852 h -0.0852 v -0.25572 c 0,-0.0472 -0.0382,-0.0853 -0.0852,-0.0853 z m 1.36383,0 c -0.0471,0 -0.0852,0.0383 -0.0852,0.0853 v 0.25572 h -0.0852 c -0.0471,0 -0.0852,0.0381 -0.0852,0.0852 v 0.59669 h 0.68188 v -0.59669 c 0,-0.0471 -0.0383,-0.0852 -0.0852,-0.0852 h -0.0852 v -0.25572 c 0,-0.0472 -0.0383,-0.0853 -0.0852,-0.0853 z m 1.36376,0 c -0.0471,0 -0.0852,0.0383 -0.0852,0.0853 v 0.25572 h -0.0852 c -0.0471,0 -0.0852,0.0381 -0.0852,0.0852 v 0.59669 h 0.68195 v -0.59669 c 0,-0.0471 -0.0382,-0.0852 -0.0852,-0.0852 h -0.0852 v -0.25572 c 0,-0.0472 -0.0381,-0.0853 -0.0852,-0.0853 z m 1.36384,0 c -0.0471,0 -0.0852,0.0383 -0.0852,0.0853 v 0.25572 h -0.0852 c -0.0471,0 -0.0852,0.0381 -0.0852,0.0852 v 0.59669 h 0.68195 v -0.59669 c 0,-0.0471 -0.0383,-0.0852 -0.0852,-0.0852 h -0.0852 v -0.25572 c 0,-0.0472 -0.0381,-0.0853 -0.0852,-0.0853 z m -4.91474,1.36316 c -0.37661,0 -0.68194,0.30526 -0.68194,0.68186 v 5.90991 c 0,0.37661 0.30533,0.68194 0.68194,0.68194 h 5.90854 c 0.37663,0 0.6819,-0.30533 0.6819,-0.68194 v -5.90991 c 0,-0.3766 -0.30527,-0.68186 -0.6819,-0.68186 z m -1.61953,1.25013 c -0.0471,0 -0.0852,0.0383 -0.0852,0.0853 v 0.0852 h -0.2557 c -0.0471,0 -0.0852,0.0383 -0.0852,0.0852 v 0.17052 c 0,0.0472 0.0383,0.0852 0.0852,0.0852 h 0.2557 v 0.0853 c 2e-5,0.0472 0.0383,0.0852 0.0852,0.0852 h 0.59667 v -0.68195 z m 8.55094,0 v 0.68195 h 0.59669 c 0.0471,0 0.0852,-0.0382 0.0852,-0.0852 v -0.0852 h 0.25572 c 0.0471,0 0.0852,-0.0381 0.0852,-0.0853 v -0.17053 c 0,-0.0472 -0.0383,-0.0852 -0.0852,-0.0852 h -0.25572 v -0.0852 c 0,-0.0472 -0.0381,-0.0853 -0.0852,-0.0853 z m -8.55094,1.36383 c -0.0471,0 -0.0852,0.0383 -0.0852,0.0852 v 0.0853 h -0.2557 c -0.0471,0 -0.0852,0.0383 -0.0852,0.0852 v 0.17045 c 0,0.0471 0.0383,0.0853 0.0852,0.0853 h 0.2557 v 0.0853 c 0,0.0471 0.0383,0.0852 0.0852,0.0852 h 0.59667 v -0.68189 z m 8.55094,0 v 0.6819 h 0.59669 c 0.0471,0 0.0852,-0.0381 0.0852,-0.0852 v -0.0853 h 0.25572 c 0.0471,0 0.0852,-0.0383 0.0852,-0.0852 v -0.17045 c 0,-0.0472 -0.0383,-0.0852 -0.0852,-0.0852 h -0.25572 v -0.0852 c 0,-0.0472 -0.0381,-0.0853 -0.0852,-0.0853 z m -8.55094,1.36384 c -0.0471,0 -0.0852,0.0383 -0.0852,0.0852 v 0.0853 h -0.2557 c -0.0471,0 -0.0852,0.0383 -0.0852,0.0853 v 0.17045 c 0,0.0472 0.0383,0.0853 0.0852,0.0853 h 0.2557 v 0.0852 c 0,0.0472 0.0383,0.0852 0.0852,0.0852 h 0.59667 v -0.68189 z m 8.55094,0 v 0.68188 h 0.59669 c 0.0471,0 0.0852,-0.0381 0.0852,-0.0853 v -0.0852 h 0.25572 c 0.0471,0 0.0852,-0.0383 0.0852,-0.0852 v -0.17045 c 0,-0.0472 -0.0383,-0.0853 -0.0852,-0.0853 h -0.25572 v -0.0852 c 0,-0.0471 -0.0381,-0.0852 -0.0852,-0.0852 z m -8.55094,1.36382 c -0.0471,0 -0.0852,0.0381 -0.0852,0.0852 v 0.0852 h -0.2557 c -0.0471,0 -0.0852,0.0383 -0.0852,0.0853 v 0.17046 c 0,0.0472 0.0383,0.0852 0.0852,0.0852 h 0.2557 v 0.0852 c 0,0.0471 0.0383,0.0853 0.0852,0.0853 h 0.59667 v -0.6819 z m 8.55094,0 v 0.68189 h 0.59669 c 0.0471,0 0.0852,-0.0381 0.0852,-0.0852 v -0.0852 h 0.25572 c 0.0471,0 0.0852,-0.0383 0.0852,-0.0853 v -0.17045 c 0,-0.0472 -0.0383,-0.0853 -0.0852,-0.0853 h -0.25572 v -0.0852 c 0,-0.0472 -0.0381,-0.0853 -0.0852,-0.0853 z m -6.36382,2.27233 v 0.59669 c 0,0.0471 0.0381,0.0852 0.0852,0.0852 h 0.0852 v 0.25572 c 0,0.0471 0.0382,0.0852 0.0852,0.0852 h 0.17045 c 0.0471,0 0.0852,-0.0383 0.0852,-0.0852 v -0.25572 h 0.0852 c 0.0471,-10e-6 0.0852,-0.0383 0.0852,-0.0852 v -0.59669 z m 1.36383,0 v 0.59669 c 0,0.0471 0.0381,0.0852 0.0852,0.0852 h 0.0852 v 0.25572 c 0,0.0471 0.0382,0.0852 0.0852,0.0852 h 0.17045 c 0.0471,0 0.0852,-0.0383 0.0852,-0.0852 v -0.25572 h 0.0852 c 0.0471,-10e-6 0.0852,-0.0383 0.0852,-0.0852 v -0.59669 z m 1.36377,0 v 0.59669 c 0,0.0471 0.0383,0.0852 0.0852,0.0852 h 0.0852 v 0.25572 c 0,0.0471 0.0381,0.0852 0.0852,0.0852 h 0.17051 c 0.0471,0 0.0852,-0.0383 0.0852,-0.0852 v -0.25572 h 0.0852 c 0.0471,0 0.0852,-0.0383 0.0852,-0.0852 v -0.59669 z m 1.36383,0 v 0.59669 c 0,0.0471 0.0382,0.0852 0.0852,0.0852 h 0.0852 v 0.25572 c 0,0.0471 0.0381,0.0852 0.0852,0.0852 h 0.17051 c 0.0471,0 0.0852,-0.0383 0.0852,-0.0852 v -0.25572 h 0.0852 c 0.0471,0 0.0852,-0.0383 0.0852,-0.0852 v -0.59669 z"
       style="display:inline;opacity:1;fill:currentColor;stroke-width:0.01420648" />
    <path
       style="display:inline;opacity:1;fill:currentColor;stroke-width:0.01420648"
       d="m 88.092689,263.45871 c -0.0471,0 -0.0852,0.0383 -0.0852,0.0853 v 0.25572 h -0.0852 c -0.0471,0 -0.0852,0.0381 -0.0852,0.0852 v 0.59669 h 0.68189 v -0.59669 c 0,-0.0471 -0.0382,-0.0852 -0.0852,-0.0852 h -0.0852 v -0.25572 c 0,-0.0472 -0.0382,-0.0853 -0.0852,-0.0853 z m 1.363827,0 c -0.0471,0 -0.0852,0.0383 -0.0852,0.0853 v 0.25572 h -0.0852 c -0.0471,0 -0.0852,0.0381 -0.0852,0.0852 v 0.59669 h 0.681877 v -0.59669 c 0,-0.0471 -0.0383,-0.0852 -0.0852,-0.0852 h -0.0852 v -0.25572 c 0,-0.0472 -0.0383,-0.0853 -0.0852,-0.0853 z m 1.36376,0 c -0.0471,0 -0.0852,0.0383 -0.0852,0.0853 v 0.25572 h -0.0852 c -0.0471,0 -0.0852,0.0381 -0.0852,0.0852 v 0.59669 h 0.68195 v -0.59669 c 0,-0.0471 -0.0382,-0.0852 -0.0852,-0.0852 h -0.0852 v -0.25572 c 0,-0.0472 -0.0381,-0.0853 -0.0852,-0.0853 z m 1.36384,0 c -0.0471,0 -0.0852,0.0383 -0.0852,0.0853 v 0.25572 h -0.0852 c -0.0471,0 -0.0852,0.0381 -0.0852,0.0852 v 0.59669 h 0.68195 v -0.59669 c 0,-0.0471 -0.0383,-0.0852 -0.0852,-0.0852 h -0.0852 v -0.25572 c 0,-0.0472 -0.0381,-0.0853 -0.0852,-0.0853 z m -4.914737,1.36316 c -0.37661,0 -0.68194,0.30526 -0.68194,0.68186 v 5.90991 c 0,0.37661 0.30533,0.68194 0.68194,0.68194 h 5.908537 c 0.37663,0 0.6819,-0.30533 0.6819,-0.68194 v -5.90991 c 0,-0.3766 -0.30527,-0.68186 -0.6819,-0.68186 z m -1.61953,1.25013 c -0.0471,0 -0.0852,0.0383 -0.0852,0.0853 v 0.0852 h -0.2557 c -0.0471,0 -0.0852,0.0383 -0.0852,0.0852 v 0.17052 c 0,0.0472 0.0383,0.0852 0.0852,0.0852 h 0.2557 v 0.0853 c 2e-5,0.0472 0.0383,0.0852 0.0852,0.0852 h 0.59667 v -0.68195 z m 8.550937,0 v 0.68195 h 0.596687 c 0.0471,0 0.0852,-0.0382 0.0852,-0.0852 v -0.0852 h 0.25572 c 0.0471,0 0.0852,-0.0381 0.0852,-0.0853 v -0.17053 c 0,-0.0472 -0.0383,-0.0852 -0.0852,-0.0852 h -0.25572 v -0.0852 c 0,-0.0472 -0.0381,-0.0853 -0.0852,-0.0853 z m -8.550937,1.36383 c -0.0471,0 -0.0852,0.0383 -0.0852,0.0852 v 0.0853 h -0.2557 c -0.0471,0 -0.0852,0.0383 -0.0852,0.0852 v 0.17045 c 0,0.0471 0.0383,0.0853 0.0852,0.0853 h 0.2557 v 0.0853 c 0,0.0471 0.0383,0.0852 0.0852,0.0852 h 0.59667 v -0.68189 z m 8.550937,0 v 0.6819 h 0.596687 c 0.0471,0 0.0852,-0.0381 0.0852,-0.0852 v -0.0853 h 0.25572 c 0.0471,0 0.0852,-0.0383 0.0852,-0.0852 v -0.17045 c 0,-0.0472 -0.0383,-0.0852 -0.0852,-0.0852 h -0.25572 v -0.0852 c 0,-0.0472 -0.0381,-0.0853 -0.0852,-0.0853 z m -8.550937,1.36384 c -0.0471,0 -0.0852,0.0383 -0.0852,0.0852 v 0.0853 h -0.2557 c -0.0471,0 -0.0852,0.0383 -0.0852,0.0853 v 0.17045 c 0,0.0472 0.0383,0.0853 0.0852,0.0853 h 0.2557 v 0.0852 c 0,0.0472 0.0383,0.0852 0.0852,0.0852 h 0.59667 v -0.68189 z m 8.550937,0 v 0.68188 h 0.596687 c 0.0471,0 0.0852,-0.0381 0.0852,-0.0853 v -0.0852 h 0.25572 c 0.0471,0 0.0852,-0.0383 0.0852,-0.0852 v -0.17045 c 0,-0.0472 -0.0383,-0.0853 -0.0852,-0.0853 h -0.25572 v -0.0852 c 0,-0.0471 -0.0381,-0.0852 -0.0852,-0.0852 z m -8.550937,1.36382 c -0.0471,0 -0.0852,0.0381 -0.0852,0.0852 v 0.0852 h -0.2557 c -0.0471,0 -0.0852,0.0383 -0.0852,0.0853 v 0.17046 c 0,0.0472 0.0383,0.0852 0.0852,0.0852 h 0.2557 v 0.0852 c 0,0.0471 0.0383,0.0853 0.0852,0.0853 h 0.59667 v -0.6819 z m 8.550937,0 v 0.68189 h 0.596687 c 0.0471,0 0.0852,-0.0381 0.0852,-0.0852 v -0.0852 h 0.25572 c 0.0471,0 0.0852,-0.0383 0.0852,-0.0853 v -0.17045 c 0,-0.0472 -0.0383,-0.0853 -0.0852,-0.0853 h -0.25572 v -0.0852 c 0,-0.0472 -0.0381,-0.0853 -0.0852,-0.0853 z m -6.363817,2.27233 v 0.59669 c 0,0.0471 0.0381,0.0852 0.0852,0.0852 h 0.0852 v 0.25572 c 0,0.0471 0.0382,0.0852 0.0852,0.0852 h 0.17045 c 0.0471,0 0.0852,-0.0383 0.0852,-0.0852 v -0.25572 h 0.0852 c 0.0471,-10e-6 0.0852,-0.0383 0.0852,-0.0852 v -0.59669 z m 1.36383,0 v 0.59669 c 0,0.0471 0.0381,0.0852 0.0852,0.0852 h 0.0852 v 0.25572 c 0,0.0471 0.0382,0.0852 0.0852,0.0852 h 0.17045 c 0.0471,0 0.0852,-0.0383 0.0852,-0.0852 v -0.25572 h 0.0852 c 0.0471,-10e-6 0.0852,-0.0383 0.0852,-0.0852 v -0.59669 z m 1.363767,0 v 0.59669 c 0,0.0471 0.0383,0.0852 0.0852,0.0852 h 0.0852 v 0.25572 c 0,0.0471 0.0381,0.0852 0.0852,0.0852 h 0.17051 c 0.0471,0 0.0852,-0.0383 0.0852,-0.0852 v -0.25572 h 0.0852 c 0.0471,0 0.0852,-0.0383 0.0852,-0.0852 v -0.59669 z m 1.36383,0 v 0.59669 c 0,0.0471 0.0382,0.0852 0.0852,0.0852 h 0.0852 v 0.25572 c 0,0.0471 0.0381,0.0852 0.0852,0.0852 h 0.17051 c 0.0471,0 0.0852,-0.0383 0.0852,-0.0852 v -0.25572 h 0.0852 c 0.0471,0 0.0852,-0.0383 0.0852,-0.0852 v -0.59669 z"
       id="path950"
       inkscape:connector-curvature="0" />
  </g>
  <g
     inkscape:groupmode="layer"
     id="layer3"
     inkscape:label="outils-texte"
     style="display:inline"
     transform="translate(-16.899206,-12.181235)">
    <text
       xml:space="preserve"
       style="font-style:italic;font-variant:normal;font-weight:normal;font-stretch:normal;font-size:6.05119705px;line-height:1.25;font-family:'Helvetica Neue';-inkscape-font-specification:'Helvetica Neue, Italic';font-variant-ligatures:normal;font-variant-caps:normal;font-variant-numeric:normal;font-feature-settings:normal;text-align:start;letter-spacing:0px;word-spacing:0px;writing-mode:lr-tb;text-anchor:start;fill:#808080;fill-opacity:1;stroke:none;stroke-width:0.14381179"
       x="100.33624"
       y="26.60466"
       id="text1158"><tspan
         sodipodi:role="line"
         x="100.33624"
         y="26.60466"
         style="font-style:italic;font-variant:normal;font-weight:normal;font-stretch:normal;font-size:6.05119705px;font-family:'Helvetica Neue';-inkscape-font-specification:'Helvetica Neue, Italic';font-variant-ligatures:normal;font-variant-caps:normal;font-variant-numeric:normal;font-feature-settings:normal;text-align:center;writing-mode:lr-tb;text-anchor:middle;fill:#808080;stroke-width:0.14381179"
         id="tspan1164">Webportal, CLI-tools,</tspan><tspan
         sodipodi:role="line"
         x="100.33624"
         y="34.168655"
         style="font-style:italic;font-variant:normal;font-weight:normal;font-stretch:normal;font-size:6.05119705px;font-family:'Helvetica Neue';-inkscape-font-specification:'Helvetica Neue, Italic';font-variant-ligatures:normal;font-variant-caps:normal;font-variant-numeric:normal;font-feature-settings:normal;text-align:center;writing-mode:lr-tb;text-anchor:middle;fill:#808080;stroke-width:0.14381179"
         id="tspan1230">HTTP requests, Websockets</tspan></text>
    <text
       id="text1218"
       y="127.08627"
       x="55.132458"
       style="font-style:italic;font-variant:normal;font-weight:normal;font-stretch:normal;font-size:6.05119705px;line-height:1.25;font-family:'Helvetica Neue';-inkscape-font-specification:'Helvetica Neue, Italic';font-variant-ligatures:normal;font-variant-caps:normal;font-variant-numeric:normal;font-feature-settings:normal;text-align:start;letter-spacing:0px;word-spacing:0px;writing-mode:lr-tb;text-anchor:start;fill:#808080;fill-opacity:1;stroke:none;stroke-width:0.14381179"
       xml:space="preserve"><tspan
         sodipodi:role="line"
         id="tspan1220"
         x="55.132458"
         y="127.08627"
         style="font-style:italic;font-variant:normal;font-weight:normal;font-stretch:normal;font-size:6.05119705px;font-family:'Helvetica Neue';-inkscape-font-specification:'Helvetica Neue, Italic';font-variant-ligatures:normal;font-variant-caps:normal;font-variant-numeric:normal;font-feature-settings:normal;text-align:start;writing-mode:lr-tb;text-anchor:start;fill:#808080">SSH</tspan></text>
  </g>
</svg>
