<?xml version="1.0" encoding="UTF-8" standalone="no"?>
<!-- Created with Inkscape (http://www.inkscape.org/) -->

<svg
   xmlns:dc="http://purl.org/dc/elements/1.1/"
   xmlns:cc="http://creativecommons.org/ns#"
   xmlns:rdf="http://www.w3.org/1999/02/22-rdf-syntax-ns#"
   xmlns:svg="http://www.w3.org/2000/svg"
   xmlns="http://www.w3.org/2000/svg"
   xmlns:sodipodi="http://sodipodi.sourceforge.net/DTD/sodipodi-0.dtd"
   xmlns:inkscape="http://www.inkscape.org/namespaces/inkscape"
   width="210mm"
   height="297mm"
   viewBox="0 0 210 297"
   version="1.1"
   id="svg8"
   inkscape:version="0.92.2 5c3e80d, 2017-08-06"
   sodipodi:docname="icons.svg"
   enable-background="new">
  <defs
     id="defs2" />
  <sodipodi:namedview
     id="base"
     pagecolor="#ffffff"
     bordercolor="#666666"
     borderopacity="1.0"
     inkscape:pageopacity="0.0"
     inkscape:pageshadow="2"
     inkscape:zoom="0.30525431"
     inkscape:cx="341.57641"
     inkscape:cy="398.82595"
     inkscape:document-units="mm"
     inkscape:current-layer="layer1"
     showgrid="false"
     inkscape:measure-start="220.494,438.656"
     inkscape:measure-end="246.327,464.488"
     inkscape:window-width="1440"
     inkscape:window-height="855"
     inkscape:window-x="0"
     inkscape:window-y="1"
     inkscape:window-maximized="1">
    <inkscape:grid
       type="xygrid"
       id="grid1122" />
  </sodipodi:namedview>
  <metadata
     id="metadata5">
    <rdf:RDF>
      <cc:Work
         rdf:about="">
        <dc:format>image/svg+xml</dc:format>
        <dc:type
           rdf:resource="http://purl.org/dc/dcmitype/StillImage" />
        <dc:title />
      </cc:Work>
    </rdf:RDF>
  </metadata>
  <g
     inkscape:label="Calque 1"
     inkscape:groupmode="layer"
     id="layer1"
     style="display:inline;opacity:0.96">
    <path
       style="fill:#000000;stroke-width:4;stroke:none;stroke-opacity:1;stroke-miterlimit:4;stroke-dasharray:none;paint-order:stroke markers fill"
       inkscape:connector-curvature="0"
       d="M 140.84294,89.283247 C 128.59439,71.526482 126.32083,69.704095 126.32083,63.178222 c 0,-8.939041 7.24647,-16.18551 16.18551,-16.18551 8.93903,0 16.18548,7.246469 16.18548,16.18551 0,6.525873 -2.27353,8.34826 -14.52208,26.105025 -0.8038,1.161147 -2.52309,1.161067 -3.3268,0 z"
       id="path829" />
    <path
       style="fill:currentColor;stroke-width:0.44813788"
       d="M 485.74414 324.59375 C 477.82418 324.59375 471.4043 331.01562 471.4043 338.93555 L 471.4043 367.61523 C 471.4043 375.5352 477.82418 381.95508 485.74414 381.95508 L 686.50977 381.95508 C 694.42973 381.95508 700.85156 375.5352 700.85156 367.61523 L 700.85156 338.93555 C 700.85156 331.01562 694.42973 324.59375 686.50977 324.59375 L 565.99219 324.59375 C 560.09283 333.00959 553.58769 342.32163 546.15039 353.10352 C 542.50481 358.36982 534.70767 358.36946 531.0625 353.10352 C 523.6252 342.32163 517.12007 333.00959 511.2207 324.59375 L 485.74414 324.59375 z M 636.31836 342.51953 C 642.25842 342.51953 647.07422 347.33533 647.07422 353.27539 C 647.07422 359.21545 642.25842 364.03125 636.31836 364.03125 C 630.37826 364.03125 625.56445 359.21545 625.56445 353.27539 C 625.56445 347.33533 630.37826 342.51953 636.31836 342.51953 z M 665 342.51953 C 670.94006 342.51953 675.75586 347.33533 675.75586 353.27539 C 675.75586 359.21545 670.94006 364.03125 665 364.03125 C 659.05994 364.03125 654.24414 359.21545 654.24414 353.27539 C 654.24414 347.33533 659.05994 342.51953 665 342.51953 z "
       transform="scale(0.26458333)"
       id="path827" />
    <path
       inkscape:connector-curvature="0"
       id="path1154"
       d="m 42.672239,134.1392 c -0.39291,0 -0.71159,0.31869 -0.71159,0.71159 v 2.13423 h -0.71158 c -0.39291,1e-5 -0.71107,0.31816 -0.71107,0.71107 v 4.98006 h 5.69113 v -4.98006 c 0,-0.3929 -0.31868,-0.71108 -0.71159,-0.71107 h -0.71106 v -2.13423 c -1e-5,-0.39291 -0.31868,-0.7116 -0.71159,-0.71159 z m 11.38276,0 c -0.3929,0 -0.71158,0.31868 -0.71158,0.71159 v 2.13423 h -0.71158 c -0.39291,1e-5 -0.71107,0.31817 -0.71107,0.71107 v 4.98006 h 5.69112 v -4.98006 c 1e-5,-0.3929 -0.31867,-0.71108 -0.71158,-0.71107 h -0.71107 v -2.13423 c 0,-0.39291 -0.31868,-0.71159 -0.71158,-0.71159 z m 11.38226,0 c -0.39291,0 -0.71107,0.31868 -0.71107,0.71159 v 2.13423 h -0.71159 c -0.3929,1e-5 -0.71158,0.31816 -0.71158,0.71107 v 4.98006 h 5.69164 v -4.98006 c 0,-0.3929 -0.31868,-0.71106 -0.71158,-0.71107 h -0.71159 v -2.13423 c 0,-0.39291 -0.31815,-0.71159 -0.71107,-0.71159 z m 11.38276,0 c -0.3929,0 -0.71106,0.31868 -0.71106,0.71159 v 2.13423 h -0.71159 c -0.3929,1e-5 -0.71158,0.31817 -0.71158,0.71107 v 4.98006 h 5.69164 v -4.98006 c 0,-0.3929 -0.31867,-0.71106 -0.71159,-0.71107 h -0.71158 v -2.13423 c 0,-0.39291 -0.31815,-0.71159 -0.71107,-0.71159 z m -41.0192,11.37708 c -3.14328,0 -5.69164,2.54784 -5.69164,5.69113 v 49.32515 c 0,3.14328 2.54836,5.69165 5.69164,5.69165 h 49.31379 c 3.14328,0 5.69112,-2.54837 5.69112,-5.69165 v -49.32515 c 0,-3.14329 -2.54784,-5.69113 -5.69112,-5.69113 z m -13.517,10.43399 c -0.39291,0 -0.71159,0.31868 -0.71159,0.71159 v 0.71106 h -2.13423 c -0.39291,0 -0.71159,0.31868 -0.71159,0.71159 v 1.42317 c 0,0.39291 0.31868,0.71107 0.71159,0.71107 h 2.13423 v 0.71158 c 10e-6,0.3929 0.31869,0.71159 0.71159,0.71159 h 4.98006 v -5.69165 z m 71.367732,0 v 5.69165 h 4.98006 c 0.3929,0 0.71105,-0.31869 0.71106,-0.71159 v -0.71158 h 2.134239 c 0.39291,0 0.71158,-0.31816 0.71158,-0.71107 v -1.42317 c 0,-0.39291 -0.31867,-0.71159 -0.71158,-0.71159 h -2.134239 v -0.71106 c 0,-0.39291 -0.31815,-0.71159 -0.71106,-0.71159 z m -71.367732,11.38277 c -0.3929,0 -0.71158,0.31868 -0.71159,0.71159 v 0.71106 h -2.13423 c -0.39291,0 -0.71159,0.31868 -0.71159,0.71159 v 1.42265 c 0,0.39291 0.31868,0.71158 0.71159,0.71158 h 2.13423 v 0.71159 c 0,0.39291 0.31868,0.71107 0.71159,0.71107 h 4.98006 v -5.69113 z m 71.367732,0 v 5.69113 h 4.98006 c 0.39291,0 0.71106,-0.31816 0.71106,-0.71107 v -0.71159 h 2.134239 c 0.39291,0 0.71158,-0.31867 0.71158,-0.71158 v -1.42265 c 0,-0.39291 -0.31867,-0.71159 -0.71158,-0.71159 h -2.134239 v -0.71106 c -10e-6,-0.39291 -0.31816,-0.71159 -0.71106,-0.71159 z m -71.367732,11.38277 c -0.39291,0 -0.71159,0.31867 -0.71159,0.71158 v 0.71107 h -2.13423 c -0.39291,0 -0.71159,0.31867 -0.71159,0.71158 v 1.42266 c 0,0.39291 0.31868,0.71158 0.71159,0.71158 h 2.13423 v 0.71158 c 0,0.39292 0.31868,0.71107 0.71159,0.71107 h 4.98006 v -5.69112 z m 71.367732,0 v 5.69112 h 4.98006 c 0.39291,0 0.71106,-0.31815 0.71106,-0.71107 v -0.71158 h 2.134239 c 0.39291,0 0.71158,-0.31867 0.71158,-0.71158 v -1.42266 c 0,-0.39291 -0.31867,-0.71158 -0.71158,-0.71158 h -2.134239 v -0.71107 c 0,-0.39291 -0.31815,-0.71158 -0.71106,-0.71158 z m -71.367732,11.38276 c -0.39291,0 -0.71159,0.31816 -0.71159,0.71107 v 0.71159 h -2.13423 c -0.39291,0 -0.71159,0.31867 -0.71159,0.71158 v 1.42265 c 10e-6,0.3929 0.31869,0.71159 0.71159,0.71159 h 2.13423 v 0.71158 c 0,0.39291 0.31868,0.71107 0.71159,0.71107 h 4.98006 v -5.69113 z m 71.367732,0 v 5.69113 h 4.98006 c 0.39291,0 0.71106,-0.31816 0.71106,-0.71107 v -0.71158 h 2.134239 c 0.3929,0 0.71158,-0.31869 0.71158,-0.71159 v -1.42265 c 0,-0.39291 -0.31867,-0.71158 -0.71158,-0.71158 h -2.134239 v -0.71159 c 0,-0.39291 -0.31815,-0.71107 -0.71106,-0.71107 z m -53.113552,18.96526 v 4.98005 c 0,0.3929 0.31816,0.7116 0.71107,0.71159 h 0.71158 v 2.13424 c 0,0.39289 0.31869,0.71158 0.71159,0.71158 h 1.42265 c 0.39291,-1e-5 0.71159,-0.31867 0.71159,-0.71158 v -2.13424 h 0.71106 c 0.39291,-1e-5 0.71159,-0.31869 0.71159,-0.71159 v -4.98005 z m 11.38277,0 v 4.98005 c -1e-5,0.3929 0.31816,0.7116 0.71107,0.71159 h 0.71158 v 2.13424 c 0,0.39291 0.31868,0.71159 0.71158,0.71158 h 1.42266 c 0.3929,-1e-5 0.71158,-0.31867 0.71158,-0.71158 v -2.13424 h 0.71107 c 0.39291,-1e-5 0.71159,-0.31868 0.71158,-0.71159 v -4.98005 z m 11.38225,0 v 4.98005 c 0,0.3929 0.31868,0.7116 0.71158,0.71159 h 0.71159 v 2.13424 c 0,0.39291 0.31816,0.71159 0.71107,0.71158 h 1.42316 c 0.39292,1e-5 0.71107,-0.31867 0.71107,-0.71158 v -2.13424 h 0.71159 c 0.3929,0 0.71158,-0.31869 0.71158,-0.71159 v -4.98005 z m 11.38277,0 v 4.98005 c 0,0.3929 0.31868,0.71159 0.71158,0.71159 h 0.71159 v 2.13424 c 0,0.39291 0.31816,0.71159 0.71106,0.71158 h 1.42317 c 0.39292,1e-5 0.71107,-0.31867 0.71107,-0.71158 v -2.13424 h 0.71158 c 0.39292,1e-5 0.71159,-0.31869 0.71159,-0.71159 v -4.98005 z"
       style="fill:currentColor;stroke-width:0.11856981" />
    <path
       id="path1052"
       d="M 86.38925,101.05914 H 33.269992 c -2.095485,0 -3.794235,-1.698752 -3.794235,-3.794232 V 89.67644 c 0,-2.09549 1.69875,-3.79423 3.794235,-3.79423 H 86.38925 c 2.09549,0 3.79424,1.69874 3.79424,3.79423 v 7.588468 c 0,2.09548 -1.69875,3.794232 -3.79424,3.794232 z M 80.697903,90.625 c -1.57164,0 -2.845667,1.274028 -2.845667,2.845668 0,1.57164 1.274027,2.84568 2.845667,2.84568 1.57164,0 2.84568,-1.27404 2.84568,-2.84568 0,-1.57164 -1.27404,-2.845668 -2.84568,-2.845668 z m -7.588454,0 c -1.57165,0 -2.84568,1.274028 -2.84568,2.845668 0,1.57164 1.27403,2.84568 2.84568,2.84568 1.571637,0 2.845667,-1.27404 2.845667,-2.84568 0,-1.57164 -1.27403,-2.845668 -2.845667,-2.845668 z"
       inkscape:connector-curvature="0"
       style="fill:currentColor;stroke-width:0.11856981"
       sodipodi:nodetypes="sssssssssssssssssss" />
    <path
       id="path1111"
       d="m -59.080624,64.579192 h -54.092196 c -2.13387,0 -3.86373,-1.729856 -3.86373,-3.863728 v -7.727449 c 0,-2.133872 1.72986,-3.863728 3.86373,-3.863728 h 54.092196 c 2.13385,0 3.86373,1.729856 3.86373,3.863728 v 7.727449 c 0,2.133872 -1.72988,3.863728 -3.86373,3.863728 z m -5.79559,-10.625247 c -1.60044,0 -2.89779,1.297365 -2.89779,2.897789 0,1.600434 1.29735,2.897799 2.89779,2.897799 1.60042,0 2.8978,-1.297365 2.8978,-2.897799 0,-1.600424 -1.29738,-2.897789 -2.8978,-2.897789 z m -7.72745,0 c -1.60045,0 -2.8978,1.297365 -2.8978,2.897789 0,1.600434 1.29735,2.897799 2.8978,2.897799 1.60041,0 2.89779,-1.297365 2.89779,-2.897799 0,-1.600424 -1.29738,-2.897789 -2.89779,-2.897789 z m 13.52304,29.943894 h -54.092196 c -2.13387,0 -3.86373,-1.729856 -3.86373,-3.86373 v -7.727458 c 0,-2.133862 1.72986,-3.863729 3.86373,-3.863729 h 54.092196 c 2.13385,0 3.86373,1.729867 3.86373,3.863729 v 7.727458 c 0,2.133874 -1.72988,3.86373 -3.86373,3.86373 z m -5.79559,-10.625258 c -1.60044,0 -2.89779,1.297375 -2.89779,2.897798 0,1.600435 1.29735,2.897801 2.89779,2.897801 1.60042,0 2.8978,-1.297366 2.8978,-2.897801 0,-1.600423 -1.29738,-2.897798 -2.8978,-2.897798 z m -7.72745,0 c -1.60045,0 -2.8978,1.297375 -2.8978,2.897798 0,1.600435 1.29735,2.897801 2.8978,2.897801 1.60041,0 2.89779,-1.297366 2.89779,-2.897801 0,-1.600423 -1.29738,-2.897798 -2.89779,-2.897798 z m 13.52304,29.943909 h -54.092196 c -2.13387,0 -3.86373,-1.72987 -3.86373,-3.863735 v -7.727458 c 0,-2.133862 1.72986,-3.86373 3.86373,-3.86373 h 54.092196 c 2.13385,0 3.86373,1.729868 3.86373,3.86373 v 7.727458 c 0,2.133865 -1.72988,3.863735 -3.86373,3.863735 z m -5.79559,-10.625253 c -1.60044,0 -2.89779,1.297354 -2.89779,2.897789 0,1.600436 1.29735,2.8978 2.89779,2.8978 1.60042,0 2.8978,-1.297364 2.8978,-2.8978 0,-1.600435 -1.29738,-2.897789 -2.8978,-2.897789 z m -7.72745,0 c -1.60045,0 -2.8978,1.297354 -2.8978,2.897789 0,1.600436 1.29735,2.8978 2.8978,2.8978 1.60041,0 2.89779,-1.297364 2.89779,-2.8978 0,-1.600435 -1.29738,-2.897789 -2.89779,-2.897789 z"
       inkscape:connector-curvature="0"
       style="fill:currentColor;stroke-width:0.12074152" />
    <path
       id="path997"
       d="m -156.86433,100.93206 c 0.87642,0.86532 0.73375,2.38285 -0.35575,2.96467 -9.21442,4.95655 -20.95432,3.54648 -28.7346,-4.233921 -7.77843,-7.77854 -9.19033,-19.5075 -4.232,-28.73318 0.57995,-1.07839 2.09747,-1.22107 2.96462,-0.35576 l 13.85034,13.85056 3.24812,-3.24816 c -0.0815,-0.30944 -0.189,-0.59294 -0.189,-0.92646 a 3.7947168,3.7947168 0 1 1 3.79472,3.79477 c -0.33167,0 -0.61702,-0.10562 -0.92459,-0.189 l -3.24997,3.25002 z m 24.48778,-18.914571 a 1.9093725,1.9093725 0 0 1 -1.89735,2.01597 h -3.80769 a 1.8935079,1.8935079 0 0 1 -1.88439,-1.7788 c -0.88938,-15.35697 -13.22222,-27.80857 -28.56784,-28.63868 a 1.8787222,1.8787222 0 0 1 -1.77878,-1.88627 v -3.7466 a 1.9082497,1.9082497 0 0 1 2.01594,-1.89738 c 19.35343,1.0191 34.91214,16.57804 35.92011,35.93176 z m -11.38415,-0.0352 a 1.9221271,1.9221271 0 0 1 -1.91032,2.05119 h -3.8188 a 1.9052534,1.9052534 0 0 1 -1.88439,-1.7436 c -0.81898,-9.1312 -8.07674,-16.47061 -17.18369,-17.21918 a 1.8900029,1.8900029 0 0 1 -1.75469,-1.88442 v -3.80775 a 1.9130055,1.9130055 0 0 1 2.05115,-1.9085 c 13.0573,1.00798 23.50389,11.45473 24.50074,24.51223 z"
       inkscape:connector-curvature="0"
       style="fill:currentColor;stroke-width:0.11856981" />
    <path
       style="fill:#ffffff;stroke-width:0.06006354"
       d="m 47.634088,161.965 c -0.54448,-0.0212 -0.993277,0.41628 -0.991153,0.96119 l 0.01188,2.89698 c 0.0017,0.51985 0.415452,0.94534 0.934826,0.9679 11.874982,0.51985 21.44884,10.09063 21.968685,21.96817 0.02251,0.51942 0.4479,0.93328 0.967383,0.93534 l 2.896981,0.0114 c 0.544483,0.002 0.981906,-0.44667 0.960665,-0.99116 v -5.1e-4 C 73.818498,174.22985 62.112996,162.52946 47.634088,161.965 Z m -0.05478,9.58908 c -0.552133,-0.034 -1.01151,0.40657 -1.00769,0.95912 l 0.01912,2.90628 c 0.0034,0.50626 0.396978,0.93349 0.902787,0.97049 6.647612,0.48332 11.983249,5.83255 12.464873,12.46487 0.03694,0.50584 0.463762,0.89934 0.970484,0.90227 l 2.906281,0.0191 c 0.552802,0.004 0.993299,-0.4556 0.959633,-1.00666 -0.566142,-9.22435 -8.001331,-16.6502 -17.215487,-17.21549 z m -1.048515,9.84901 v 8.33593 h 8.42636 c 0,-4.38062 -4.35588,-8.33593 -8.42636,-8.33593 z"
       id="path1008"
       inkscape:connector-curvature="0" />
    <path
       id="path1019"
       d="m -33.781165,220.89461 v 49.32505 c 0,3.14328 -2.548068,5.69135 -5.691352,5.69135 h -26.559639 c -3.143286,0 -5.691351,-2.54807 -5.691351,-5.69135 v -49.32505 c 0,-3.14329 2.548065,-5.69135 5.691351,-5.69135 h 26.559639 c 3.143284,0 5.691352,2.54806 5.691352,5.69135 z m 11.382702,6.87705 v 1.42284 a 0.71141892,0.71141892 0 0 1 -0.711418,0.71142 h -2.134257 v 0.71142 a 0.71141892,0.71141892 0 0 1 -0.711419,0.71141 h -4.979933 v -5.69135 h 4.979933 a 0.71141892,0.71141892 0 0 1 0.711419,0.71142 v 0.71142 h 2.134257 a 0.71141892,0.71141892 0 0 1 0.711418,0.71142 z m 0,11.3827 v 1.42284 a 0.71141892,0.71141892 0 0 1 -0.711418,0.71142 h -2.134257 v 0.71142 a 0.71141892,0.71141892 0 0 1 -0.711419,0.71142 h -4.979933 v -5.69135 h 4.979933 a 0.71141892,0.71141892 0 0 1 0.711419,0.71141 v 0.71142 h 2.134257 a 0.71141892,0.71141892 0 0 1 0.711418,0.71142 z m 0,11.38271 v 1.42283 a 0.71141892,0.71141892 0 0 1 -0.711418,0.71142 h -2.134257 v 0.71142 a 0.71141892,0.71141892 0 0 1 -0.711419,0.71142 h -4.979933 v -5.69135 h 4.979933 a 0.71141892,0.71141892 0 0 1 0.711419,0.71142 v 0.71142 h 2.134257 a 0.71141892,0.71141892 0 0 1 0.711418,0.71142 z m 0,11.3827 v 1.42284 a 0.71141892,0.71141892 0 0 1 -0.711418,0.71141 h -2.134257 v 0.71142 a 0.71141892,0.71141892 0 0 1 -0.711419,0.71142 h -4.979933 v -5.69135 h 4.979933 a 0.71141892,0.71141892 0 0 1 0.711419,0.71142 v 0.71142 h 2.134257 a 0.71141892,0.71141892 0 0 1 0.711418,0.71142 z m -57.150652,-2.13426 h 4.979932 v 5.69135 h -4.979932 a 0.71141892,0.71141892 0 0 1 -0.711419,-0.71142 v -0.71142 h -2.134257 a 0.71141892,0.71141892 0 0 1 -0.711419,-0.71141 v -1.42284 a 0.71141892,0.71141892 0 0 1 0.711419,-0.71142 h 2.134257 v -0.71142 a 0.71141892,0.71141892 0 0 1 0.711419,-0.71142 z m 0,-11.3827 h 4.979932 v 5.69135 h -4.979932 a 0.71141892,0.71141892 0 0 1 -0.711419,-0.71142 v -0.71142 h -2.134257 a 0.71141892,0.71141892 0 0 1 -0.711419,-0.71142 v -1.42283 a 0.71141892,0.71141892 0 0 1 0.711419,-0.71142 h 2.134257 v -0.71142 a 0.71141892,0.71141892 0 0 1 0.711419,-0.71142 z m 0,-11.3827 h 4.979932 v 5.69135 h -4.979932 a 0.71141892,0.71141892 0 0 1 -0.711419,-0.71142 v -0.71142 h -2.134257 a 0.71141892,0.71141892 0 0 1 -0.711419,-0.71142 v -1.42284 a 0.71141892,0.71141892 0 0 1 0.711419,-0.71142 h 2.134257 v -0.71142 a 0.71141892,0.71141892 0 0 1 0.711419,-0.71141 z m 0,-11.38271 h 4.979932 v 5.69135 h -4.979932 a 0.71141892,0.71141892 0 0 1 -0.711419,-0.71141 v -0.71142 h -2.134257 a 0.71141892,0.71141892 0 0 1 -0.711419,-0.71142 v -1.42284 a 0.71141892,0.71141892 0 0 1 0.711419,-0.71142 h 2.134257 v -0.71142 a 0.71141892,0.71141892 0 0 1 0.711419,-0.71142 z"
       inkscape:connector-curvature="0"
       style="fill:currentColor;stroke-width:0.11856981" />
    <path
       id="path1030"
       d="M 45.592922,89.283247 C 33.344377,71.526482 31.070817,69.704095 31.070817,63.178222 c 0,-8.939041 7.246469,-16.18551 16.185506,-16.18551 8.939039,0 16.185489,7.246469 16.185489,16.18551 0,6.525873 -2.273537,8.34826 -14.522088,26.105025 -0.803795,1.161147 -2.523088,1.161067 -3.326802,0 z"
       inkscape:connector-curvature="0"
       style="fill:#000000;stroke-width:0.0842995" />
    <path
       style="fill:currentColor;stroke-width:0.11856981"
       d="m -158.79284,203.18973 c -0.39291,0 -0.71159,0.31869 -0.71159,0.71159 v 2.13423 h -0.71158 c -0.39291,1e-5 -0.71107,0.31816 -0.71107,0.71107 v 4.98006 h 5.69113 v -4.98006 c 0,-0.3929 -0.31868,-0.71108 -0.71159,-0.71107 h -0.71106 v -2.13423 c -1e-5,-0.39291 -0.31868,-0.7116 -0.71159,-0.71159 z m 11.38276,0 c -0.3929,0 -0.71158,0.31868 -0.71158,0.71159 v 2.13423 h -0.71158 c -0.39291,1e-5 -0.71107,0.31817 -0.71107,0.71107 v 4.98006 h 5.69112 v -4.98006 c 1e-5,-0.3929 -0.31867,-0.71108 -0.71158,-0.71107 h -0.71107 v -2.13423 c 0,-0.39291 -0.31868,-0.71159 -0.71158,-0.71159 z m 11.38226,0 c -0.39291,0 -0.71107,0.31868 -0.71107,0.71159 v 2.13423 h -0.71159 c -0.3929,1e-5 -0.71158,0.31816 -0.71158,0.71107 v 4.98006 h 5.69164 v -4.98006 c 0,-0.3929 -0.31868,-0.71106 -0.71158,-0.71107 h -0.71159 v -2.13423 c 0,-0.39291 -0.31815,-0.71159 -0.71107,-0.71159 z m 11.38276,0 c -0.3929,0 -0.71106,0.31868 -0.71106,0.71159 v 2.13423 h -0.71159 c -0.3929,1e-5 -0.71158,0.31817 -0.71158,0.71107 v 4.98006 h 5.69164 v -4.98006 c 0,-0.3929 -0.31867,-0.71106 -0.71159,-0.71107 h -0.71158 v -2.13423 c 0,-0.39291 -0.31815,-0.71159 -0.71107,-0.71159 z m -41.0192,11.37708 c -3.14328,0 -5.69164,2.54784 -5.69164,5.69113 v 49.32515 c 0,3.14328 2.54836,5.69165 5.69164,5.69165 h 49.31379 c 3.14328,0 5.69112,-2.54837 5.69112,-5.69165 v -49.32515 c 0,-3.14329 -2.54784,-5.69113 -5.69112,-5.69113 z m -13.517,10.43399 c -0.39291,0 -0.71159,0.31868 -0.71159,0.71159 v 0.71106 h -2.13423 c -0.39291,0 -0.71159,0.31868 -0.71159,0.71159 v 1.42317 c 0,0.39291 0.31868,0.71107 0.71159,0.71107 h 2.13423 v 0.71158 c 1e-5,0.3929 0.31869,0.71159 0.71159,0.71159 h 4.98006 v -5.69165 z m 71.36773,0 v 5.69165 h 4.98006 c 0.3929,0 0.71106,-0.31869 0.71107,-0.71159 v -0.71158 h 2.134237 c 0.392909,0 0.711584,-0.31816 0.711584,-0.71107 v -1.42317 c 0,-0.39291 -0.318675,-0.71159 -0.711584,-0.71159 h -2.134237 v -0.71106 c 0,-0.39291 -0.31816,-0.71159 -0.71107,-0.71159 z m -71.36773,11.38277 c -0.3929,0 -0.71158,0.31868 -0.71159,0.71159 v 0.71106 h -2.13423 c -0.39291,0 -0.71159,0.31868 -0.71159,0.71159 v 1.42265 c 0,0.39291 0.31868,0.71158 0.71159,0.71158 h 2.13423 v 0.71159 c 0,0.39291 0.31868,0.71107 0.71159,0.71107 h 4.98006 v -5.69113 z m 71.36773,0 v 5.69113 h 4.98006 c 0.39291,0 0.71107,-0.31816 0.71107,-0.71107 v -0.71159 h 2.134237 c 0.392909,0 0.711584,-0.31867 0.711584,-0.71158 v -1.42265 c 0,-0.39291 -0.318675,-0.71159 -0.711584,-0.71159 h -2.134237 v -0.71106 c -1e-5,-0.39291 -0.31817,-0.71159 -0.71107,-0.71159 z m -71.36773,11.38277 c -0.39291,0 -0.71159,0.31867 -0.71159,0.71158 v 0.71107 h -2.13423 c -0.39291,0 -0.71159,0.31867 -0.71159,0.71158 v 1.42266 c 0,0.39291 0.31868,0.71158 0.71159,0.71158 h 2.13423 v 0.71158 c 0,0.39292 0.31868,0.71107 0.71159,0.71107 h 4.98006 v -5.69112 z m 71.36773,0 v 5.69112 h 4.98006 c 0.39291,0 0.71107,-0.31815 0.71107,-0.71107 v -0.71158 h 2.134237 c 0.392909,0 0.711584,-0.31867 0.711584,-0.71158 v -1.42266 c 0,-0.39291 -0.318675,-0.71158 -0.711584,-0.71158 h -2.134237 v -0.71107 c 0,-0.39291 -0.31816,-0.71158 -0.71107,-0.71158 z m -71.36773,11.38276 c -0.39291,0 -0.71159,0.31816 -0.71159,0.71107 v 0.71159 h -2.13423 c -0.39291,0 -0.71159,0.31867 -0.71159,0.71158 v 1.42265 c 1e-5,0.3929 0.31869,0.71159 0.71159,0.71159 h 2.13423 v 0.71158 c 0,0.39291 0.31868,0.71107 0.71159,0.71107 h 4.98006 v -5.69113 z m 71.36773,0 v 5.69113 h 4.98006 c 0.39291,0 0.71107,-0.31816 0.71107,-0.71107 v -0.71158 h 2.134237 c 0.392899,0 0.711584,-0.31869 0.711584,-0.71159 v -1.42265 c 0,-0.39291 -0.318675,-0.71158 -0.711584,-0.71158 h -2.134237 v -0.71159 c 0,-0.39291 -0.31816,-0.71107 -0.71107,-0.71107 z m -53.11355,18.96526 v 4.98005 c 0,0.3929 0.31816,0.7116 0.71107,0.71159 h 0.71158 v 2.13424 c 0,0.39289 0.31869,0.71158 0.71159,0.71158 h 1.42265 c 0.39291,-10e-6 0.71159,-0.31867 0.71159,-0.71158 V 283.806 h 0.71106 c 0.39291,-10e-6 0.71159,-0.31869 0.71159,-0.71159 v -4.98005 z m 11.38277,0 v 4.98005 c -1e-5,0.3929 0.31816,0.7116 0.71107,0.71159 h 0.71158 v 2.13424 c 0,0.39291 0.31868,0.71159 0.71158,0.71158 h 1.42266 c 0.3929,-10e-6 0.71158,-0.31867 0.71158,-0.71158 V 283.806 h 0.71107 c 0.39291,-10e-6 0.71159,-0.31868 0.71158,-0.71159 v -4.98005 z m 11.38225,0 v 4.98005 c 0,0.3929 0.31868,0.7116 0.71158,0.71159 h 0.71159 v 2.13424 c 0,0.39291 0.31816,0.71159 0.71107,0.71158 h 1.42316 c 0.39292,1e-5 0.71107,-0.31867 0.71107,-0.71158 V 283.806 h 0.71159 c 0.3929,0 0.71158,-0.31869 0.71158,-0.71159 v -4.98005 z m 11.38277,0 v 4.98005 c 0,0.3929 0.31868,0.71159 0.71158,0.71159 h 0.71159 v 2.13424 c 0,0.39291 0.31816,0.71159 0.71106,0.71158 h 1.42317 c 0.39292,1e-5 0.71107,-0.31867 0.71107,-0.71158 V 283.806 h 0.71158 c 0.39292,1e-5 0.71159,-0.31869 0.71159,-0.71159 v -4.98005 z"
       id="path1130"
       inkscape:connector-curvature="0" />
    <path
       style="fill:currentColor;stroke-width:0.44813788"
       d="M 515.2168 506.98242 C 513.73178 506.98242 512.52734 508.1869 512.52734 509.67188 L 512.52734 517.73828 L 509.83789 517.73828 C 508.35288 517.73832 507.15039 518.94077 507.15039 520.42578 L 507.15039 539.24805 L 528.66016 539.24805 L 528.66016 520.42578 C 528.66016 518.9408 527.45572 517.73824 525.9707 517.73828 L 523.2832 517.73828 L 523.2832 509.67188 C 523.28317 508.18686 522.07876 506.98238 520.59375 506.98242 L 515.2168 506.98242 z M 558.23828 506.98242 C 556.7533 506.98242 555.54883 508.18686 555.54883 509.67188 L 555.54883 517.73828 L 552.85938 517.73828 C 551.37436 517.73832 550.17188 518.9408 550.17188 520.42578 L 550.17188 539.24805 L 571.68164 539.24805 L 571.68164 520.42578 C 571.68168 518.9408 570.4772 517.73824 568.99219 517.73828 L 566.30469 517.73828 L 566.30469 509.67188 C 566.30469 508.18686 565.10021 506.98242 563.61523 506.98242 L 558.23828 506.98242 z M 601.25781 506.98242 C 599.7728 506.98242 598.57031 508.18686 598.57031 509.67188 L 598.57031 517.73828 L 595.88086 517.73828 C 594.39588 517.73832 593.19141 518.94077 593.19141 520.42578 L 593.19141 539.24805 L 614.70312 539.24805 L 614.70312 520.42578 C 614.70312 518.9408 613.49865 517.73832 612.01367 517.73828 L 609.32422 517.73828 L 609.32422 509.67188 C 609.32422 508.18686 608.12177 506.98242 606.63672 506.98242 L 601.25781 506.98242 z M 644.2793 506.98242 C 642.79432 506.98242 641.5918 508.18686 641.5918 509.67188 L 641.5918 517.73828 L 638.90234 517.73828 C 637.41737 517.73832 636.21289 518.9408 636.21289 520.42578 L 636.21289 539.24805 L 657.72461 539.24805 L 657.72461 520.42578 C 657.72461 518.9408 656.52021 517.73832 655.03516 517.73828 L 652.3457 517.73828 L 652.3457 509.67188 C 652.3457 508.18686 651.14326 506.98242 649.6582 506.98242 L 644.2793 506.98242 z M 489.24609 549.98242 C 477.36598 549.98242 467.73437 559.61204 467.73438 571.49219 L 467.73438 757.91797 C 467.73438 769.79808 477.36598 779.42969 489.24609 779.42969 L 675.62891 779.42969 C 687.50902 779.42969 697.13867 769.79808 697.13867 757.91797 L 697.13867 571.49219 C 697.13867 559.61204 687.50902 549.98242 675.62891 549.98242 L 489.24609 549.98242 z M 438.1582 589.41797 C 436.67319 589.41797 435.46875 590.62241 435.46875 592.10742 L 435.46875 594.79492 L 427.40234 594.79492 C 425.91733 594.79492 424.71289 595.99936 424.71289 597.48438 L 424.71289 602.86328 C 424.71289 604.3483 425.91733 605.55078 427.40234 605.55078 L 435.46875 605.55078 L 435.46875 608.24023 C 435.46879 609.72521 436.67323 610.92969 438.1582 610.92969 L 456.98047 610.92969 L 456.98047 589.41797 L 438.1582 589.41797 z M 707.89453 589.41797 L 707.89453 610.92969 L 726.7168 610.92969 C 728.20177 610.92969 729.40426 609.72521 729.4043 608.24023 L 729.4043 605.55078 L 737.4707 605.55078 C 738.95572 605.55078 740.16016 604.3483 740.16016 602.86328 L 740.16016 597.48438 C 740.16016 595.99936 738.95572 594.79492 737.4707 594.79492 L 729.4043 594.79492 L 729.4043 592.10742 C 729.4043 590.62241 728.20181 589.41797 726.7168 589.41797 L 707.89453 589.41797 z M 513.10547 591.50781 L 531.43555 591.50781 L 531.43555 711.55664 L 597.40234 711.55664 L 597.40234 726.98242 L 513.10547 726.98242 L 513.10547 591.50781 z M 438.1582 632.43945 C 436.67323 632.43945 435.46879 633.64389 435.46875 635.12891 L 435.46875 637.81641 L 427.40234 637.81641 C 425.91733 637.81641 424.71289 639.02085 424.71289 640.50586 L 424.71289 645.88281 C 424.71289 647.36783 425.91733 648.57227 427.40234 648.57227 L 435.46875 648.57227 L 435.46875 651.26172 C 435.46875 652.74673 436.67319 653.94922 438.1582 653.94922 L 456.98047 653.94922 L 456.98047 632.43945 L 438.1582 632.43945 z M 707.89453 632.43945 L 707.89453 653.94922 L 726.7168 653.94922 C 728.20181 653.94922 729.4043 652.74673 729.4043 651.26172 L 729.4043 648.57227 L 737.4707 648.57227 C 738.95572 648.57227 740.16016 647.36783 740.16016 645.88281 L 740.16016 640.50586 C 740.16016 639.02085 738.95572 637.81641 737.4707 637.81641 L 729.4043 637.81641 L 729.4043 635.12891 C 729.40426 633.64389 728.20177 632.43945 726.7168 632.43945 L 707.89453 632.43945 z M 438.1582 675.46094 C 436.67319 675.46094 435.46875 676.66538 435.46875 678.15039 L 435.46875 680.83789 L 427.40234 680.83789 C 425.91733 680.83789 424.71289 682.04233 424.71289 683.52734 L 424.71289 688.9043 C 424.71289 690.38931 425.91733 691.59375 427.40234 691.59375 L 435.46875 691.59375 L 435.46875 694.2832 C 435.46875 695.76826 436.67319 696.9707 438.1582 696.9707 L 456.98047 696.9707 L 456.98047 675.46094 L 438.1582 675.46094 z M 707.89453 675.46094 L 707.89453 696.9707 L 726.7168 696.9707 C 728.20181 696.9707 729.4043 695.76826 729.4043 694.2832 L 729.4043 691.59375 L 737.4707 691.59375 C 738.95572 691.59375 740.16016 690.38931 740.16016 688.9043 L 740.16016 683.52734 C 740.16016 682.04233 738.95572 680.83789 737.4707 680.83789 L 729.4043 680.83789 L 729.4043 678.15039 C 729.4043 676.66538 728.20181 675.46094 726.7168 675.46094 L 707.89453 675.46094 z M 438.1582 718.48242 C 436.67319 718.48242 435.46875 719.68491 435.46875 721.16992 L 435.46875 723.85938 L 427.40234 723.85938 C 425.91733 723.85938 424.71289 725.06381 424.71289 726.54883 L 424.71289 731.92578 C 424.71293 733.41076 425.91737 734.61523 427.40234 734.61523 L 435.46875 734.61523 L 435.46875 737.30469 C 435.46875 738.7897 436.67319 739.99219 438.1582 739.99219 L 456.98047 739.99219 L 456.98047 718.48242 L 438.1582 718.48242 z M 707.89453 718.48242 L 707.89453 739.99219 L 726.7168 739.99219 C 728.20181 739.99219 729.4043 738.7897 729.4043 737.30469 L 729.4043 734.61523 L 737.4707 734.61523 C 738.95568 734.61523 740.16016 733.41076 740.16016 731.92578 L 740.16016 726.54883 C 740.16016 725.06381 738.95572 723.85938 737.4707 723.85938 L 729.4043 723.85938 L 729.4043 721.16992 C 729.4043 719.68491 728.20181 718.48242 726.7168 718.48242 L 707.89453 718.48242 z M 507.15039 790.16211 L 507.15039 808.98438 C 507.15039 810.46935 508.35288 811.67387 509.83789 811.67383 L 512.52734 811.67383 L 512.52734 819.74023 C 512.52734 821.22517 513.73182 822.42969 515.2168 822.42969 L 520.59375 822.42969 C 522.07876 822.42965 523.2832 821.22525 523.2832 819.74023 L 523.2832 811.67383 L 525.9707 811.67383 C 527.45572 811.67379 528.66016 810.46935 528.66016 808.98438 L 528.66016 790.16211 L 507.15039 790.16211 z M 550.17188 790.16211 L 550.17188 808.98438 C 550.17184 810.46935 551.37436 811.67387 552.85938 811.67383 L 555.54883 811.67383 L 555.54883 819.74023 C 555.54883 821.22525 556.7533 822.42973 558.23828 822.42969 L 563.61523 822.42969 C 565.10021 822.42965 566.30469 821.22525 566.30469 819.74023 L 566.30469 811.67383 L 568.99219 811.67383 C 570.4772 811.67379 571.68168 810.46939 571.68164 808.98438 L 571.68164 790.16211 L 550.17188 790.16211 z M 593.19141 790.16211 L 593.19141 808.98438 C 593.19141 810.46935 594.39588 811.67387 595.88086 811.67383 L 598.57031 811.67383 L 598.57031 819.74023 C 598.57031 821.22525 599.7728 822.42973 601.25781 822.42969 L 606.63672 822.42969 C 608.12177 822.42973 609.32422 821.22525 609.32422 819.74023 L 609.32422 811.67383 L 612.01367 811.67383 C 613.49865 811.67383 614.70312 810.46935 614.70312 808.98438 L 614.70312 790.16211 L 593.19141 790.16211 z M 636.21289 790.16211 L 636.21289 808.98438 C 636.21289 810.46935 637.41737 811.67383 638.90234 811.67383 L 641.5918 811.67383 L 641.5918 819.74023 C 641.5918 821.22525 642.79432 822.42973 644.2793 822.42969 L 649.6582 822.42969 C 651.14326 822.42973 652.3457 821.22525 652.3457 819.74023 L 652.3457 811.67383 L 655.03516 811.67383 C 656.52021 811.67387 657.72461 810.46935 657.72461 808.98438 L 657.72461 790.16211 L 636.21289 790.16211 z "
       id="path1186"
       transform="scale(0.26458333)" />
    <path
       style="fill:#ffffff;stroke-width:0.44813788"
       d="M 163.40625 324.59375 C 166.21987 328.63228 169.16579 332.87609 172.32031 337.44922 C 175.35797 341.8375 181.85461 341.83781 184.89258 337.44922 C 188.0471 332.87609 190.99302 328.63228 193.80664 324.59375 L 163.40625 324.59375 z "
       transform="scale(0.26458333)"
       id="path854" />
    <path
       id="path1041"
       d="m 240.99925,88.532426 c -12.24855,-17.756764 -14.5221,-19.579148 -14.5221,-26.105017 0,-8.939031 7.24646,-16.1855 16.18549,-16.1855 8.93903,0 16.1855,7.246469 16.1855,16.1855 0,6.525869 -2.27356,8.348253 -14.52211,26.105017 -0.80379,1.16114 -2.52307,1.161063 -3.32678,0 z m 1.66339,-19.361058 c 3.72461,0 6.74396,-3.019364 6.74396,-6.743959 0,-3.724605 -3.01935,-6.74396 -6.74396,-6.74396 -3.7246,0 -6.74396,3.019355 -6.74396,6.74396 0,3.724595 3.01936,6.743959 6.74396,6.743959 z"
       inkscape:connector-curvature="0"
       style="fill:currentColor;stroke:none;stroke-width:3.45857954;stroke-miterlimit:4;stroke-dasharray:3.45857966, 3.45857966;stroke-dashoffset:0;stroke-opacity:1;paint-order:stroke markers fill" />
    <path
       id="path877"
       d="m 228.67612,85.131281 c -2.09549,0 -3.79408,1.699119 -3.79408,3.794601 v 7.588165 c 0,2.095492 1.69859,3.794083 3.79408,3.794083 h 53.11924 c 2.09549,0 3.7946,-1.698591 3.7946,-3.794083 v -7.588165 c 0,-2.095482 -1.69911,-3.794601 -3.7946,-3.794601 h -31.88694 c -1.56087,2.226691 -3.28203,4.690501 -5.24981,7.543209 -0.96456,1.393376 -3.02755,1.39328 -3.99201,0 -1.96778,-2.852708 -3.68893,-5.316518 -5.2498,-7.543209 z m 39.83943,4.742862 c 1.57164,0 2.84582,1.274181 2.84582,2.845821 0,1.571641 -1.27418,2.845822 -2.84582,2.845822 -1.57165,0 -2.8453,-1.274181 -2.8453,-2.845822 0,-1.57164 1.27365,-2.845821 2.8453,-2.845821 z m 7.58868,0 c 1.57165,0 2.84583,1.274181 2.84583,2.845821 0,1.571641 -1.27418,2.845822 -2.84583,2.845822 -1.57164,0 -2.84582,-1.274181 -2.84582,-2.845822 0,-1.57164 1.27418,-2.845821 2.84582,-2.845821 z"
       style="fill:currentColor;stroke-width:0.11856981"
       inkscape:connector-curvature="0" />
    <path
       id="path927"
       d="m 357.00655,97.094566 h -2.07888 V 49.695969 c 0,-1.377782 -1.11689,-2.494663 -2.49467,-2.494663 h -34.92528 c -1.37778,0 -2.49467,1.116881 -2.49467,2.494663 v 47.398597 h -2.07888 c -0.68884,0 -1.24733,0.5585 -1.24733,1.24733 v 2.078894 h 46.56704 v -2.078894 c 0,-0.68883 -0.55849,-1.24733 -1.24733,-1.24733 z M 324.99171,55.101072 c 0,-0.688838 0.55849,-1.247331 1.24733,-1.247331 h 4.15777 c 0.68884,0 1.24733,0.558493 1.24733,1.247331 v 4.157772 c 0,0.688839 -0.55849,1.247332 -1.24733,1.247332 h -4.15777 c -0.68884,0 -1.24733,-0.558493 -1.24733,-1.247332 z m 0,9.978652 c 0,-0.688838 0.55849,-1.247331 1.24733,-1.247331 h 4.15777 c 0.68884,0 1.24733,0.558493 1.24733,1.247331 v 4.157772 c 0,0.688839 -0.55849,1.247332 -1.24733,1.247332 h -4.15777 c -0.68884,0 -1.24733,-0.558493 -1.24733,-1.247332 z m 5.4051,15.383756 h -4.15777 c -0.68884,0 -1.24733,-0.558493 -1.24733,-1.247331 v -4.157772 c 0,-0.688839 0.55849,-1.247332 1.24733,-1.247332 h 4.15777 c 0.68884,0 1.24733,0.558493 1.24733,1.247332 v 4.157772 c 0,0.688838 -0.55849,1.247331 -1.24733,1.247331 z m 7.89977,16.631086 h -6.65244 v -8.73132 c 0,-0.688837 0.5585,-1.247331 1.24733,-1.247331 h 4.15777 c 0.68885,0 1.24734,0.558494 1.24734,1.247331 z m 6.65243,-17.878417 c 0,0.688838 -0.55849,1.247331 -1.24733,1.247331 h -4.15777 c -0.68884,0 -1.24733,-0.558493 -1.24733,-1.247331 v -4.157772 c 0,-0.688839 0.55849,-1.247332 1.24733,-1.247332 h 4.15777 c 0.68884,0 1.24733,0.558493 1.24733,1.247332 z m 0,-9.978653 c 0,0.688839 -0.55849,1.247332 -1.24733,1.247332 h -4.15777 c -0.68884,0 -1.24733,-0.558493 -1.24733,-1.247332 v -4.157772 c 0,-0.688838 0.55849,-1.247331 1.24733,-1.247331 h 4.15777 c 0.68884,0 1.24733,0.558493 1.24733,1.247331 z m 0,-9.978652 c 0,0.688839 -0.55849,1.247332 -1.24733,1.247332 h -4.15777 c -0.68884,0 -1.24733,-0.558493 -1.24733,-1.247332 v -4.157772 c 0,-0.688838 0.55849,-1.247331 1.24733,-1.247331 h 4.15777 c 0.68884,0 1.24733,0.558493 1.24733,1.247331 z"
       inkscape:connector-curvature="0"
       style="fill:currentColor;stroke-width:0.10394429" />
    <g
       id="g950">
      <path
         id="path938"
         transform="scale(0.26458333)"
         d="M 928.03125 564.14258 C 922.82389 564.14258 918.60156 568.36296 918.60156 573.57031 L 918.60156 752.71484 L 910.74414 752.71484 C 908.14065 752.71484 906.03125 754.82624 906.03125 757.42969 L 906.03125 765.28711 L 1069.1367 765.28711 C 1036.1304 717.84201 1026.7183 706.8999 1025.0098 689.85742 L 1011.3164 689.85742 C 1008.7129 689.85742 1006.6035 687.74607 1006.6035 685.14258 L 1006.6035 669.42773 C 1006.6035 666.82424 1008.7129 664.71484 1011.3164 664.71484 L 1027.0312 664.71484 C 1027.2371 664.71484 1027.4339 664.74981 1027.6328 664.77539 C 1033.9273 645.87956 1049.7784 631.36525 1069.4609 626.96094 L 1069.4609 573.57031 C 1069.4609 568.36296 1065.2386 564.14258 1060.0312 564.14258 L 928.03125 564.14258 z M 961.03125 589.28516 L 976.74609 589.28516 C 979.34958 589.28516 981.45898 591.39655 981.45898 594 L 981.45898 609.71484 C 981.45898 612.3183 979.34958 614.42773 976.74609 614.42773 L 961.03125 614.42773 C 958.42776 614.42773 956.31641 612.3183 956.31641 609.71484 L 956.31641 594 C 956.31641 591.39655 958.42776 589.28516 961.03125 589.28516 z M 1011.3164 589.28516 L 1027.0312 589.28516 C 1029.6347 589.28516 1031.7461 591.39655 1031.7461 594 L 1031.7461 609.71484 C 1031.7461 612.3183 1029.6347 614.42773 1027.0312 614.42773 L 1011.3164 614.42773 C 1008.7129 614.42773 1006.6035 612.3183 1006.6035 609.71484 L 1006.6035 594 C 1006.6035 591.39655 1008.7129 589.28516 1011.3164 589.28516 z M 961.03125 627 L 976.74609 627 C 979.34958 627 981.45898 629.11135 981.45898 631.71484 L 981.45898 647.42773 C 981.45898 650.03122 979.34958 652.14258 976.74609 652.14258 L 961.03125 652.14258 C 958.42776 652.14258 956.31641 650.03122 956.31641 647.42773 L 956.31641 631.71484 C 956.31641 629.11135 958.42776 627 961.03125 627 z M 1011.3164 627 L 1027.0312 627 C 1029.6347 627 1031.7461 629.11135 1031.7461 631.71484 L 1031.7461 647.42773 C 1031.7461 650.03122 1029.6347 652.14258 1027.0312 652.14258 L 1011.3164 652.14258 C 1008.7129 652.14258 1006.6035 650.03122 1006.6035 647.42773 L 1006.6035 631.71484 C 1006.6035 629.11135 1008.7129 627 1011.3164 627 z M 961.03125 664.71484 L 976.74609 664.71484 C 979.34958 664.71484 981.45898 666.82424 981.45898 669.42773 L 981.45898 685.14258 C 981.45898 687.74607 979.34958 689.85742 976.74609 689.85742 L 961.03125 689.85742 C 958.42776 689.85742 956.31641 687.74607 956.31641 685.14258 L 956.31641 669.42773 C 956.31641 666.82424 958.42776 664.71484 961.03125 664.71484 z M 986.17383 715 L 1001.8887 715 C 1004.4922 715 1006.6035 717.11135 1006.6035 719.71484 L 1006.6035 752.71484 L 981.45898 752.71484 L 981.45898 719.71484 C 981.45898 717.11135 983.57038 715 986.17383 715 z "
         style="fill:currentColor;stroke-width:0.39286029" />
      <path
         id="path940"
         d="m 285.04026,201.27253 c -9.18511,-13.31568 -10.89003,-14.68227 -10.89003,-19.57598 0,-6.70332 5.43407,-12.1374 12.13739,-12.1374 6.70332,0 12.1374,5.43408 12.1374,12.1374 0,4.89371 -1.70493,6.2603 -10.89003,19.57598 -0.60276,0.87073 -1.89204,0.87067 -2.49473,0 z m 1.24736,-14.51873 c 2.79306,0 5.05725,-2.2642 5.05725,-5.05725 0,-2.79305 -2.26419,-5.05725 -5.05725,-5.05725 -2.79305,0 -5.05725,2.2642 -5.05725,5.05725 0,2.79305 2.2642,5.05725 5.05725,5.05725 z"
         inkscape:connector-curvature="0"
         style="fill:#000000;stroke:none;stroke-width:2.59356546;stroke-miterlimit:4;stroke-dasharray:2.59356558, 2.59356557999999993;stroke-dashoffset:0;stroke-opacity:1;paint-order:stroke markers fill" />
    </g>
    <g
       id="g2117">
      <path
         style="fill:currentColor;stroke-width:0.04069241"
         inkscape:connector-curvature="0"
         d="m 161.5291,273.47543 -7.9083,7.90831 c -0.38139,0.38139 -0.99976,0.38139 -1.38113,0 l -0.92242,-0.92239 c -0.38076,-0.38076 -0.3815,-0.99785 -0.002,-1.3795 l 6.26753,-6.297 -6.26748,-6.29696 c -0.37988,-0.38166 -0.37913,-0.99875 0.002,-1.37951 l 0.92238,-0.92239 c 0.38142,-0.38139 0.99977,-0.38139 1.38113,0 l 7.9083,7.90831 c 0.3814,0.38137 0.3814,0.99974 0,1.38113 z m 15.54527,7.44791 v -1.30217 c 0,-0.53938 -0.43723,-0.97662 -0.97661,-0.97662 h -12.37051 c -0.53938,0 -0.97661,0.43724 -0.97661,0.97662 v 1.30217 c 0,0.53938 0.43723,0.97661 0.97661,0.97661 h 12.37051 c 0.53938,0 0.97661,-0.43723 0.97661,-0.97661 z"
         id="path2080" />
      <path
         id="path2102"
         d="m 185.67308,243.63373 h -43.24086 c -2.75452,0 -4.98933,2.23481 -4.98933,4.98933 v 36.58839 c 0,2.75453 2.23481,4.98933 4.98933,4.98933 h 43.24086 c 2.75452,0 4.98932,-2.2348 4.98932,-4.98933 v -36.58839 c 0,-2.75452 -2.2348,-4.98933 -4.98932,-4.98933 z m 0,40.95406 c 0,0.34301 -0.28065,0.62366 -0.62367,0.62366 h -41.99352 c -0.34302,0 -0.62367,-0.28065 -0.62367,-0.62366 v -24.32297 h 43.24086 z"
         inkscape:connector-curvature="0"
         style="fill:currentColor;stroke-width:0.1039443" />
    </g>
    <g
       id="g2113">
      <path
         style="fill:currentColor;stroke-width:0.1039443"
         inkscape:connector-curvature="0"
         d="M 58.673027,243.63373 H 15.432193 c -2.754524,0 -4.989327,2.23481 -4.989327,4.98933 v 36.58839 c 0,2.75453 2.234803,4.98933 4.989327,4.98933 h 43.240834 c 2.754521,0 4.989326,-2.2348 4.989326,-4.98933 v -36.58839 c 0,-2.75452 -2.234805,-4.98933 -4.989326,-4.98933 z m 0,40.95406 c 0,0.34301 -0.280652,0.62366 -0.623666,0.62366 H 16.055859 c -0.343017,0 -0.623666,-0.28065 -0.623666,-0.62366 v -24.32297 h 43.240834 z"
         id="path2091" />
      <text
         id="text2108"
         y="281.67761"
         x="24.167892"
         style="font-style:normal;font-weight:normal;font-size:33.99661255px;line-height:1.25;font-family:sans-serif;letter-spacing:0px;word-spacing:0px;fill:#000000;fill-opacity:1;stroke:none;stroke-width:0.84991527"
         xml:space="preserve"><tspan
           style="font-style:normal;font-variant:normal;font-weight:normal;font-stretch:normal;font-size:33.99661255px;font-family:'Helvetica Neue';-inkscape-font-specification:'Helvetica Neue, Normal';font-variant-ligatures:normal;font-variant-caps:normal;font-variant-numeric:normal;font-feature-settings:normal;text-align:start;writing-mode:lr-tb;text-anchor:start;stroke-width:0.84991527"
           y="281.67761"
           x="24.167892"
           id="tspan2106"
           sodipodi:role="line">w</tspan></text>
    </g>
    <g
       id="g2197">
      <path
         style="fill:currentColor;stroke-width:0.1039443"
         inkscape:connector-curvature="0"
         d="M 122.17304,243.63373 H 78.932197 c -2.754524,0 -4.989327,2.23481 -4.989327,4.98933 v 36.58839 c 0,2.75453 2.234803,4.98933 4.989327,4.98933 h 43.240843 c 2.75452,0 4.98933,-2.2348 4.98933,-4.98933 v -36.58839 c 0,-2.75452 -2.23481,-4.98933 -4.98933,-4.98933 z m 0,40.95406 c 0,0.34301 -0.28065,0.62366 -0.62366,0.62366 H 79.555863 c -0.343017,0 -0.623666,-0.28065 -0.623666,-0.62366 v -24.32297 h 43.240843 z"
         id="path2104" />
      <text
         id="text2192"
         y="279.76672"
         x="81.809052"
         style="font-style:normal;font-weight:normal;font-size:18.95323944px;line-height:1.25;font-family:sans-serif;letter-spacing:0px;word-spacing:0px;fill:#000000;fill-opacity:1;stroke:none;stroke-width:0.47383097"
         xml:space="preserve"><tspan
           style="font-style:normal;font-variant:normal;font-weight:normal;font-stretch:normal;font-size:18.95323944px;font-family:'Helvetica Neue';-inkscape-font-specification:'Helvetica Neue, Normal';font-variant-ligatures:normal;font-variant-caps:normal;font-variant-numeric:normal;font-feature-settings:normal;text-align:start;writing-mode:lr-tb;text-anchor:start;stroke-width:0.47383097"
           y="279.76672"
           x="81.809052"
           id="tspan2190"
           sodipodi:role="line">SSH</tspan></text>
    </g>
  </g>
</svg>
