<?xml version="1.0" encoding="UTF-8" standalone="no"?>
<!-- Created with Inkscape (http://www.inkscape.org/) -->

<svg
   xmlns:dc="http://purl.org/dc/elements/1.1/"
   xmlns:cc="http://creativecommons.org/ns#"
   xmlns:rdf="http://www.w3.org/1999/02/22-rdf-syntax-ns#"
   xmlns:svg="http://www.w3.org/2000/svg"
   xmlns="http://www.w3.org/2000/svg"
   xmlns:sodipodi="http://sodipodi.sourceforge.net/DTD/sodipodi-0.dtd"
   xmlns:inkscape="http://www.inkscape.org/namespaces/inkscape"
   width="207.10225mm"
   height="94.961578mm"
   viewBox="0 0 207.10224 94.961568"
   version="1.1"
   id="svg847"
   inkscape:version="0.92.2 5c3e80d, 2017-08-06"
   sodipodi:docname="ipv6.svg"
   inkscape:export-filename="/Users/vandaele/Documents/fun/senslab/www-iotlab/schemas/Images/ipv6.png"
   inkscape:export-xdpi="180"
   inkscape:export-ydpi="180">
  <defs
     id="defs841">
    <inkscape:path-effect
       effect="bspline"
       id="path-effect1077"
       is_visible="true"
       weight="33.333333"
       steps="2"
       helper_size="0"
       apply_no_weight="true"
       apply_with_weight="true"
       only_selected="false" />
    <inkscape:path-effect
       only_selected="false"
       apply_with_weight="true"
       apply_no_weight="true"
       helper_size="0"
       steps="2"
       weight="33.333333"
       is_visible="true"
       id="path-effect1051"
       effect="bspline" />
    <inkscape:path-effect
       only_selected="false"
       apply_with_weight="true"
       apply_no_weight="true"
       helper_size="0"
       steps="2"
       weight="33.333333"
       is_visible="true"
       id="path-effect1859"
       effect="bspline" />
    <inkscape:path-effect
       only_selected="false"
       apply_with_weight="true"
       apply_no_weight="true"
       helper_size="0"
       steps="2"
       weight="33.333333"
       is_visible="true"
       id="path-effect1431"
       effect="bspline" />
    <inkscape:path-effect
       effect="bspline"
       id="path-effect1427"
       is_visible="true"
       weight="33.333333"
       steps="2"
       helper_size="0"
       apply_no_weight="true"
       apply_with_weight="true"
       only_selected="false" />
    <inkscape:path-effect
       only_selected="false"
       apply_with_weight="true"
       apply_no_weight="true"
       helper_size="0"
       steps="2"
       weight="33.333333"
       is_visible="true"
       id="path-effect1423"
       effect="bspline" />
    <inkscape:path-effect
       effect="bspline"
       id="path-effect1419"
       is_visible="true"
       weight="33.333333"
       steps="2"
       helper_size="0"
       apply_no_weight="true"
       apply_with_weight="true"
       only_selected="false" />
    <inkscape:path-effect
       effect="bspline"
       id="path-effect1415"
       is_visible="true"
       weight="33.333333"
       steps="2"
       helper_size="0"
       apply_no_weight="true"
       apply_with_weight="true"
       only_selected="false" />
    <inkscape:path-effect
       only_selected="false"
       apply_with_weight="true"
       apply_no_weight="true"
       helper_size="0"
       steps="2"
       weight="33.333333"
       is_visible="true"
       id="path-effect1411"
       effect="bspline" />
    <inkscape:path-effect
       effect="bspline"
       id="path-effect1407"
       is_visible="true"
       weight="33.333333"
       steps="2"
       helper_size="0"
       apply_no_weight="true"
       apply_with_weight="true"
       only_selected="false" />
    <inkscape:path-effect
       only_selected="false"
       apply_with_weight="true"
       apply_no_weight="true"
       helper_size="0"
       steps="2"
       weight="33.333333"
       is_visible="true"
       id="path-effect1403"
       effect="bspline" />
    <inkscape:path-effect
       effect="bspline"
       id="path-effect1399"
       is_visible="true"
       weight="33.333333"
       steps="2"
       helper_size="0"
       apply_no_weight="true"
       apply_with_weight="true"
       only_selected="false" />
    <inkscape:path-effect
       only_selected="false"
       apply_with_weight="true"
       apply_no_weight="true"
       helper_size="0"
       steps="2"
       weight="33.333333"
       is_visible="true"
       id="path-effect1395"
       effect="bspline" />
    <inkscape:path-effect
       effect="bspline"
       id="path-effect1391"
       is_visible="true"
       weight="33.333333"
       steps="2"
       helper_size="0"
       apply_no_weight="true"
       apply_with_weight="true"
       only_selected="false" />
    <marker
       inkscape:isstock="true"
       style="overflow:visible"
       id="marker3396"
       refX="0"
       refY="0"
       orient="auto"
       inkscape:stockid="Arrow2Mend">
      <path
         transform="scale(-0.6)"
         d="M 8.7185878,4.0337352 -2.2072895,0.01601326 8.7185884,-4.0017078 c -1.7454984,2.3720609 -1.7354408,5.6174519 -6e-7,8.035443 z"
         style="fill:#808080;fill-opacity:1;fill-rule:evenodd;stroke:#808080;stroke-width:0.625;stroke-linejoin:round;stroke-opacity:1"
         id="path3394"
         inkscape:connector-curvature="0" />
    </marker>
    <inkscape:path-effect
       only_selected="false"
       apply_with_weight="true"
       apply_no_weight="true"
       helper_size="0"
       steps="2"
       weight="33.333333"
       is_visible="true"
       id="path-effect3392"
       effect="bspline" />
    <inkscape:path-effect
       effect="bspline"
       id="path-effect3276"
       is_visible="true"
       weight="33.333333"
       steps="2"
       helper_size="0"
       apply_no_weight="true"
       apply_with_weight="true"
       only_selected="false" />
    <marker
       inkscape:stockid="Arrow2Mend"
       orient="auto"
       refY="0"
       refX="0"
       id="marker3092"
       style="overflow:visible"
       inkscape:isstock="true">
      <path
         inkscape:connector-curvature="0"
         id="path3090"
         style="fill:#808080;fill-opacity:1;fill-rule:evenodd;stroke:#808080;stroke-width:0.625;stroke-linejoin:round;stroke-opacity:1"
         d="M 8.7185878,4.0337352 -2.2072895,0.01601326 8.7185884,-4.0017078 c -1.7454984,2.3720609 -1.7354408,5.6174519 -6e-7,8.035443 z"
         transform="scale(-0.6)" />
    </marker>
    <inkscape:path-effect
       effect="bspline"
       id="path-effect3088"
       is_visible="true"
       weight="33.333333"
       steps="2"
       helper_size="0"
       apply_no_weight="true"
       apply_with_weight="true"
       only_selected="false" />
    <marker
       inkscape:isstock="true"
       style="overflow:visible"
       id="marker2588"
       refX="0"
       refY="0"
       orient="auto"
       inkscape:stockid="Arrow2Mend">
      <path
         transform="scale(-0.6)"
         d="M 8.7185878,4.0337352 -2.2072895,0.01601326 8.7185884,-4.0017078 c -1.7454984,2.3720609 -1.7354408,5.6174519 -6e-7,8.035443 z"
         style="fill:#808080;fill-opacity:1;fill-rule:evenodd;stroke:#808080;stroke-width:0.625;stroke-linejoin:round;stroke-opacity:1"
         id="path2586"
         inkscape:connector-curvature="0" />
    </marker>
    <inkscape:path-effect
       only_selected="false"
       apply_with_weight="true"
       apply_no_weight="true"
       helper_size="0"
       steps="2"
       weight="33.333333"
       is_visible="true"
       id="path-effect2584"
       effect="bspline" />
    <inkscape:path-effect
       effect="bspline"
       id="path-effect2480"
       is_visible="true"
       weight="33.333333"
       steps="2"
       helper_size="0"
       apply_no_weight="true"
       apply_with_weight="true"
       only_selected="false" />
    <marker
       inkscape:stockid="Arrow2Mend"
       orient="auto"
       refY="0"
       refX="0"
       id="marker2296"
       style="overflow:visible"
       inkscape:isstock="true">
      <path
         inkscape:connector-curvature="0"
         id="path2294"
         style="fill:#808080;fill-opacity:1;fill-rule:evenodd;stroke:#808080;stroke-width:0.625;stroke-linejoin:round;stroke-opacity:1"
         d="M 8.7185878,4.0337352 -2.2072895,0.01601326 8.7185884,-4.0017078 c -1.7454984,2.3720609 -1.7354408,5.6174519 -6e-7,8.035443 z"
         transform="scale(-0.6)" />
    </marker>
    <inkscape:path-effect
       effect="bspline"
       id="path-effect2292"
       is_visible="true"
       weight="33.333333"
       steps="2"
       helper_size="0"
       apply_no_weight="true"
       apply_with_weight="true"
       only_selected="false" />
    <marker
       inkscape:stockid="Arrow2Mend"
       orient="auto"
       refY="0"
       refX="0"
       id="marker1504"
       style="overflow:visible"
       inkscape:isstock="true">
      <path
         inkscape:connector-curvature="0"
         id="path1502"
         style="fill:#808080;fill-opacity:1;fill-rule:evenodd;stroke:#808080;stroke-width:0.625;stroke-linejoin:round;stroke-opacity:1"
         d="M 8.7185878,4.0337352 -2.2072895,0.01601326 8.7185884,-4.0017078 c -1.7454984,2.3720609 -1.7354408,5.6174519 -6e-7,8.035443 z"
         transform="scale(-0.6)" />
    </marker>
    <inkscape:path-effect
       effect="bspline"
       id="path-effect1500"
       is_visible="true"
       weight="33.333333"
       steps="2"
       helper_size="0"
       apply_no_weight="true"
       apply_with_weight="true"
       only_selected="false" />
    <inkscape:path-effect
       only_selected="false"
       apply_with_weight="true"
       apply_no_weight="true"
       helper_size="0"
       steps="2"
       weight="33.333333"
       is_visible="true"
       id="path-effect1180"
       effect="bspline" />
    <inkscape:path-effect
       effect="bspline"
       id="path-effect908"
       is_visible="true"
       weight="33.333333"
       steps="2"
       helper_size="0"
       apply_no_weight="true"
       apply_with_weight="true"
       only_selected="false" />
    <inkscape:path-effect
       only_selected="false"
       apply_with_weight="true"
       apply_no_weight="true"
       helper_size="0"
       steps="2"
       weight="33.333333"
       is_visible="true"
       id="path-effect987"
       effect="bspline" />
    <inkscape:path-effect
       effect="bspline"
       id="path-effect947"
       is_visible="true"
       weight="33.333333"
       steps="2"
       helper_size="0"
       apply_no_weight="true"
       apply_with_weight="true"
       only_selected="false" />
    <inkscape:path-effect
       effect="bspline"
       id="path-effect1058"
       is_visible="true"
       weight="33.333333"
       steps="2"
       helper_size="0"
       apply_no_weight="true"
       apply_with_weight="true"
       only_selected="false" />
    <inkscape:path-effect
       only_selected="false"
       apply_with_weight="true"
       apply_no_weight="true"
       helper_size="0"
       steps="2"
       weight="33.333333"
       is_visible="true"
       id="path-effect1054"
       effect="bspline" />
    <inkscape:path-effect
       effect="bspline"
       id="path-effect1050"
       is_visible="true"
       weight="33.333333"
       steps="2"
       helper_size="0"
       apply_no_weight="true"
       apply_with_weight="true"
       only_selected="false" />
    <inkscape:path-effect
       effect="bspline"
       id="path-effect942"
       is_visible="true"
       weight="33.333333"
       steps="2"
       helper_size="0"
       apply_no_weight="true"
       apply_with_weight="true"
       only_selected="false" />
    <marker
       inkscape:stockid="Arrow2Lend"
       orient="auto"
       refY="0"
       refX="0"
       id="marker2657"
       style="overflow:visible"
       inkscape:isstock="true">
      <path
         id="path2655"
         style="fill:#000000;fill-opacity:1;fill-rule:evenodd;stroke:#000000;stroke-width:0.625;stroke-linejoin:round;stroke-opacity:1"
         d="M 8.7185878,4.0337352 -2.2072895,0.01601326 8.7185884,-4.0017078 c -1.7454984,2.3720609 -1.7354408,5.6174519 -6e-7,8.035443 z"
         transform="matrix(-1.1,0,0,-1.1,-1.1,0)"
         inkscape:connector-curvature="0" />
    </marker>
    <marker
       inkscape:stockid="Arrow2Lend"
       orient="auto"
       refY="0"
       refX="0"
       id="Arrow2Lend"
       style="overflow:visible"
       inkscape:isstock="true">
      <path
         id="path2406"
         style="fill:#000000;fill-opacity:1;fill-rule:evenodd;stroke:#000000;stroke-width:0.625;stroke-linejoin:round;stroke-opacity:1"
         d="M 8.7185878,4.0337352 -2.2072895,0.01601326 8.7185884,-4.0017078 c -1.7454984,2.3720609 -1.7354408,5.6174519 -6e-7,8.035443 z"
         transform="matrix(-1.1,0,0,-1.1,-1.1,0)"
         inkscape:connector-curvature="0" />
    </marker>
    <marker
       inkscape:stockid="EmptyTriangleOutL"
       orient="auto"
       refY="0"
       refX="0"
       id="EmptyTriangleOutL"
       style="overflow:visible"
       inkscape:isstock="true">
      <path
         id="path2545"
         d="M 5.77,0 -2.88,5 V -5 Z"
         style="fill:#ffffff;fill-rule:evenodd;stroke:#000000;stroke-width:1.00000003pt;stroke-opacity:1"
         transform="matrix(0.8,0,0,0.8,-4.8,0)"
         inkscape:connector-curvature="0" />
    </marker>
    <marker
       inkscape:stockid="TriangleOutL"
       orient="auto"
       refY="0"
       refX="0"
       id="TriangleOutL"
       style="overflow:visible"
       inkscape:isstock="true">
      <path
         id="path2527"
         d="M 5.77,0 -2.88,5 V -5 Z"
         style="fill:#000000;fill-opacity:1;fill-rule:evenodd;stroke:#000000;stroke-width:1.00000003pt;stroke-opacity:1"
         transform="scale(0.8)"
         inkscape:connector-curvature="0" />
    </marker>
    <inkscape:path-effect
       effect="bspline"
       id="path-effect2383"
       is_visible="true"
       weight="33.333333"
       steps="2"
       helper_size="0"
       apply_no_weight="true"
       apply_with_weight="true"
       only_selected="false" />
    <inkscape:path-effect
       only_selected="false"
       apply_with_weight="true"
       apply_no_weight="true"
       helper_size="0"
       steps="2"
       weight="33.333333"
       is_visible="true"
       id="path-effect2379"
       effect="bspline" />
    <inkscape:path-effect
       effect="bspline"
       id="path-effect2365"
       is_visible="true"
       weight="33.333333"
       steps="2"
       helper_size="0"
       apply_no_weight="true"
       apply_with_weight="true"
       only_selected="false" />
    <inkscape:path-effect
       effect="bspline"
       id="path-effect2361"
       is_visible="true"
       weight="33.333333"
       steps="2"
       helper_size="0"
       apply_no_weight="true"
       apply_with_weight="true"
       only_selected="false" />
    <inkscape:path-effect
       effect="bspline"
       id="path-effect2357"
       is_visible="true"
       weight="33.333333"
       steps="2"
       helper_size="0"
       apply_no_weight="true"
       apply_with_weight="true"
       only_selected="false" />
    <inkscape:path-effect
       effect="bspline"
       id="path-effect2353"
       is_visible="true"
       weight="33.333333"
       steps="2"
       helper_size="0"
       apply_no_weight="true"
       apply_with_weight="true"
       only_selected="false" />
    <inkscape:path-effect
       effect="bspline"
       id="path-effect2349"
       is_visible="true"
       weight="33.333333"
       steps="2"
       helper_size="0"
       apply_no_weight="true"
       apply_with_weight="true"
       only_selected="false" />
    <inkscape:path-effect
       effect="bspline"
       id="path-effect2324"
       is_visible="true"
       weight="33.333333"
       steps="2"
       helper_size="0"
       apply_no_weight="true"
       apply_with_weight="true"
       only_selected="false" />
    <inkscape:path-effect
       effect="bspline"
       id="path-effect2320"
       is_visible="true"
       weight="33.333333"
       steps="2"
       helper_size="0"
       apply_no_weight="true"
       apply_with_weight="true"
       only_selected="false" />
    <inkscape:path-effect
       effect="bspline"
       id="path-effect2316"
       is_visible="true"
       weight="33.333333"
       steps="2"
       helper_size="0"
       apply_no_weight="true"
       apply_with_weight="true"
       only_selected="false" />
    <inkscape:path-effect
       only_selected="false"
       apply_with_weight="true"
       apply_no_weight="true"
       helper_size="0"
       steps="2"
       weight="33.333333"
       is_visible="true"
       id="path-effect2312"
       effect="bspline" />
    <inkscape:path-effect
       only_selected="false"
       apply_with_weight="true"
       apply_no_weight="true"
       helper_size="0"
       steps="2"
       weight="33.333333"
       is_visible="true"
       id="path-effect2304"
       effect="bspline" />
    <inkscape:path-effect
       effect="bspline"
       id="path-effect2258"
       is_visible="true"
       weight="33.333333"
       steps="2"
       helper_size="0"
       apply_no_weight="true"
       apply_with_weight="true"
       only_selected="false" />
    <inkscape:path-effect
       effect="bspline"
       id="path-effect2242"
       is_visible="true"
       weight="33.333333"
       steps="2"
       helper_size="0"
       apply_no_weight="true"
       apply_with_weight="true"
       only_selected="false" />
    <inkscape:path-effect
       effect="bspline"
       id="path-effect2238"
       is_visible="true"
       weight="33.333333"
       steps="2"
       helper_size="0"
       apply_no_weight="true"
       apply_with_weight="true"
       only_selected="false" />
    <inkscape:path-effect
       effect="bspline"
       id="path-effect4800"
       is_visible="true"
       weight="30"
       steps="1"
       helper_size="5"
       apply_no_weight="false"
       apply_with_weight="false"
       only_selected="false" />
    <inkscape:path-effect
       effect="bspline"
       id="path-effect4798"
       is_visible="true"
       weight="33.333333"
       steps="1"
       helper_size="0"
       apply_no_weight="true"
       apply_with_weight="true"
       only_selected="false" />
    <inkscape:path-effect
       effect="bend_path"
       id="path-effect1107"
       is_visible="true"
       bendpath="m 168.78505,157.52766 h 90.83734"
       prop_scale="1"
       scale_y_rel="false"
       vertical="false" />
    <inkscape:path-effect
       effect="bspline"
       id="path-effect1105"
       is_visible="true"
       weight="33.333333"
       steps="2"
       helper_size="0"
       apply_no_weight="true"
       apply_with_weight="true"
       only_selected="false" />
    <inkscape:path-effect
       effect="bspline"
       id="path-effect2383-0"
       is_visible="true"
       weight="33.333333"
       steps="2"
       helper_size="0"
       apply_no_weight="true"
       apply_with_weight="true"
       only_selected="false" />
    <inkscape:path-effect
       only_selected="false"
       apply_with_weight="true"
       apply_no_weight="true"
       helper_size="0"
       steps="2"
       weight="33.333333"
       is_visible="true"
       id="path-effect2379-1"
       effect="bspline" />
    <inkscape:path-effect
       effect="bspline"
       id="path-effect2365-9"
       is_visible="true"
       weight="33.333333"
       steps="2"
       helper_size="0"
       apply_no_weight="true"
       apply_with_weight="true"
       only_selected="false" />
    <inkscape:path-effect
       effect="bspline"
       id="path-effect2357-8"
       is_visible="true"
       weight="33.333333"
       steps="2"
       helper_size="0"
       apply_no_weight="true"
       apply_with_weight="true"
       only_selected="false" />
    <inkscape:path-effect
       effect="bspline"
       id="path-effect2353-6"
       is_visible="true"
       weight="33.333333"
       steps="2"
       helper_size="0"
       apply_no_weight="true"
       apply_with_weight="true"
       only_selected="false" />
    <inkscape:path-effect
       effect="bspline"
       id="path-effect2349-9"
       is_visible="true"
       weight="33.333333"
       steps="2"
       helper_size="0"
       apply_no_weight="true"
       apply_with_weight="true"
       only_selected="false" />
    <inkscape:path-effect
       effect="bspline"
       id="path-effect1058-3"
       is_visible="true"
       weight="33.333333"
       steps="2"
       helper_size="0"
       apply_no_weight="true"
       apply_with_weight="true"
       only_selected="false" />
    <inkscape:path-effect
       effect="bspline"
       id="path-effect947-5"
       is_visible="true"
       weight="33.333333"
       steps="2"
       helper_size="0"
       apply_no_weight="true"
       apply_with_weight="true"
       only_selected="false" />
    <inkscape:path-effect
       only_selected="false"
       apply_with_weight="true"
       apply_no_weight="true"
       helper_size="0"
       steps="2"
       weight="33.333333"
       is_visible="true"
       id="path-effect987-5"
       effect="bspline" />
    <marker
       inkscape:isstock="true"
       style="overflow:visible"
       id="marker2663"
       refX="0"
       refY="0"
       orient="auto"
       inkscape:stockid="Arrow2Mend"
       inkscape:collect="always">
      <path
         transform="scale(-0.6)"
         d="M 8.7185878,4.0337352 -2.2072895,0.01601326 8.7185884,-4.0017078 c -1.7454984,2.3720609 -1.7354408,5.6174519 -6e-7,8.035443 z"
         style="fill:#808080;fill-opacity:1;fill-rule:evenodd;stroke:#808080;stroke-width:0.625;stroke-linejoin:round;stroke-opacity:1"
         id="path2661"
         inkscape:connector-curvature="0" />
    </marker>
    <inkscape:path-effect
       only_selected="false"
       apply_with_weight="true"
       apply_no_weight="true"
       helper_size="0"
       steps="2"
       weight="33.333333"
       is_visible="true"
       id="path-effect2304-7"
       effect="bspline" />
    <marker
       inkscape:isstock="true"
       style="overflow:visible"
       id="marker2663-9"
       refX="0"
       refY="0"
       orient="auto"
       inkscape:stockid="Arrow2Mend">
      <path
         transform="scale(-0.6)"
         d="M 8.7185878,4.0337352 -2.2072895,0.01601326 8.7185884,-4.0017078 c -1.7454984,2.3720609 -1.7354408,5.6174519 -6e-7,8.035443 z"
         style="fill:#808080;fill-opacity:1;fill-rule:evenodd;stroke:#808080;stroke-width:0.625;stroke-linejoin:round;stroke-opacity:1"
         id="path2661-3"
         inkscape:connector-curvature="0" />
    </marker>
    <inkscape:path-effect
       only_selected="false"
       apply_with_weight="true"
       apply_no_weight="true"
       helper_size="0"
       steps="2"
       weight="33.333333"
       is_visible="true"
       id="path-effect2304-8"
       effect="bspline" />
  </defs>
  <sodipodi:namedview
     id="base"
     pagecolor="#ffffff"
     bordercolor="#666666"
     borderopacity="1.0"
     inkscape:pageopacity="0.0"
     inkscape:pageshadow="2"
     inkscape:zoom="1.1191332"
     inkscape:cx="391.37433"
     inkscape:cy="179.45496"
     inkscape:document-units="mm"
     inkscape:current-layer="layer1"
     showgrid="false"
     inkscape:window-width="1438"
     inkscape:window-height="855"
     inkscape:window-x="0"
     inkscape:window-y="0"
     inkscape:window-maximized="0"
     showguides="false"
     fit-margin-top="10"
     fit-margin-left="10"
     fit-margin-right="10"
     fit-margin-bottom="10"
     inkscape:object-nodes="false"
     inkscape:snap-grids="true">
    <inkscape:grid
       type="xygrid"
       id="grid1533"
       originx="-27.482528"
       originy="-22.126143" />
  </sodipodi:namedview>
  <metadata
     id="metadata844">
    <rdf:RDF>
      <cc:Work
         rdf:about="">
        <dc:format>image/svg+xml</dc:format>
        <dc:type
           rdf:resource="http://purl.org/dc/dcmitype/StillImage" />
        <dc:title></dc:title>
      </cc:Work>
    </rdf:RDF>
  </metadata>
  <g
     inkscape:groupmode="layer"
     id="layer3"
     inkscape:label="texte 1"
     style="display:inline;opacity:0.4">
    <path
       style="display:inline;fill:none;stroke:#b3b3b3;stroke-width:0.26499999;stroke-linecap:butt;stroke-linejoin:miter;stroke-miterlimit:4;stroke-dasharray:none;stroke-opacity:1"
       d="m 196.57306,59.321837 c 0,0 -65.93541,-2e-4 -65.93541,-2e-4 0,0 -17.31957,19.30047 -17.31957,19.30047"
       id="path1056"
       inkscape:connector-curvature="0"
       inkscape:path-effect="#path-effect1058-3"
       inkscape:original-d="m 196.57306,59.321837 -65.93541,-2e-4 -17.31957,19.30047"
       sodipodi:nodetypes="ccc" />
    <text
       id="text1238"
       y="57.254372"
       x="136.12306"
       style="font-style:normal;font-variant:normal;font-weight:normal;font-stretch:normal;font-size:7.05555534px;line-height:1.25;font-family:'Helvetica Neue';-inkscape-font-specification:'Helvetica Neue, Normal';font-variant-ligatures:normal;font-variant-caps:normal;font-variant-numeric:normal;font-feature-settings:normal;text-align:start;letter-spacing:0px;word-spacing:0px;writing-mode:lr-tb;text-anchor:start;display:inline;fill:#b3b3b3;fill-opacity:1;stroke:none;stroke-width:0.26458332"
       xml:space="preserve"><tspan
         style="stroke-width:0.26458332"
         sodipodi:role="line"
         id="tspan1240"
         x="136.12306"
         y="57.254372">BORDER ROUTER</tspan></text>
    <text
       xml:space="preserve"
       style="font-style:normal;font-variant:normal;font-weight:normal;font-stretch:normal;font-size:7.05555534px;line-height:1.25;font-family:'Helvetica Neue';-inkscape-font-specification:'Helvetica Neue, Normal';font-variant-ligatures:normal;font-variant-caps:normal;font-variant-numeric:normal;font-feature-settings:normal;text-align:start;letter-spacing:0px;word-spacing:0px;writing-mode:lr-tb;text-anchor:start;display:inline;fill:#808080;fill-opacity:1;stroke:none;stroke-width:0.26458332"
       x="135.15633"
       y="66.48629"
       id="text920"><tspan
         id="tspan918"
         y="66.48629"
         x="135.15633"
         sodipodi:role="line"
         style="font-style:normal;font-variant:normal;font-weight:normal;font-stretch:normal;font-size:4.93888903px;font-family:Monaco;-inkscape-font-specification:'Monaco, Normal';font-variant-ligatures:normal;font-variant-caps:normal;font-variant-numeric:normal;font-feature-settings:normal;text-align:start;writing-mode:lr-tb;text-anchor:start;fill:#808080;stroke-width:0.26458332">2001:660:5307:3100::1</tspan></text>
    <path
       sodipodi:nodetypes="ccc"
       inkscape:original-d="m 197.10223,39.74267 -65.93541,-2e-4 h -9.91124"
       inkscape:path-effect="#path-effect1051"
       inkscape:connector-curvature="0"
       id="path1048"
       d="m 197.10223,39.74267 c 0,0 -65.93541,-2e-4 -65.93541,-2e-4 0,0 -9.91124,0 -9.91124,0"
       style="display:inline;fill:none;stroke:#b3b3b3;stroke-width:0.26499999;stroke-linecap:butt;stroke-linejoin:miter;stroke-miterlimit:4;stroke-dasharray:none;stroke-opacity:1" />
    <text
       xml:space="preserve"
       style="font-style:normal;font-variant:normal;font-weight:normal;font-stretch:normal;font-size:7.05555534px;line-height:1.25;font-family:'Helvetica Neue';-inkscape-font-specification:'Helvetica Neue, Normal';font-variant-ligatures:normal;font-variant-caps:normal;font-variant-numeric:normal;font-feature-settings:normal;text-align:start;letter-spacing:0px;word-spacing:0px;writing-mode:lr-tb;text-anchor:start;display:inline;fill:#b3b3b3;fill-opacity:1;stroke:none;stroke-width:0.26458332"
       x="140.52121"
       y="37.675198"
       id="text1055"><tspan
         y="37.675198"
         x="140.52121"
         id="tspan1053"
         sodipodi:role="line"
         style="fill:#b3b3b3;stroke-width:0.26458332">IPv6 over SERIAL</tspan></text>
  </g>
  <g
     inkscape:label="Calque 1"
     inkscape:groupmode="layer"
     id="layer1"
     transform="translate(-27.48254,-179.91227)"
     style="display:inline">
    <path
       id="path998"
       d="m 59.090314,210.85858 c -1.977496,0 -2.928349,1.10244 -6.17365,1.10244 -3.245299,0 -4.189261,-1.10244 -6.173648,-1.10244 -5.112555,0 -9.260476,4.14792 -9.260476,9.26048 v 1.7639 c 0,1.82591 1.4814,3.30731 3.307312,3.30731 h 24.253621 c 1.82592,0 3.30732,-1.4814 3.30732,-3.30731 v -1.7639 c 0,-5.11256 -4.14792,-9.26048 -9.260479,-9.26048 z m 5.953159,11.02438 H 40.789852 v -1.7639 c 0,-3.27975 2.673411,-5.95317 5.953164,-5.95317 1.005972,0 2.638959,1.10244 6.173648,1.10244 3.562251,0 5.160787,-1.10244 6.17365,-1.10244 3.279749,0 5.953159,2.67342 5.953159,5.95317 z M 52.916664,209.75614 c 5.477737,0 9.921939,-4.4442 9.921939,-9.92193 0,-5.47774 -4.444202,-9.92194 -9.921939,-9.92194 -5.477735,0 -9.921937,4.4442 -9.921937,9.92194 0,5.47773 4.444202,9.92193 9.921937,9.92193 z m 0,-16.53656 c 3.644934,0 6.614629,2.96969 6.614629,6.61463 0,3.64493 -2.969695,6.61462 -6.614629,6.61462 -3.644932,0 -6.614625,-2.96969 -6.614625,-6.61462 0,-3.64494 2.969693,-6.61463 6.614625,-6.61463 z"
       inkscape:connector-curvature="0"
       style="fill:currentColor;stroke-width:0.06890234" />
    <path
       id="path1040"
       d="m 137.85,252.75582 c -0.057,0 -0.10324,0.0469 -0.10324,0.1039 v 0.30985 h -0.10325 c -0.057,0 -0.10318,0.0468 -0.10318,0.1041 v 0.72287 h 0.82612 v -0.72287 c 0,-0.058 -0.0462,-0.1041 -0.10324,-0.1041 h -0.10319 v -0.30994 c 0,-0.058 -0.0462,-0.1035 -0.10323,-0.1035 z m 1.6523,0 c -0.057,0 -0.10324,0.0469 -0.10324,0.1039 v 0.30985 h -0.10323 c -0.057,0 -0.10319,0.0468 -0.10319,0.1041 v 0.72287 h 0.82612 v -0.72287 c 0,-0.058 -0.0462,-0.1041 -0.10324,-0.1041 h -0.10318 v -0.30994 c 0,-0.058 -0.0462,-0.1035 -0.10324,-0.1035 z m 1.65223,0 c -0.057,0 -0.10318,0.0469 -0.10318,0.1039 v 0.30985 h -0.10324 c -0.057,0 -0.10324,0.0468 -0.10324,0.1041 v 0.72287 h 0.82618 v -0.72287 c 0,-0.058 -0.0462,-0.1041 -0.10323,-0.1041 h -0.10324 v -0.30994 c 0,-0.058 -0.0462,-0.1035 -0.10317,-0.1035 z m 1.6523,0 c -0.057,0 -0.10318,0.0469 -0.10318,0.1039 v 0.30985 h -0.10324 c -0.057,0 -0.10324,0.0468 -0.10324,0.1041 v 0.72287 h 0.82619 v -0.72287 c 0,-0.058 -0.0462,-0.1041 -0.10324,-0.1041 h -0.10324 v -0.30994 c 0,-0.058 -0.0461,-0.1035 -0.10318,-0.1035 z m -5.95427,1.65146 c -0.45627,0 -0.82619,0.36988 -0.82619,0.82608 v 7.16003 c 0,0.45627 0.36992,0.82615 0.82619,0.82615 h 7.1583 c 0.45627,0 0.82611,-0.36988 0.82611,-0.82615 v -7.16003 c 0,-0.4562 -0.36984,-0.82608 -0.82611,-0.82608 z m -1.96211,1.51461 c -0.057,0 -0.10323,0.0469 -0.10323,0.10446 v 0.1039 h -0.30981 c -0.057,0 -0.10324,0.0469 -0.10324,0.10388 v 0.20658 c 0,0.058 0.0462,0.10389 0.10324,0.10389 h 0.30981 v 0.10446 c 0,0.058 0.0462,0.1042 0.10323,0.1042 h 0.7229 v -0.82618 z m 10.35962,0 v 0.82623 h 0.7229 c 0.057,0 0.10318,-0.0469 0.10318,-0.1044 v -0.10446 h 0.30981 c 0.057,0 0.10323,-0.0468 0.10323,-0.10446 v -0.20661 c 0,-0.058 -0.0462,-0.1042 -0.10323,-0.1042 h -0.30981 v -0.10418 c 0,-0.058 -0.0461,-0.1042 -0.10318,-0.1042 z m -10.35962,1.65348 c -0.057,0 -0.10323,0.0469 -0.10323,0.10456 v 0.10447 h -0.30981 c -0.057,0 -0.10324,0.0469 -0.10324,0.10449 v 0.20647 c 0,0.058 0.0462,0.1039 0.10324,0.1039 h 0.30981 v 0.10387 c 0,0.058 0.0462,0.10398 0.10323,0.10398 h 0.7229 v -0.82637 z m 10.35962,0 v 0.82614 h 0.7229 c 0.057,0 0.10318,-0.0468 0.10318,-0.10368 v -0.10436 h 0.30981 c 0.057,0 0.10323,-0.0469 0.10323,-0.10389 v -0.20652 c 0,-0.058 -0.0462,-0.10399 -0.10323,-0.10399 h -0.30981 v -0.10369 c 0,-0.058 -0.0462,-0.10436 -0.10318,-0.10436 z m -10.35962,1.65231 c -0.057,0 -0.10323,0.0469 -0.10323,0.10446 v 0.10368 h -0.30981 c -0.057,0 -0.10324,0.0469 -0.10324,0.1043 v 0.20625 c 0,0.058 0.0462,0.1043 0.10324,0.1043 h 0.30981 v 0.1041 c 0,0.058 0.0462,0.1041 0.10323,0.1041 h 0.7229 v -0.82611 z m 10.35962,0 v 0.8261 h 0.7229 c 0.057,0 0.10318,-0.0468 0.10318,-0.10399 v -0.1041 h 0.30981 c 0.057,0 0.10323,-0.0469 0.10323,-0.10467 v -0.20654 c 0,-0.058 -0.0462,-0.10446 -0.10323,-0.10446 h -0.30981 v -0.10347 c 0,-0.058 -0.0461,-0.1042 -0.10318,-0.1042 z m -10.35962,1.65227 c -0.057,0 -0.10323,0.0468 -0.10323,0.1043 v 0.10446 h -0.30981 c -0.057,0 -0.10324,0.0469 -0.10324,0.1041 v 0.20657 c 0,0.058 0.0462,0.10466 0.10324,0.10466 h 0.30981 v 0.10456 c 0,0.058 0.0462,0.10431 0.10323,0.10431 h 0.7229 v -0.82625 z m 10.35962,0 v 0.82613 h 0.7229 c 0.057,0 0.10318,-0.0468 0.10318,-0.1043 v -0.10449 h 0.30981 c 0.057,0 0.10323,-0.0469 0.10323,-0.10437 v -0.20647 c 0,-0.058 -0.0462,-0.10446 -0.10323,-0.10446 h -0.30981 v -0.1043 c 0,-0.058 -0.0461,-0.10399 -0.10318,-0.10399 z m -7.70987,2.75298 v 0.72287 c 0,0.058 0.0461,0.10431 0.10318,0.10431 h 0.10324 v 0.30984 c 0,0.058 0.0462,0.1039 0.10324,0.1039 h 0.20651 c 0.057,0 0.10324,-0.0469 0.10324,-0.1039 v -0.30984 h 0.10319 c 0.057,0 0.10324,-0.0469 0.10324,-0.10431 v -0.72287 z m 1.6523,0 v 0.72287 c 0,0.058 0.0461,0.10431 0.10318,0.10431 h 0.10324 v 0.30984 c 0,0.058 0.0462,0.1039 0.10324,0.1039 h 0.20651 c 0.057,0 0.10324,-0.0469 0.10324,-0.1039 v -0.30984 h 0.10318 c 0.057,0 0.10324,-0.0469 0.10324,-0.10431 v -0.72287 z m 1.65223,0 v 0.72287 c 0,0.058 0.0462,0.10431 0.10324,0.10431 h 0.10324 v 0.30984 c 0,0.058 0.0461,0.1039 0.10318,0.1039 h 0.20658 c 0.057,0 0.10317,-0.0469 0.10317,-0.1039 v -0.30984 h 0.10324 c 0.057,0 0.10324,-0.0469 0.10324,-0.10431 v -0.72287 z m 1.6523,0 v 0.72287 c 0,0.058 0.0462,0.10431 0.10324,0.10431 h 0.10325 v 0.30984 c 0,0.058 0.0461,0.1039 0.10318,0.1039 h 0.20658 c 0.057,0 0.10319,-0.0469 0.10319,-0.1039 v -0.30984 h 0.10324 c 0.057,0 0.10323,-0.0469 0.10323,-0.10431 v -0.72287 z"
       style="display:inline;opacity:1;fill:currentColor;stroke-width:0.0172114"
       inkscape:connector-curvature="0"
       sodipodi:nodetypes="cscssccsscscccscssccsscscccscssccsscscccscssccsscsccssssssssscscsssscsscccccsscsssscscccscsssscsscccccsscsssscscccscsssscsscccccsscsssscscccscsssscsscccccsscsssscscccsscsssscsscccsscsssscsscccsscsssscsscccsscsssscsscc" />
    <path
       style="display:inline;fill:currentColor;stroke-width:0.26458332"
       d="m 139.51125,197.06316 c 0.68729,0 1.24024,0.55295 1.24024,1.24024 v 15.78766 h -2.48874 l -0.0176,-14.54743 -14.90813,0.0517 v 21.39352 h 5.81308 v -3.46232 c 0,-0.34106 0.27905,-0.62012 0.62012,-0.62012 h 1.23661 v 6.61459 h -11.77809 v -1.86036 c 0,-0.34105 0.27906,-0.62011 0.62012,-0.62011 h 1.00769 V 198.3034 c 0,-0.68729 0.55294,-1.24024 1.24023,-1.24024 z m -4.36666,4.96042 c 0.34106,0 0.62012,0.27906 0.62012,0.62012 v 2.06706 c 0,0.34106 -0.27906,0.62011 -0.62012,0.62011 h -2.06705 c -0.34107,0 -0.62012,-0.27905 -0.62012,-0.62011 v -2.06706 c 0,-0.34106 0.27905,-0.62012 0.62012,-0.62012 z m -6.61458,0 c 0.34106,0 0.62012,0.27906 0.62012,0.62012 v 2.06706 c 0,0.34106 -0.27906,0.62011 -0.62012,0.62011 h -2.06654 c -0.34106,0 -0.62012,-0.27905 -0.62012,-0.62011 v -2.06706 c 0,-0.34106 0.27906,-0.62012 0.62012,-0.62012 z m 6.61458,4.96094 c 0.34106,0 0.62012,0.27906 0.62012,0.62012 v 2.06705 c 0,0.34106 -0.27906,0.62012 -0.62012,0.62012 h -2.06705 c -0.34107,0 -0.62012,-0.27906 -0.62012,-0.62012 v -2.06705 c 0,-0.34106 0.27905,-0.62012 0.62012,-0.62012 z m -6.61458,0 c 0.34106,0 0.62012,0.27906 0.62012,0.62012 v 2.06705 c 0,0.34106 -0.27906,0.62012 -0.62012,0.62012 h -2.06654 c -0.34106,0 -0.62012,-0.27906 -0.62012,-0.62012 v -2.06705 c 0,-0.34106 0.27906,-0.62012 0.62012,-0.62012 z m 6.61458,4.96094 c 0.34106,0 0.62012,0.27905 0.62012,0.62011 v 1.52549 H 132.876 c -0.14408,0 -0.28385,0.0182 -0.41858,0.0491 v -1.57458 c 0,-0.34106 0.27905,-0.62011 0.62012,-0.62011 z m -6.61458,0 c 0.34106,0 0.62012,0.27905 0.62012,0.62011 v 2.06706 c 0,0.34106 -0.27906,0.62012 -0.62012,0.62012 h -2.06654 c -0.34106,0 -0.62012,-0.27906 -0.62012,-0.62012 v -2.06706 c 0,-0.34106 0.27906,-0.62011 0.62012,-0.62011 z"
       id="path1037"
       inkscape:connector-curvature="0"
       sodipodi:nodetypes="ssccccccsscccsscssssssssssssssssssssssssssssssssssssssssscscssssssssssss" />
    <path
       sodipodi:nodetypes="cscssccsscscccscssccsscscccscssccsscscccscssccsscsccssssssssscscsssscsscccccsscsssscscccscsssscsscccccsscsssscscccscsssscsscccccsscsssscscccscsssscsscccccsscsssscscccsscsssscsscccsscsssscsscccsscsssscsscccsscsssscsscc"
       inkscape:connector-curvature="0"
       style="display:inline;opacity:1;fill:currentColor;stroke-width:0.0172114"
       d="m 201.35004,252.75582 c -0.057,0 -0.10324,0.0469 -0.10324,0.1039 v 0.30985 h -0.10325 c -0.057,0 -0.10318,0.0468 -0.10318,0.1041 v 0.72287 h 0.82612 v -0.72287 c 0,-0.058 -0.0462,-0.1041 -0.10324,-0.1041 h -0.10319 v -0.30994 c 0,-0.058 -0.0462,-0.1035 -0.10323,-0.1035 z m 1.6523,0 c -0.057,0 -0.10324,0.0469 -0.10324,0.1039 v 0.30985 h -0.10323 c -0.057,0 -0.10319,0.0468 -0.10319,0.1041 v 0.72287 h 0.82612 v -0.72287 c 0,-0.058 -0.0462,-0.1041 -0.10324,-0.1041 h -0.10318 v -0.30994 c 0,-0.058 -0.0462,-0.1035 -0.10324,-0.1035 z m 1.65223,0 c -0.057,0 -0.10318,0.0469 -0.10318,0.1039 v 0.30985 h -0.10324 c -0.057,0 -0.10324,0.0468 -0.10324,0.1041 v 0.72287 h 0.82618 v -0.72287 c 0,-0.058 -0.0462,-0.1041 -0.10323,-0.1041 h -0.10324 v -0.30994 c 0,-0.058 -0.0462,-0.1035 -0.10317,-0.1035 z m 1.6523,0 c -0.057,0 -0.10318,0.0469 -0.10318,0.1039 v 0.30985 h -0.10324 c -0.057,0 -0.10324,0.0468 -0.10324,0.1041 v 0.72287 h 0.82619 v -0.72287 c 0,-0.058 -0.0462,-0.1041 -0.10324,-0.1041 h -0.10324 v -0.30994 c 0,-0.058 -0.0461,-0.1035 -0.10318,-0.1035 z m -5.95427,1.65146 c -0.45628,0 -0.8262,0.36988 -0.8262,0.82608 v 7.16003 c 0,0.45627 0.36992,0.82615 0.8262,0.82615 h 7.1583 c 0.45627,0 0.82611,-0.36988 0.82611,-0.82615 v -7.16003 c 0,-0.4562 -0.36984,-0.82608 -0.82611,-0.82608 z m -1.96212,1.51461 c -0.057,0 -0.10323,0.0469 -0.10323,0.10446 v 0.1039 h -0.30981 c -0.057,0 -0.10324,0.0469 -0.10324,0.10388 v 0.20658 c 0,0.058 0.0462,0.10389 0.10324,0.10389 h 0.30981 v 0.10446 c 0,0.058 0.0462,0.1042 0.10323,0.1042 h 0.7229 v -0.82618 z m 10.35963,0 v 0.82623 h 0.7229 c 0.057,0 0.10318,-0.0469 0.10318,-0.1044 v -0.10446 h 0.30981 c 0.057,0 0.10323,-0.0468 0.10323,-0.10446 v -0.20661 c 0,-0.058 -0.0462,-0.1042 -0.10323,-0.1042 h -0.30981 v -0.10418 c 0,-0.058 -0.0461,-0.1042 -0.10318,-0.1042 z m -10.35963,1.65348 c -0.057,0 -0.10323,0.0469 -0.10323,0.10456 v 0.10447 h -0.30981 c -0.057,0 -0.10324,0.0469 -0.10324,0.10449 v 0.20647 c 0,0.058 0.0462,0.1039 0.10324,0.1039 h 0.30981 v 0.10387 c 0,0.058 0.0462,0.10398 0.10323,0.10398 h 0.7229 v -0.82637 z m 10.35963,0 v 0.82614 h 0.7229 c 0.057,0 0.10318,-0.0468 0.10318,-0.10368 v -0.10436 h 0.30981 c 0.057,0 0.10323,-0.0469 0.10323,-0.10389 v -0.20652 c 0,-0.058 -0.0462,-0.10399 -0.10323,-0.10399 h -0.30981 v -0.10369 c 0,-0.058 -0.0462,-0.10436 -0.10318,-0.10436 z m -10.35963,1.65231 c -0.057,0 -0.10323,0.0469 -0.10323,0.10446 v 0.10368 h -0.30981 c -0.057,0 -0.10324,0.0469 -0.10324,0.1043 v 0.20625 c 0,0.058 0.0462,0.1043 0.10324,0.1043 h 0.30981 v 0.1041 c 0,0.058 0.0462,0.1041 0.10323,0.1041 h 0.7229 v -0.82611 z m 10.35963,0 v 0.8261 h 0.7229 c 0.057,0 0.10318,-0.0468 0.10318,-0.10399 v -0.1041 h 0.30981 c 0.057,0 0.10323,-0.0469 0.10323,-0.10467 v -0.20654 c 0,-0.058 -0.0462,-0.10446 -0.10323,-0.10446 h -0.30981 v -0.10347 c 0,-0.058 -0.0461,-0.1042 -0.10318,-0.1042 z m -10.35963,1.65227 c -0.057,0 -0.10323,0.0468 -0.10323,0.1043 v 0.10446 h -0.30981 c -0.057,0 -0.10324,0.0469 -0.10324,0.1041 v 0.20657 c 0,0.058 0.0462,0.10466 0.10324,0.10466 h 0.30981 v 0.10456 c 0,0.058 0.0462,0.10431 0.10323,0.10431 h 0.7229 v -0.82625 z m 10.35963,0 v 0.82613 h 0.7229 c 0.057,0 0.10318,-0.0468 0.10318,-0.1043 v -0.10449 h 0.30981 c 0.057,0 0.10323,-0.0469 0.10323,-0.10437 v -0.20647 c 0,-0.058 -0.0462,-0.10446 -0.10323,-0.10446 h -0.30981 v -0.1043 c 0,-0.058 -0.0461,-0.10399 -0.10318,-0.10399 z m -7.70987,2.75298 v 0.72287 c 0,0.058 0.0461,0.10431 0.10318,0.10431 h 0.10324 v 0.30984 c 0,0.058 0.0462,0.1039 0.10324,0.1039 h 0.20651 c 0.057,0 0.10324,-0.0469 0.10324,-0.1039 v -0.30984 h 0.10319 c 0.057,0 0.10324,-0.0469 0.10324,-0.10431 v -0.72287 z m 1.6523,0 v 0.72287 c 0,0.058 0.0461,0.10431 0.10318,0.10431 h 0.10324 v 0.30984 c 0,0.058 0.0462,0.1039 0.10324,0.1039 h 0.20651 c 0.057,0 0.10324,-0.0469 0.10324,-0.1039 v -0.30984 h 0.10318 c 0.057,0 0.10324,-0.0469 0.10324,-0.10431 v -0.72287 z m 1.65223,0 v 0.72287 c 0,0.058 0.0462,0.10431 0.10324,0.10431 h 0.10324 v 0.30984 c 0,0.058 0.0461,0.1039 0.10318,0.1039 h 0.20658 c 0.057,0 0.10317,-0.0469 0.10317,-0.1039 v -0.30984 h 0.10324 c 0.057,0 0.10324,-0.0469 0.10324,-0.10431 v -0.72287 z m 1.6523,0 v 0.72287 c 0,0.058 0.0462,0.10431 0.10324,0.10431 h 0.10325 v 0.30984 c 0,0.058 0.0461,0.1039 0.10318,0.1039 h 0.20658 c 0.057,0 0.10319,-0.0469 0.10319,-0.1039 v -0.30984 h 0.10324 c 0.057,0 0.10323,-0.0469 0.10323,-0.10431 v -0.72287 z"
       id="path1049" />
    <path
       sodipodi:nodetypes="cscssccsscscccscssccsscscccscssccsscscccscssccsscsccssssssssscscsssscsscccccsscsssscscccscsssscsscccccsscsssscscccscsssscsscccccsscsssscscccscsssscsscccccsscsssscscccsscsssscsscccsscsssscsscccsscsssscsscccsscsssscsscc"
       inkscape:connector-curvature="0"
       style="display:inline;opacity:1;fill:currentColor;stroke-width:0.0172114"
       d="m 169.60002,252.75582 c -0.057,0 -0.10324,0.0469 -0.10324,0.1039 v 0.30985 h -0.10325 c -0.057,0 -0.10318,0.0468 -0.10318,0.1041 v 0.72287 h 0.82612 v -0.72287 c 0,-0.058 -0.0462,-0.1041 -0.10324,-0.1041 h -0.10319 v -0.30994 c 0,-0.058 -0.0462,-0.1035 -0.10323,-0.1035 z m 1.6523,0 c -0.057,0 -0.10324,0.0469 -0.10324,0.1039 v 0.30985 h -0.10323 c -0.057,0 -0.10319,0.0468 -0.10319,0.1041 v 0.72287 h 0.82612 v -0.72287 c 0,-0.058 -0.0462,-0.1041 -0.10324,-0.1041 h -0.10318 v -0.30994 c 0,-0.058 -0.0462,-0.1035 -0.10324,-0.1035 z m 1.65223,0 c -0.057,0 -0.10318,0.0469 -0.10318,0.1039 v 0.30985 h -0.10324 c -0.057,0 -0.10324,0.0468 -0.10324,0.1041 v 0.72287 h 0.82618 v -0.72287 c 0,-0.058 -0.0462,-0.1041 -0.10323,-0.1041 h -0.10324 v -0.30994 c 0,-0.058 -0.0462,-0.1035 -0.10317,-0.1035 z m 1.6523,0 c -0.057,0 -0.10318,0.0469 -0.10318,0.1039 v 0.30985 h -0.10324 c -0.057,0 -0.10324,0.0468 -0.10324,0.1041 v 0.72287 h 0.82619 v -0.72287 c 0,-0.058 -0.0462,-0.1041 -0.10324,-0.1041 h -0.10324 v -0.30994 c 0,-0.058 -0.0461,-0.1035 -0.10318,-0.1035 z m -5.95427,1.65146 c -0.45627,0 -0.82619,0.36988 -0.82619,0.82608 v 7.16003 c 0,0.45627 0.36992,0.82615 0.82619,0.82615 h 7.1583 c 0.45627,0 0.82611,-0.36988 0.82611,-0.82615 v -7.16003 c 0,-0.4562 -0.36984,-0.82608 -0.82611,-0.82608 z m -1.96211,1.51461 c -0.057,0 -0.10323,0.0469 -0.10323,0.10446 v 0.1039 h -0.30981 c -0.057,0 -0.10324,0.0469 -0.10324,0.10388 v 0.20658 c 0,0.058 0.0462,0.10389 0.10324,0.10389 h 0.30981 v 0.10446 c 0,0.058 0.0462,0.1042 0.10323,0.1042 h 0.7229 v -0.82618 z m 10.35962,0 v 0.82623 h 0.7229 c 0.057,0 0.10318,-0.0469 0.10318,-0.1044 v -0.10446 h 0.30981 c 0.057,0 0.10323,-0.0468 0.10323,-0.10446 v -0.20661 c 0,-0.058 -0.0462,-0.1042 -0.10323,-0.1042 h -0.30981 v -0.10418 c 0,-0.058 -0.0461,-0.1042 -0.10318,-0.1042 z m -10.35962,1.65348 c -0.057,0 -0.10323,0.0469 -0.10323,0.10456 v 0.10447 h -0.30981 c -0.057,0 -0.10324,0.0469 -0.10324,0.10449 v 0.20647 c 0,0.058 0.0462,0.1039 0.10324,0.1039 h 0.30981 v 0.10387 c 0,0.058 0.0462,0.10398 0.10323,0.10398 h 0.7229 v -0.82637 z m 10.35962,0 v 0.82614 h 0.7229 c 0.057,0 0.10318,-0.0468 0.10318,-0.10368 v -0.10436 h 0.30981 c 0.057,0 0.10323,-0.0469 0.10323,-0.10389 v -0.20652 c 0,-0.058 -0.0462,-0.10399 -0.10323,-0.10399 h -0.30981 v -0.10369 c 0,-0.058 -0.0462,-0.10436 -0.10318,-0.10436 z m -10.35962,1.65231 c -0.057,0 -0.10323,0.0469 -0.10323,0.10446 v 0.10368 h -0.30981 c -0.057,0 -0.10324,0.0469 -0.10324,0.1043 v 0.20625 c 0,0.058 0.0462,0.1043 0.10324,0.1043 h 0.30981 v 0.1041 c 0,0.058 0.0462,0.1041 0.10323,0.1041 h 0.7229 v -0.82611 z m 10.35962,0 v 0.8261 h 0.7229 c 0.057,0 0.10318,-0.0468 0.10318,-0.10399 v -0.1041 h 0.30981 c 0.057,0 0.10323,-0.0469 0.10323,-0.10467 v -0.20654 c 0,-0.058 -0.0462,-0.10446 -0.10323,-0.10446 h -0.30981 v -0.10347 c 0,-0.058 -0.0461,-0.1042 -0.10318,-0.1042 z m -10.35962,1.65227 c -0.057,0 -0.10323,0.0468 -0.10323,0.1043 v 0.10446 h -0.30981 c -0.057,0 -0.10324,0.0469 -0.10324,0.1041 v 0.20657 c 0,0.058 0.0462,0.10466 0.10324,0.10466 h 0.30981 v 0.10456 c 0,0.058 0.0462,0.10431 0.10323,0.10431 h 0.7229 v -0.82625 z m 10.35962,0 v 0.82613 h 0.7229 c 0.057,0 0.10318,-0.0468 0.10318,-0.1043 v -0.10449 h 0.30981 c 0.057,0 0.10323,-0.0469 0.10323,-0.10437 v -0.20647 c 0,-0.058 -0.0462,-0.10446 -0.10323,-0.10446 h -0.30981 v -0.1043 c 0,-0.058 -0.0461,-0.10399 -0.10318,-0.10399 z m -7.70987,2.75298 v 0.72287 c 0,0.058 0.0461,0.10431 0.10318,0.10431 h 0.10324 v 0.30984 c 0,0.058 0.0462,0.1039 0.10324,0.1039 h 0.20651 c 0.057,0 0.10324,-0.0469 0.10324,-0.1039 v -0.30984 h 0.10319 c 0.057,0 0.10324,-0.0469 0.10324,-0.10431 v -0.72287 z m 1.6523,0 v 0.72287 c 0,0.058 0.0461,0.10431 0.10318,0.10431 h 0.10324 v 0.30984 c 0,0.058 0.0462,0.1039 0.10324,0.1039 h 0.20651 c 0.057,0 0.10324,-0.0469 0.10324,-0.1039 v -0.30984 h 0.10318 c 0.057,0 0.10324,-0.0469 0.10324,-0.10431 v -0.72287 z m 1.65223,0 v 0.72287 c 0,0.058 0.0462,0.10431 0.10324,0.10431 h 0.10324 v 0.30984 c 0,0.058 0.0461,0.1039 0.10318,0.1039 h 0.20658 c 0.057,0 0.10317,-0.0469 0.10317,-0.1039 v -0.30984 h 0.10324 c 0.057,0 0.10324,-0.0469 0.10324,-0.10431 v -0.72287 z m 1.6523,0 v 0.72287 c 0,0.058 0.0462,0.10431 0.10324,0.10431 h 0.10325 v 0.30984 c 0,0.058 0.0461,0.1039 0.10318,0.1039 h 0.20658 c 0.057,0 0.10319,-0.0469 0.10319,-0.1039 v -0.30984 h 0.10324 c 0.057,0 0.10323,-0.0469 0.10323,-0.10431 v -0.72287 z"
       id="path1053" />
    <path
       id="path1055"
       d="m 185.47503,252.75582 c -0.057,0 -0.10324,0.0469 -0.10324,0.1039 v 0.30985 h -0.10325 c -0.057,0 -0.10318,0.0468 -0.10318,0.1041 v 0.72287 h 0.82612 v -0.72287 c 0,-0.058 -0.0462,-0.1041 -0.10324,-0.1041 h -0.10319 v -0.30994 c 0,-0.058 -0.0462,-0.1035 -0.10323,-0.1035 z m 1.6523,0 c -0.057,0 -0.10324,0.0469 -0.10324,0.1039 v 0.30985 h -0.10323 c -0.057,0 -0.10319,0.0468 -0.10319,0.1041 v 0.72287 h 0.82612 v -0.72287 c 0,-0.058 -0.0462,-0.1041 -0.10324,-0.1041 h -0.10318 v -0.30994 c 0,-0.058 -0.0462,-0.1035 -0.10324,-0.1035 z m 1.65223,0 c -0.057,0 -0.10318,0.0469 -0.10318,0.1039 v 0.30985 h -0.10324 c -0.057,0 -0.10324,0.0468 -0.10324,0.1041 v 0.72287 h 0.82618 v -0.72287 c 0,-0.058 -0.0462,-0.1041 -0.10323,-0.1041 h -0.10324 v -0.30994 c 0,-0.058 -0.0462,-0.1035 -0.10317,-0.1035 z m 1.6523,0 c -0.057,0 -0.10318,0.0469 -0.10318,0.1039 v 0.30985 h -0.10324 c -0.057,0 -0.10324,0.0468 -0.10324,0.1041 v 0.72287 h 0.82619 v -0.72287 c 0,-0.058 -0.0462,-0.1041 -0.10324,-0.1041 h -0.10324 v -0.30994 c 0,-0.058 -0.0461,-0.1035 -0.10318,-0.1035 z m -5.95427,1.65146 c -0.45627,0 -0.82619,0.36988 -0.82619,0.82608 v 7.16003 c 0,0.45627 0.36992,0.82615 0.82619,0.82615 h 7.1583 c 0.45627,0 0.82611,-0.36988 0.82611,-0.82615 v -7.16003 c 0,-0.4562 -0.36984,-0.82608 -0.82611,-0.82608 z m -1.96211,1.51461 c -0.057,0 -0.10323,0.0469 -0.10323,0.10446 v 0.1039 h -0.30981 c -0.057,0 -0.10324,0.0469 -0.10324,0.10388 v 0.20658 c 0,0.058 0.0462,0.10389 0.10324,0.10389 h 0.30981 v 0.10446 c 0,0.058 0.0462,0.1042 0.10323,0.1042 h 0.7229 v -0.82618 z m 10.35962,0 v 0.82623 h 0.7229 c 0.057,0 0.10318,-0.0469 0.10318,-0.1044 v -0.10446 h 0.30981 c 0.057,0 0.10323,-0.0468 0.10323,-0.10446 v -0.20661 c 0,-0.058 -0.0462,-0.1042 -0.10323,-0.1042 h -0.30981 v -0.10418 c 0,-0.058 -0.0461,-0.1042 -0.10318,-0.1042 z m -10.35962,1.65348 c -0.057,0 -0.10323,0.0469 -0.10323,0.10456 v 0.10447 h -0.30981 c -0.057,0 -0.10324,0.0469 -0.10324,0.10449 v 0.20647 c 0,0.058 0.0462,0.1039 0.10324,0.1039 h 0.30981 v 0.10387 c 0,0.058 0.0462,0.10398 0.10323,0.10398 h 0.7229 v -0.82637 z m 10.35962,0 v 0.82614 h 0.7229 c 0.057,0 0.10318,-0.0468 0.10318,-0.10368 v -0.10436 h 0.30981 c 0.057,0 0.10323,-0.0469 0.10323,-0.10389 v -0.20652 c 0,-0.058 -0.0462,-0.10399 -0.10323,-0.10399 h -0.30981 v -0.10369 c 0,-0.058 -0.0462,-0.10436 -0.10318,-0.10436 z m -10.35962,1.65231 c -0.057,0 -0.10323,0.0469 -0.10323,0.10446 v 0.10368 h -0.30981 c -0.057,0 -0.10324,0.0469 -0.10324,0.1043 v 0.20625 c 0,0.058 0.0462,0.1043 0.10324,0.1043 h 0.30981 v 0.1041 c 0,0.058 0.0462,0.1041 0.10323,0.1041 h 0.7229 v -0.82611 z m 10.35962,0 v 0.8261 h 0.7229 c 0.057,0 0.10318,-0.0468 0.10318,-0.10399 v -0.1041 h 0.30981 c 0.057,0 0.10323,-0.0469 0.10323,-0.10467 v -0.20654 c 0,-0.058 -0.0462,-0.10446 -0.10323,-0.10446 h -0.30981 v -0.10347 c 0,-0.058 -0.0461,-0.1042 -0.10318,-0.1042 z m -10.35962,1.65227 c -0.057,0 -0.10323,0.0468 -0.10323,0.1043 v 0.10446 h -0.30981 c -0.057,0 -0.10324,0.0469 -0.10324,0.1041 v 0.20657 c 0,0.058 0.0462,0.10466 0.10324,0.10466 h 0.30981 v 0.10456 c 0,0.058 0.0462,0.10431 0.10323,0.10431 h 0.7229 v -0.82625 z m 10.35962,0 v 0.82613 h 0.7229 c 0.057,0 0.10318,-0.0468 0.10318,-0.1043 v -0.10449 h 0.30981 c 0.057,0 0.10323,-0.0469 0.10323,-0.10437 v -0.20647 c 0,-0.058 -0.0462,-0.10446 -0.10323,-0.10446 h -0.30981 v -0.1043 c 0,-0.058 -0.0461,-0.10399 -0.10318,-0.10399 z m -7.70987,2.75298 v 0.72287 c 0,0.058 0.0461,0.10431 0.10318,0.10431 h 0.10324 v 0.30984 c 0,0.058 0.0462,0.1039 0.10324,0.1039 h 0.20651 c 0.057,0 0.10324,-0.0469 0.10324,-0.1039 v -0.30984 h 0.10319 c 0.057,0 0.10324,-0.0469 0.10324,-0.10431 v -0.72287 z m 1.6523,0 v 0.72287 c 0,0.058 0.0461,0.10431 0.10318,0.10431 h 0.10324 v 0.30984 c 0,0.058 0.0462,0.1039 0.10324,0.1039 h 0.20651 c 0.057,0 0.10324,-0.0469 0.10324,-0.1039 v -0.30984 h 0.10318 c 0.057,0 0.10324,-0.0469 0.10324,-0.10431 v -0.72287 z m 1.65223,0 v 0.72287 c 0,0.058 0.0462,0.10431 0.10324,0.10431 h 0.10324 v 0.30984 c 0,0.058 0.0461,0.1039 0.10318,0.1039 h 0.20658 c 0.057,0 0.10317,-0.0469 0.10317,-0.1039 v -0.30984 h 0.10324 c 0.057,0 0.10324,-0.0469 0.10324,-0.10431 v -0.72287 z m 1.6523,0 v 0.72287 c 0,0.058 0.0462,0.10431 0.10324,0.10431 h 0.10325 v 0.30984 c 0,0.058 0.0461,0.1039 0.10318,0.1039 h 0.20658 c 0.057,0 0.10319,-0.0469 0.10319,-0.1039 v -0.30984 h 0.10324 c 0.057,0 0.10323,-0.0469 0.10323,-0.10431 v -0.72287 z"
       style="display:inline;opacity:1;fill:currentColor;stroke-width:0.0172114"
       inkscape:connector-curvature="0"
       sodipodi:nodetypes="cscssccsscscccscssccsscscccscssccsscscccscssccsscsccssssssssscscsssscsscccccsscsssscscccscsssscsscccccsscsssscscccscsssscsscccccsscsssscscccscsssscsscccccsscsssscscccsscsssscsscccsscsssscsscccsscsssscsscccsscsssscsscc" />
    <path
       style="fill:currentColor;stroke-width:0.26458332"
       d="m 134.13714,215.4759 c -1.03178,0 -1.86887,0.83708 -1.86887,1.86887 v 13.70526 c 0,1.03178 0.83709,1.86887 1.86887,1.86887 h 13.70526 c 1.03178,0 1.86887,-0.83709 1.86887,-1.86887 v -13.70526 c 0,-1.03179 -0.83709,-1.86887 -1.86887,-1.86887 z m 4.67218,2.90727 h 4.3606 c 0.40133,0 0.72682,0.32549 0.72682,0.72681 v 2.90697 c 0,0.40134 -0.32549,0.72682 -0.72682,0.72682 h -1.63511 v 0.9086 h 6.35927 c 0.20078,0 0.36356,0.16249 0.36356,0.36325 v 0.36356 c 0,0.20079 -0.16278,0.36326 -0.36356,0.36326 h -2.36193 v 0.9086 h 1.27185 c 0.40132,0 0.72682,0.32548 0.72682,0.72681 v 2.90697 c 0,0.40132 -0.3255,0.72682 -0.72682,0.72682 h -3.63408 c -0.40132,0 -0.72652,-0.3255 -0.72652,-0.72682 v -2.90697 c 0,-0.40133 0.3252,-0.72681 0.72652,-0.72681 h 1.27216 v -0.9086 h -6.90462 v 0.9086 h 1.27186 c 0.40132,0 0.72682,0.32548 0.72682,0.72681 v 2.90697 c 0,0.40132 -0.3255,0.72682 -0.72682,0.72682 h -3.63378 c -0.40132,0 -0.72682,-0.3255 -0.72682,-0.72682 v -2.90697 c 0,-0.40133 0.3255,-0.72681 0.72682,-0.72681 h 1.27185 v -0.9086 h -2.36223 c -0.20077,0 -0.36326,-0.16247 -0.36326,-0.36326 v -0.36356 c 0,-0.20076 0.16249,-0.36325 0.36326,-0.36325 h 6.35958 v -0.9086 h -1.63542 c -0.40132,0 -0.72681,-0.32548 -0.72681,-0.72682 v -2.90697 c 0,-0.40132 0.32549,-0.72681 0.72681,-0.72681 z m 0.72682,1.45364 v 1.45363 h 2.90726 v -1.45363 z m -3.63379,7.26786 v 1.45363 h 2.18016 v -1.45363 z m 7.99439,0 v 1.45363 h 2.18045 v -1.45363 z"
       id="path1182"
       inkscape:connector-curvature="0" />
    <g
       transform="translate(50.992979,-25.009405)"
       id="g997"
       style="display:inline;stroke:#808080">
      <path
         style="fill:none;stroke:#808080;stroke-width:0.8991273;stroke-linecap:round;stroke-linejoin:round;stroke-miterlimit:4;stroke-dasharray:none;stroke-opacity:1"
         d="m 88.757808,263.89159 c 0,2.6387 0,5.27788 0,7.91682 0,0 -1.900735,-1.90073 -1.900735,-1.90073"
         id="path993"
         inkscape:connector-curvature="0"
         inkscape:path-effect="#path-effect947-5"
         inkscape:original-d="m 88.757808,263.89159 c 2.39e-4,2.6387 0,7.91682 0,7.91682 0,0 -1.900735,-1.90073 -1.900735,-1.90073" />
      <path
         inkscape:original-d="m 90.556743,271.80194 c -2.39e-4,-2.6387 0,-7.91682 0,-7.91682 0,0 1.900735,1.90073 1.900735,1.90073"
         inkscape:path-effect="#path-effect987-5"
         inkscape:connector-curvature="0"
         id="path995"
         d="m 90.556743,271.80194 c 0,-2.6387 0,-5.27788 0,-7.91682 0,0 1.900735,1.90073 1.900735,1.90073"
         style="fill:none;stroke:#808080;stroke-width:0.8991273;stroke-linecap:round;stroke-linejoin:round;stroke-miterlimit:4;stroke-dasharray:none;stroke-opacity:1" />
    </g>
    <path
       id="path1472"
       d="m 158.1124,264.43805 c 2.92626,-3.16375 2.92518,-8.08428 0,-11.24678 -0.10999,-0.11893 -0.29625,-0.12125 -0.41035,-0.006 l -0.60661,0.61143 c -0.10893,0.10964 -0.11125,0.28607 -0.006,0.4 2.38714,2.60571 2.38768,6.63035 0,9.2366 -0.10446,0.11393 -0.10197,0.29036 0.006,0.4 l 0.60661,0.61143 c 0.1141,0.11482 0.30036,0.1125 0.41035,-0.006 z m -3.51999,-5.62339 c 0,-0.63125 -0.51161,-1.14286 -1.14286,-1.14286 -0.63125,0 -1.14286,0.51161 -1.14286,1.14286 0,0.63125 0.51161,1.14286 1.14286,1.14286 0.63125,0 1.14286,-0.51161 1.14286,-1.14286 z m 1.49267,3.61911 c 1.82018,-2.05822 1.81822,-5.18233 0,-7.23822 -0.10893,-0.12321 -0.29803,-0.12714 -0.41339,-0.0102 l -0.60696,0.615 c -0.10572,0.10714 -0.11286,0.27964 -0.0143,0.39375 1.29589,1.49911 1.29303,3.74536 0,5.24089 -0.0986,0.11411 -0.0916,0.28661 0.0143,0.39375 l 0.60696,0.615 c 0.11536,0.11715 0.30465,0.11304 0.41339,-0.01 z"
       inkscape:connector-curvature="0"
       style="fill:#808080;stroke-width:0.26458332" />
    <path
       sodipodi:nodetypes="cc"
       inkscape:original-d="M 70.105589,209.37665 H 109.66202"
       inkscape:path-effect="#path-effect2304-7"
       inkscape:connector-curvature="0"
       id="path2302"
       d="m 70.105589,209.37665 c 0,0 39.556431,0 39.556431,0"
       style="display:inline;fill:none;stroke:#808080;stroke-width:1;stroke-linecap:butt;stroke-linejoin:miter;stroke-miterlimit:4;stroke-dasharray:none;stroke-opacity:1;marker-end:url(#marker2663)" />
    <text
       id="text1218"
       y="218.97113"
       x="83.138641"
       style="font-style:italic;font-variant:normal;font-weight:normal;font-stretch:normal;font-size:6.05119705px;line-height:1.25;font-family:'Helvetica Neue';-inkscape-font-specification:'Helvetica Neue, Italic';font-variant-ligatures:normal;font-variant-caps:normal;font-variant-numeric:normal;font-feature-settings:normal;text-align:start;letter-spacing:0px;word-spacing:0px;writing-mode:lr-tb;text-anchor:start;display:inline;fill:#808080;fill-opacity:1;stroke:none;stroke-width:0.14381179"
       xml:space="preserve"><tspan
         sodipodi:role="line"
         id="tspan1220"
         x="83.138641"
         y="218.97113"
         style="font-style:italic;font-variant:normal;font-weight:normal;font-stretch:normal;font-size:6.05119705px;font-family:'Helvetica Neue';-inkscape-font-specification:'Helvetica Neue, Italic';font-variant-ligatures:normal;font-variant-caps:normal;font-variant-numeric:normal;font-feature-settings:normal;text-align:start;writing-mode:lr-tb;text-anchor:start;fill:#808080;stroke-width:0.14381179">SSH</tspan></text>
    <path
       transform="translate(27.48254,179.91227)"
       sodipodi:nodetypes="ccc"
       inkscape:original-d="m 28.696821,52.774753 c 7.939985,7.298835 15.879402,14.597655 23.818507,21.896697 13.820248,1.602751 27.640293,3.205761 41.460621,4.809112"
       inkscape:path-effect="#path-effect2304-8"
       inkscape:connector-curvature="0"
       id="path2302-0"
       d="m 28.696821,52.774753 c 7.939732,7.29911 15.879149,14.59793 26.758935,19.048833 10.879787,4.450902 24.699831,6.053921 38.520193,7.656976"
       style="display:inline;opacity:1;fill:none;stroke:#808080;stroke-width:1;stroke-linecap:butt;stroke-linejoin:miter;stroke-miterlimit:4;stroke-dasharray:none;stroke-opacity:1;marker-end:url(#marker2663-9)" />
    <text
       transform="translate(27.48254,179.91227)"
       id="text1218-2"
       y="78.448395"
       x="36.727581"
       style="font-style:italic;font-variant:normal;font-weight:normal;font-stretch:normal;font-size:6.05119705px;line-height:1.25;font-family:'Helvetica Neue';-inkscape-font-specification:'Helvetica Neue, Italic';font-variant-ligatures:normal;font-variant-caps:normal;font-variant-numeric:normal;font-feature-settings:normal;text-align:start;letter-spacing:0px;word-spacing:0px;writing-mode:lr-tb;text-anchor:start;display:inline;opacity:1;fill:#808080;fill-opacity:1;stroke:none;stroke-width:0.14381179"
       xml:space="preserve"><tspan
         sodipodi:role="line"
         id="tspan1220-4"
         x="36.727581"
         y="78.448395"
         style="font-style:italic;font-variant:normal;font-weight:normal;font-stretch:normal;font-size:6.05119705px;font-family:'Helvetica Neue';-inkscape-font-specification:'Helvetica Neue, Italic';font-variant-ligatures:normal;font-variant-caps:normal;font-variant-numeric:normal;font-feature-settings:normal;text-align:start;writing-mode:lr-tb;text-anchor:start;fill:#808080;stroke-width:0.14381179">IPv6</tspan></text>
  </g>
  <g
     inkscape:groupmode="layer"
     id="layer4"
     inkscape:label="texte"
     style="display:inline"
     transform="translate(-27.48254,-92.91227)" />
</svg>
