<?xml version="1.0" encoding="UTF-8" standalone="no"?>
<!-- Created with Inkscape (http://www.inkscape.org/) -->

<svg
   xmlns:dc="http://purl.org/dc/elements/1.1/"
   xmlns:cc="http://creativecommons.org/ns#"
   xmlns:rdf="http://www.w3.org/1999/02/22-rdf-syntax-ns#"
   xmlns:svg="http://www.w3.org/2000/svg"
   xmlns="http://www.w3.org/2000/svg"
   xmlns:sodipodi="http://sodipodi.sourceforge.net/DTD/sodipodi-0.dtd"
   xmlns:inkscape="http://www.inkscape.org/namespaces/inkscape"
   width="178.52721mm"
   height="100.25325mm"
   viewBox="0 0 178.5272 100.25325"
   version="1.1"
   id="svg847"
   inkscape:version="0.92.2 5c3e80d, 2017-08-06"
   sodipodi:docname="ssh-cli.svg"
   inkscape:export-filename="/Users/vandaele/Documents/fun/senslab/www-iotlab/schemas/Images/ssh-cli.png"
   inkscape:export-xdpi="180"
   inkscape:export-ydpi="180">
  <defs
     id="defs841">
    <marker
       inkscape:isstock="true"
       style="overflow:visible"
       id="marker3396"
       refX="0"
       refY="0"
       orient="auto"
       inkscape:stockid="Arrow2Mend">
      <path
         transform="scale(-0.6)"
         d="M 8.7185878,4.0337352 -2.2072895,0.01601326 8.7185884,-4.0017078 c -1.7454984,2.3720609 -1.7354408,5.6174519 -6e-7,8.035443 z"
         style="fill:#808080;fill-opacity:1;fill-rule:evenodd;stroke:#808080;stroke-width:0.625;stroke-linejoin:round;stroke-opacity:1"
         id="path3394"
         inkscape:connector-curvature="0" />
    </marker>
    <inkscape:path-effect
       only_selected="false"
       apply_with_weight="true"
       apply_no_weight="true"
       helper_size="0"
       steps="2"
       weight="33.333333"
       is_visible="true"
       id="path-effect3392"
       effect="bspline" />
    <marker
       inkscape:stockid="Arrow2Mend"
       orient="auto"
       refY="0"
       refX="0"
       id="marker3280"
       style="overflow:visible"
       inkscape:isstock="true"
       inkscape:collect="always">
      <path
         inkscape:connector-curvature="0"
         id="path3278"
         style="fill:#808080;fill-opacity:1;fill-rule:evenodd;stroke:#808080;stroke-width:0.625;stroke-linejoin:round;stroke-opacity:1"
         d="M 8.7185878,4.0337352 -2.2072895,0.01601326 8.7185884,-4.0017078 c -1.7454984,2.3720609 -1.7354408,5.6174519 -6e-7,8.035443 z"
         transform="scale(-0.6)" />
    </marker>
    <inkscape:path-effect
       effect="bspline"
       id="path-effect3276"
       is_visible="true"
       weight="33.333333"
       steps="2"
       helper_size="0"
       apply_no_weight="true"
       apply_with_weight="true"
       only_selected="false" />
    <marker
       inkscape:stockid="Arrow2Mend"
       orient="auto"
       refY="0"
       refX="0"
       id="marker3092"
       style="overflow:visible"
       inkscape:isstock="true">
      <path
         inkscape:connector-curvature="0"
         id="path3090"
         style="fill:#808080;fill-opacity:1;fill-rule:evenodd;stroke:#808080;stroke-width:0.625;stroke-linejoin:round;stroke-opacity:1"
         d="M 8.7185878,4.0337352 -2.2072895,0.01601326 8.7185884,-4.0017078 c -1.7454984,2.3720609 -1.7354408,5.6174519 -6e-7,8.035443 z"
         transform="scale(-0.6)" />
    </marker>
    <inkscape:path-effect
       effect="bspline"
       id="path-effect3088"
       is_visible="true"
       weight="33.333333"
       steps="2"
       helper_size="0"
       apply_no_weight="true"
       apply_with_weight="true"
       only_selected="false" />
    <marker
       inkscape:isstock="true"
       style="overflow:visible"
       id="marker2588"
       refX="0"
       refY="0"
       orient="auto"
       inkscape:stockid="Arrow2Mend">
      <path
         transform="scale(-0.6)"
         d="M 8.7185878,4.0337352 -2.2072895,0.01601326 8.7185884,-4.0017078 c -1.7454984,2.3720609 -1.7354408,5.6174519 -6e-7,8.035443 z"
         style="fill:#808080;fill-opacity:1;fill-rule:evenodd;stroke:#808080;stroke-width:0.625;stroke-linejoin:round;stroke-opacity:1"
         id="path2586"
         inkscape:connector-curvature="0" />
    </marker>
    <inkscape:path-effect
       only_selected="false"
       apply_with_weight="true"
       apply_no_weight="true"
       helper_size="0"
       steps="2"
       weight="33.333333"
       is_visible="true"
       id="path-effect2584"
       effect="bspline" />
    <inkscape:path-effect
       effect="bspline"
       id="path-effect2480"
       is_visible="true"
       weight="33.333333"
       steps="2"
       helper_size="0"
       apply_no_weight="true"
       apply_with_weight="true"
       only_selected="false" />
    <marker
       inkscape:stockid="Arrow2Mend"
       orient="auto"
       refY="0"
       refX="0"
       id="marker2296"
       style="overflow:visible"
       inkscape:isstock="true">
      <path
         inkscape:connector-curvature="0"
         id="path2294"
         style="fill:#808080;fill-opacity:1;fill-rule:evenodd;stroke:#808080;stroke-width:0.625;stroke-linejoin:round;stroke-opacity:1"
         d="M 8.7185878,4.0337352 -2.2072895,0.01601326 8.7185884,-4.0017078 c -1.7454984,2.3720609 -1.7354408,5.6174519 -6e-7,8.035443 z"
         transform="scale(-0.6)" />
    </marker>
    <inkscape:path-effect
       effect="bspline"
       id="path-effect2292"
       is_visible="true"
       weight="33.333333"
       steps="2"
       helper_size="0"
       apply_no_weight="true"
       apply_with_weight="true"
       only_selected="false" />
    <marker
       inkscape:stockid="Arrow2Mend"
       orient="auto"
       refY="0"
       refX="0"
       id="marker1504"
       style="overflow:visible"
       inkscape:isstock="true">
      <path
         inkscape:connector-curvature="0"
         id="path1502"
         style="fill:#808080;fill-opacity:1;fill-rule:evenodd;stroke:#808080;stroke-width:0.625;stroke-linejoin:round;stroke-opacity:1"
         d="M 8.7185878,4.0337352 -2.2072895,0.01601326 8.7185884,-4.0017078 c -1.7454984,2.3720609 -1.7354408,5.6174519 -6e-7,8.035443 z"
         transform="scale(-0.6)" />
    </marker>
    <inkscape:path-effect
       effect="bspline"
       id="path-effect1500"
       is_visible="true"
       weight="33.333333"
       steps="2"
       helper_size="0"
       apply_no_weight="true"
       apply_with_weight="true"
       only_selected="false" />
    <inkscape:path-effect
       only_selected="false"
       apply_with_weight="true"
       apply_no_weight="true"
       helper_size="0"
       steps="2"
       weight="33.333333"
       is_visible="true"
       id="path-effect1180"
       effect="bspline" />
    <inkscape:path-effect
       effect="bspline"
       id="path-effect908"
       is_visible="true"
       weight="33.333333"
       steps="2"
       helper_size="0"
       apply_no_weight="true"
       apply_with_weight="true"
       only_selected="false" />
    <inkscape:path-effect
       only_selected="false"
       apply_with_weight="true"
       apply_no_weight="true"
       helper_size="0"
       steps="2"
       weight="33.333333"
       is_visible="true"
       id="path-effect987"
       effect="bspline" />
    <inkscape:path-effect
       effect="bspline"
       id="path-effect947"
       is_visible="true"
       weight="33.333333"
       steps="2"
       helper_size="0"
       apply_no_weight="true"
       apply_with_weight="true"
       only_selected="false" />
    <inkscape:path-effect
       effect="bspline"
       id="path-effect1058"
       is_visible="true"
       weight="33.333333"
       steps="2"
       helper_size="0"
       apply_no_weight="true"
       apply_with_weight="true"
       only_selected="false" />
    <inkscape:path-effect
       only_selected="false"
       apply_with_weight="true"
       apply_no_weight="true"
       helper_size="0"
       steps="2"
       weight="33.333333"
       is_visible="true"
       id="path-effect1054"
       effect="bspline" />
    <inkscape:path-effect
       effect="bspline"
       id="path-effect1050"
       is_visible="true"
       weight="33.333333"
       steps="2"
       helper_size="0"
       apply_no_weight="true"
       apply_with_weight="true"
       only_selected="false" />
    <inkscape:path-effect
       effect="bspline"
       id="path-effect942"
       is_visible="true"
       weight="33.333333"
       steps="2"
       helper_size="0"
       apply_no_weight="true"
       apply_with_weight="true"
       only_selected="false" />
    <marker
       inkscape:isstock="true"
       style="overflow:visible"
       id="marker2663"
       refX="0"
       refY="0"
       orient="auto"
       inkscape:stockid="Arrow2Mend"
       inkscape:collect="always">
      <path
         transform="scale(-0.6)"
         d="M 8.7185878,4.0337352 -2.2072895,0.01601326 8.7185884,-4.0017078 c -1.7454984,2.3720609 -1.7354408,5.6174519 -6e-7,8.035443 z"
         style="fill:#808080;fill-opacity:1;fill-rule:evenodd;stroke:#808080;stroke-width:0.625;stroke-linejoin:round;stroke-opacity:1"
         id="path2661"
         inkscape:connector-curvature="0" />
    </marker>
    <marker
       inkscape:stockid="Arrow2Lend"
       orient="auto"
       refY="0"
       refX="0"
       id="marker2657"
       style="overflow:visible"
       inkscape:isstock="true">
      <path
         id="path2655"
         style="fill:#000000;fill-opacity:1;fill-rule:evenodd;stroke:#000000;stroke-width:0.625;stroke-linejoin:round;stroke-opacity:1"
         d="M 8.7185878,4.0337352 -2.2072895,0.01601326 8.7185884,-4.0017078 c -1.7454984,2.3720609 -1.7354408,5.6174519 -6e-7,8.035443 z"
         transform="matrix(-1.1,0,0,-1.1,-1.1,0)"
         inkscape:connector-curvature="0" />
    </marker>
    <marker
       inkscape:stockid="Arrow2Lend"
       orient="auto"
       refY="0"
       refX="0"
       id="Arrow2Lend"
       style="overflow:visible"
       inkscape:isstock="true">
      <path
         id="path2406"
         style="fill:#000000;fill-opacity:1;fill-rule:evenodd;stroke:#000000;stroke-width:0.625;stroke-linejoin:round;stroke-opacity:1"
         d="M 8.7185878,4.0337352 -2.2072895,0.01601326 8.7185884,-4.0017078 c -1.7454984,2.3720609 -1.7354408,5.6174519 -6e-7,8.035443 z"
         transform="matrix(-1.1,0,0,-1.1,-1.1,0)"
         inkscape:connector-curvature="0" />
    </marker>
    <marker
       inkscape:stockid="EmptyTriangleOutL"
       orient="auto"
       refY="0"
       refX="0"
       id="EmptyTriangleOutL"
       style="overflow:visible"
       inkscape:isstock="true">
      <path
         id="path2545"
         d="M 5.77,0 -2.88,5 V -5 Z"
         style="fill:#ffffff;fill-rule:evenodd;stroke:#000000;stroke-width:1.00000003pt;stroke-opacity:1"
         transform="matrix(0.8,0,0,0.8,-4.8,0)"
         inkscape:connector-curvature="0" />
    </marker>
    <marker
       inkscape:stockid="TriangleOutL"
       orient="auto"
       refY="0"
       refX="0"
       id="TriangleOutL"
       style="overflow:visible"
       inkscape:isstock="true">
      <path
         id="path2527"
         d="M 5.77,0 -2.88,5 V -5 Z"
         style="fill:#000000;fill-opacity:1;fill-rule:evenodd;stroke:#000000;stroke-width:1.00000003pt;stroke-opacity:1"
         transform="scale(0.8)"
         inkscape:connector-curvature="0" />
    </marker>
    <inkscape:path-effect
       effect="bspline"
       id="path-effect2383"
       is_visible="true"
       weight="33.333333"
       steps="2"
       helper_size="0"
       apply_no_weight="true"
       apply_with_weight="true"
       only_selected="false" />
    <inkscape:path-effect
       only_selected="false"
       apply_with_weight="true"
       apply_no_weight="true"
       helper_size="0"
       steps="2"
       weight="33.333333"
       is_visible="true"
       id="path-effect2379"
       effect="bspline" />
    <inkscape:path-effect
       effect="bspline"
       id="path-effect2365"
       is_visible="true"
       weight="33.333333"
       steps="2"
       helper_size="0"
       apply_no_weight="true"
       apply_with_weight="true"
       only_selected="false" />
    <inkscape:path-effect
       effect="bspline"
       id="path-effect2361"
       is_visible="true"
       weight="33.333333"
       steps="2"
       helper_size="0"
       apply_no_weight="true"
       apply_with_weight="true"
       only_selected="false" />
    <inkscape:path-effect
       effect="bspline"
       id="path-effect2357"
       is_visible="true"
       weight="33.333333"
       steps="2"
       helper_size="0"
       apply_no_weight="true"
       apply_with_weight="true"
       only_selected="false" />
    <inkscape:path-effect
       effect="bspline"
       id="path-effect2353"
       is_visible="true"
       weight="33.333333"
       steps="2"
       helper_size="0"
       apply_no_weight="true"
       apply_with_weight="true"
       only_selected="false" />
    <inkscape:path-effect
       effect="bspline"
       id="path-effect2349"
       is_visible="true"
       weight="33.333333"
       steps="2"
       helper_size="0"
       apply_no_weight="true"
       apply_with_weight="true"
       only_selected="false" />
    <inkscape:path-effect
       effect="bspline"
       id="path-effect2324"
       is_visible="true"
       weight="33.333333"
       steps="2"
       helper_size="0"
       apply_no_weight="true"
       apply_with_weight="true"
       only_selected="false" />
    <inkscape:path-effect
       effect="bspline"
       id="path-effect2320"
       is_visible="true"
       weight="33.333333"
       steps="2"
       helper_size="0"
       apply_no_weight="true"
       apply_with_weight="true"
       only_selected="false" />
    <inkscape:path-effect
       effect="bspline"
       id="path-effect2316"
       is_visible="true"
       weight="33.333333"
       steps="2"
       helper_size="0"
       apply_no_weight="true"
       apply_with_weight="true"
       only_selected="false" />
    <inkscape:path-effect
       only_selected="false"
       apply_with_weight="true"
       apply_no_weight="true"
       helper_size="0"
       steps="2"
       weight="33.333333"
       is_visible="true"
       id="path-effect2312"
       effect="bspline" />
    <inkscape:path-effect
       only_selected="false"
       apply_with_weight="true"
       apply_no_weight="true"
       helper_size="0"
       steps="2"
       weight="33.333333"
       is_visible="true"
       id="path-effect2304"
       effect="bspline" />
    <inkscape:path-effect
       effect="bspline"
       id="path-effect2258"
       is_visible="true"
       weight="33.333333"
       steps="2"
       helper_size="0"
       apply_no_weight="true"
       apply_with_weight="true"
       only_selected="false" />
    <inkscape:path-effect
       effect="bspline"
       id="path-effect2242"
       is_visible="true"
       weight="33.333333"
       steps="2"
       helper_size="0"
       apply_no_weight="true"
       apply_with_weight="true"
       only_selected="false" />
    <inkscape:path-effect
       effect="bspline"
       id="path-effect2238"
       is_visible="true"
       weight="33.333333"
       steps="2"
       helper_size="0"
       apply_no_weight="true"
       apply_with_weight="true"
       only_selected="false" />
    <inkscape:path-effect
       effect="bspline"
       id="path-effect4800"
       is_visible="true"
       weight="30"
       steps="1"
       helper_size="5"
       apply_no_weight="false"
       apply_with_weight="false"
       only_selected="false" />
    <inkscape:path-effect
       effect="bspline"
       id="path-effect4798"
       is_visible="true"
       weight="33.333333"
       steps="1"
       helper_size="0"
       apply_no_weight="true"
       apply_with_weight="true"
       only_selected="false" />
    <inkscape:path-effect
       effect="bend_path"
       id="path-effect1107"
       is_visible="true"
       bendpath="m 168.78505,157.52766 h 90.83734"
       prop_scale="1"
       scale_y_rel="false"
       vertical="false" />
    <inkscape:path-effect
       effect="bspline"
       id="path-effect1105"
       is_visible="true"
       weight="33.333333"
       steps="2"
       helper_size="0"
       apply_no_weight="true"
       apply_with_weight="true"
       only_selected="false" />
    <inkscape:path-effect
       effect="bspline"
       id="path-effect2383-0"
       is_visible="true"
       weight="33.333333"
       steps="2"
       helper_size="0"
       apply_no_weight="true"
       apply_with_weight="true"
       only_selected="false" />
    <inkscape:path-effect
       only_selected="false"
       apply_with_weight="true"
       apply_no_weight="true"
       helper_size="0"
       steps="2"
       weight="33.333333"
       is_visible="true"
       id="path-effect2379-1"
       effect="bspline" />
    <inkscape:path-effect
       effect="bspline"
       id="path-effect2365-9"
       is_visible="true"
       weight="33.333333"
       steps="2"
       helper_size="0"
       apply_no_weight="true"
       apply_with_weight="true"
       only_selected="false" />
    <inkscape:path-effect
       effect="bspline"
       id="path-effect2357-8"
       is_visible="true"
       weight="33.333333"
       steps="2"
       helper_size="0"
       apply_no_weight="true"
       apply_with_weight="true"
       only_selected="false" />
    <inkscape:path-effect
       effect="bspline"
       id="path-effect2353-6"
       is_visible="true"
       weight="33.333333"
       steps="2"
       helper_size="0"
       apply_no_weight="true"
       apply_with_weight="true"
       only_selected="false" />
    <inkscape:path-effect
       effect="bspline"
       id="path-effect2349-9"
       is_visible="true"
       weight="33.333333"
       steps="2"
       helper_size="0"
       apply_no_weight="true"
       apply_with_weight="true"
       only_selected="false" />
    <inkscape:path-effect
       effect="bspline"
       id="path-effect1058-3"
       is_visible="true"
       weight="33.333333"
       steps="2"
       helper_size="0"
       apply_no_weight="true"
       apply_with_weight="true"
       only_selected="false" />
  </defs>
  <sodipodi:namedview
     id="base"
     pagecolor="#ffffff"
     bordercolor="#666666"
     borderopacity="1.0"
     inkscape:pageopacity="0.0"
     inkscape:pageshadow="2"
     inkscape:zoom="0.97250323"
     inkscape:cx="312.69567"
     inkscape:cy="189.45496"
     inkscape:document-units="mm"
     inkscape:current-layer="layer3"
     showgrid="false"
     inkscape:window-width="1440"
     inkscape:window-height="856"
     inkscape:window-x="-2"
     inkscape:window-y="0"
     inkscape:window-maximized="0"
     showguides="false"
     fit-margin-top="10"
     fit-margin-left="10"
     fit-margin-right="10"
     fit-margin-bottom="10"
     inkscape:object-nodes="false">
    <inkscape:grid
       type="xygrid"
       id="grid1533"
       originx="-27.482538"
       originy="-16.834485" />
  </sodipodi:namedview>
  <metadata
     id="metadata844">
    <rdf:RDF>
      <cc:Work
         rdf:about="">
        <dc:format>image/svg+xml</dc:format>
        <dc:type
           rdf:resource="http://purl.org/dc/dcmitype/StillImage" />
        <dc:title></dc:title>
      </cc:Work>
    </rdf:RDF>
  </metadata>
  <g
     inkscape:groupmode="layer"
     id="layer3"
     inkscape:label="texte 1">
    <path
       style="display:inline;fill:none;stroke:#b3b3b3;stroke-width:0.26499999;stroke-linecap:butt;stroke-linejoin:miter;stroke-miterlimit:4;stroke-dasharray:none;stroke-opacity:1"
       d="m 168.52721,48.738502 c -23.06598,0 -46.13222,0 -69.198736,0"
       id="path1056"
       inkscape:connector-curvature="0"
       inkscape:path-effect="#path-effect1058-3"
       inkscape:original-d="m 168.52721,48.738502 c -23.06598,-2.65e-4 -46.13222,-2.65e-4 -69.198736,0"
       sodipodi:nodetypes="cc" />
    <text
       id="text1238"
       y="46.67104"
       x="124.77296"
       style="font-style:normal;font-variant:normal;font-weight:normal;font-stretch:normal;font-size:7.05555534px;line-height:1.25;font-family:'Helvetica Neue';-inkscape-font-specification:'Helvetica Neue, Normal';font-variant-ligatures:normal;font-variant-caps:normal;font-variant-numeric:normal;font-feature-settings:normal;text-align:start;letter-spacing:0px;word-spacing:0px;writing-mode:lr-tb;text-anchor:start;display:inline;fill:#b3b3b3;fill-opacity:1;stroke:none;stroke-width:0.26458332"
       xml:space="preserve"><tspan
         style="stroke-width:0.26458332"
         sodipodi:role="line"
         id="tspan1240"
         x="124.77296"
         y="46.67104">SSH TUNNEL</tspan></text>
  </g>
  <g
     inkscape:label="Calque 1"
     inkscape:groupmode="layer"
     id="layer1"
     transform="translate(-27.48254,-179.91227)"
     style="display:inline">
    <path
       sodipodi:nodetypes="czzc"
       inkscape:original-d="m 72.824397,209.32512 c 0,0 31.633373,0.0369 47.449653,0.0558 0.28783,10.62628 0.57539,21.25282 0.86269,31.87963 -2.41479,4.59943 -7.24516,13.79908 -7.24516,13.79908"
       inkscape:path-effect="#path-effect2304"
       inkscape:connector-curvature="0"
       id="path2302"
       d="m 72.824397,209.32512 c 15.816551,0.0186 31.633373,0.0372 39.685293,5.35964 8.05192,5.32245 8.33948,15.94899 7.27582,23.56208 -1.06366,7.61309 -3.47888,12.2131 -5.89393,16.81279"
       style="fill:none;stroke:#808080;stroke-width:0.79503804;stroke-linecap:butt;stroke-linejoin:miter;stroke-miterlimit:4;stroke-dasharray:none;stroke-opacity:1;marker-end:url(#marker2663)" />
    <path
       id="path998"
       d="m 59.090314,210.85858 c -1.977496,0 -2.928349,1.10244 -6.17365,1.10244 -3.245299,0 -4.189261,-1.10244 -6.173648,-1.10244 -5.112555,0 -9.260476,4.14792 -9.260476,9.26048 v 1.7639 c 0,1.82591 1.4814,3.30731 3.307312,3.30731 h 24.253621 c 1.82592,0 3.30732,-1.4814 3.30732,-3.30731 v -1.7639 c 0,-5.11256 -4.14792,-9.26048 -9.260479,-9.26048 z m 5.953159,11.02438 H 40.789852 v -1.7639 c 0,-3.27975 2.673411,-5.95317 5.953164,-5.95317 1.005972,0 2.638959,1.10244 6.173648,1.10244 3.562251,0 5.160787,-1.10244 6.17365,-1.10244 3.279749,0 5.953159,2.67342 5.953159,5.95317 z M 52.916664,209.75614 c 5.477737,0 9.921939,-4.4442 9.921939,-9.92193 0,-5.47774 -4.444202,-9.92194 -9.921939,-9.92194 -5.477735,0 -9.921937,4.4442 -9.921937,9.92194 0,5.47773 4.444202,9.92193 9.921937,9.92193 z m 0,-16.53656 c 3.644934,0 6.614629,2.96969 6.614629,6.61463 0,3.64493 -2.969695,6.61462 -6.614629,6.61462 -3.644932,0 -6.614625,-2.96969 -6.614625,-6.61462 0,-3.64494 2.969693,-6.61463 6.614625,-6.61463 z"
       inkscape:connector-curvature="0"
       style="fill:currentColor;stroke-width:0.06890234" />
    <path
       style="display:inline;fill:currentColor;stroke-width:0.19531004"
       d="m 370.08789,77.447266 c -2.59763,0 -4.6875,2.089868 -4.6875,4.6875 v 57.001954 h 9.41016 l 0.0625,-52.314454 56.3457,0.195312 V 167.875 h -21.97266 v -13.08398 c 0,-1.28905 -1.05474,-2.34375 -2.34375,-2.34375 h -6.47461 v 24.99804 h 46.31836 v -7.03125 c 0,-1.28904 -1.05474,-2.34375 -2.34375,-2.34375 h -3.80859 V 82.134766 c 0,-2.597632 -2.08987,-4.6875 -4.6875,-4.6875 z m 16.50195,18.75 c -1.28908,0 -2.34375,1.054704 -2.34375,2.34375 v 7.812504 c 0,1.28904 1.05467,2.34375 2.34375,2.34375 h 7.8125 c 1.28901,0 2.34375,-1.05471 2.34375,-2.34375 v -7.812504 c 0,-1.289046 -1.05474,-2.34375 -2.34375,-2.34375 z m 25,0 c -1.289,0 -2.34375,1.054704 -2.34375,2.34375 v 7.812504 c 0,1.28904 1.05475,2.34375 2.34375,2.34375 h 7.8125 c 1.28909,0 2.34375,-1.05471 2.34375,-2.34375 v -7.812504 c 0,-1.289046 -1.05466,-2.34375 -2.34375,-2.34375 z m -25,18.750004 c -1.28908,0 -2.34375,1.0547 -2.34375,2.34375 v 7.8125 c 0,1.28904 1.05467,2.34375 2.34375,2.34375 h 7.8125 c 1.28901,0 2.34375,-1.05471 2.34375,-2.34375 v -7.8125 c 0,-1.28905 -1.05474,-2.34375 -2.34375,-2.34375 z m 25,0 c -1.289,0 -2.34375,1.0547 -2.34375,2.34375 v 7.8125 c 0,1.28904 1.05475,2.34375 2.34375,2.34375 h 7.8125 c 1.28909,0 2.34375,-1.05471 2.34375,-2.34375 v -7.8125 c 0,-1.28905 -1.05466,-2.34375 -2.34375,-2.34375 z m -25,18.75 c -1.28908,0 -2.34375,1.0547 -2.34375,2.34375 v 3.0957 h 12.5 v -3.0957 c 0,-1.28905 -1.05474,-2.34375 -2.34375,-2.34375 z m 25,0 c -1.289,0 -2.34375,1.0547 -2.34375,2.34375 v 7.8125 c 0,1.28904 1.05475,2.34375 2.34375,2.34375 h 7.8125 c 1.28909,0 2.34375,-1.05471 2.34375,-2.34375 v -7.8125 c 0,-1.28905 -1.05466,-2.34375 -2.34375,-2.34375 z"
       transform="matrix(0.26458333,0,0,0.26458333,23.287498,176.57179)"
       id="path987-0"
       inkscape:connector-curvature="0" />
    <path
       inkscape:connector-curvature="0"
       style="display:inline;opacity:1;fill:currentColor;stroke-width:0.0172114"
       d="m 94.987482,258.04749 c -0.05702,0 -0.103238,0.0469 -0.103238,0.1039 v 0.30985 h -0.103248 c -0.05702,0 -0.103184,0.0468 -0.103184,0.1041 v 0.72287 h 0.826116 v -0.72287 c 0,-0.058 -0.04621,-0.1041 -0.103236,-0.1041 h -0.103186 v -0.30994 c 0,-0.058 -0.04621,-0.1035 -0.103235,-0.1035 z m 1.652303,0 c -0.05702,0 -0.103238,0.0469 -0.103238,0.1039 v 0.30985 h -0.103238 c -0.05702,0 -0.103185,0.0468 -0.103185,0.1041 v 0.72287 h 0.826115 v -0.72287 c 0,-0.058 -0.0462,-0.1041 -0.10324,-0.1041 h -0.10318 v -0.30994 c 0,-0.058 -0.0462,-0.1035 -0.10324,-0.1035 z m 1.652218,0 c -0.057,0 -0.10318,0.0469 -0.10318,0.1039 v 0.30985 h -0.10324 c -0.057,0 -0.10324,0.0468 -0.10324,0.1041 v 0.72287 h 0.826177 v -0.72287 c 0,-0.058 -0.0462,-0.1041 -0.10323,-0.1041 h -0.10324 v -0.30994 c 0,-0.058 -0.0462,-0.1035 -0.10317,-0.1035 z m 1.6523,0 c -0.057,0 -0.10318,0.0469 -0.10318,0.1039 v 0.30985 h -0.10324 c -0.057,0 -0.10324,0.0468 -0.10324,0.1041 v 0.72287 h 0.826187 v -0.72287 c 0,-0.058 -0.0462,-0.1041 -0.10324,-0.1041 h -0.10324 v -0.30994 c 0,-0.058 -0.0461,-0.1035 -0.10318,-0.1035 z m -5.954263,1.65146 c -0.456271,0 -0.826192,0.36988 -0.826192,0.82608 v 7.16003 c 0,0.45627 0.369921,0.82615 0.826192,0.82615 h 7.15829 c 0.45627,0 0.82611,-0.36988 0.82611,-0.82615 v -7.16003 c 0,-0.4562 -0.36984,-0.82608 -0.82611,-0.82608 z m -1.962105,1.51461 c -0.05702,0 -0.103234,0.0469 -0.103234,0.10446 v 0.1039 h -0.309809 c -0.05702,0 -0.103238,0.0469 -0.103238,0.10388 v 0.20658 c 0,0.058 0.04621,0.10389 0.103238,0.10389 H 91.9247 v 0.10446 c 10e-7,0.058 0.04621,0.1042 0.103234,0.1042 h 0.722899 v -0.82618 z m 10.359605,0 v 0.82623 h 0.7229 c 0.057,0 0.10318,-0.0469 0.10318,-0.1044 v -0.10446 h 0.30981 c 0.057,0 0.10323,-0.0468 0.10323,-0.10446 v -0.20661 c 0,-0.058 -0.0462,-0.1042 -0.10323,-0.1042 h -0.30981 v -0.10418 c 0,-0.058 -0.0461,-0.1042 -0.10318,-0.1042 z m -7.481146,0.0815 h 0.70399 v 4.61067 h 2.533549 v 0.59244 h -3.237539 z m -2.878459,1.57198 c -0.05702,0 -0.103234,0.0469 -0.103234,0.10456 v 0.10447 h -0.309809 c -0.05702,0 -0.103238,0.0469 -0.103238,0.10449 v 0.20647 c 0,0.058 0.04621,0.1039 0.103238,0.1039 H 91.9247 v 0.10387 c 0,0.058 0.04621,0.10398 0.103234,0.10398 h 0.722899 v -0.82637 z m 10.359605,0 v 0.82614 h 0.7229 c 0.057,0 0.10318,-0.0468 0.10318,-0.10368 v -0.10436 h 0.30981 c 0.057,0 0.10323,-0.0469 0.10323,-0.10389 v -0.20652 c 0,-0.058 -0.0462,-0.10399 -0.10323,-0.10399 h -0.30981 v -0.10369 c 0,-0.058 -0.0462,-0.10436 -0.10318,-0.10436 z m -10.359605,1.65231 c -0.05702,0 -0.103234,0.0469 -0.103234,0.10446 v 0.10368 h -0.309809 c -0.05702,0 -0.103238,0.0469 -0.103238,0.1043 v 0.20625 c 0,0.058 0.04621,0.1043 0.103238,0.1043 H 91.9247 v 0.1041 c 0,0.058 0.04621,0.1041 0.103234,0.1041 h 0.722899 v -0.82611 z m 10.359605,0 v 0.8261 h 0.7229 c 0.057,0 0.10318,-0.0468 0.10318,-0.10399 v -0.1041 h 0.30981 c 0.057,0 0.10323,-0.0469 0.10323,-0.10467 v -0.20654 c 0,-0.058 -0.0462,-0.10446 -0.10323,-0.10446 h -0.30981 v -0.10347 c 0,-0.058 -0.0461,-0.1042 -0.10318,-0.1042 z m -10.359605,1.65227 c -0.05702,0 -0.103234,0.0468 -0.103234,0.1043 v 0.10446 h -0.309809 c -0.05702,0 -0.103238,0.0469 -0.103238,0.1041 v 0.20657 c 1e-6,0.058 0.04621,0.10466 0.103238,0.10466 H 91.9247 v 0.10456 c 0,0.058 0.04621,0.10431 0.103234,0.10431 h 0.722899 v -0.82625 z m 10.359605,0 v 0.82613 h 0.7229 c 0.057,0 0.10318,-0.0468 0.10318,-0.1043 v -0.10449 h 0.30981 c 0.057,0 0.10323,-0.0469 0.10323,-0.10437 v -0.20647 c 0,-0.058 -0.0462,-0.10446 -0.10323,-0.10446 h -0.30981 v -0.1043 c 0,-0.058 -0.0461,-0.10399 -0.10318,-0.10399 z m -7.70986,2.75298 v 0.72287 c 0,0.058 0.04615,0.10431 0.103184,0.10431 h 0.103238 v 0.30984 c 0,0.058 0.04621,0.1039 0.103236,0.1039 h 0.206519 c 0.05702,0 0.103238,-0.0469 0.103238,-0.1039 v -0.30984 h 0.103185 c 0.05702,0 0.103238,-0.0469 0.103238,-0.10431 v -0.72287 z m 1.652302,0 v 0.72287 c -10e-7,0.058 0.04615,0.10431 0.103185,0.10431 h 0.103237 v 0.30984 c 0,0.058 0.04621,0.1039 0.103237,0.1039 h 0.206508 c 0.057,0 0.10324,-0.0469 0.10324,-0.1039 v -0.30984 h 0.10318 c 0.057,0 0.10324,-0.0469 0.10324,-0.10431 v -0.72287 z m 1.652221,0 v 0.72287 c 0,0.058 0.0462,0.10431 0.10324,0.10431 h 0.10324 v 0.30984 c 0,0.058 0.0461,0.1039 0.10318,0.1039 h 0.206577 c 0.057,0 0.10317,-0.0469 0.10317,-0.1039 v -0.30984 h 0.10324 c 0.057,0 0.10324,-0.0469 0.10324,-0.10431 v -0.72287 z m 1.6523,0 v 0.72287 c 0,0.058 0.0462,0.10431 0.10324,0.10431 h 0.10325 v 0.30984 c 0,0.058 0.0461,0.1039 0.10318,0.1039 h 0.206577 c 0.057,0 0.10319,-0.0469 0.10319,-0.1039 v -0.30984 h 0.10324 c 0.057,0 0.10323,-0.0469 0.10323,-0.10431 v -0.72287 z"
       id="path1186" />
    <path
       id="path1030"
       d="m 94.987482,258.04749 c -0.05702,0 -0.103238,0.0469 -0.103238,0.1039 v 0.30985 h -0.103248 c -0.05702,0 -0.103184,0.0468 -0.103184,0.1041 v 0.72287 h 0.826116 v -0.72287 c 0,-0.058 -0.04621,-0.1041 -0.103236,-0.1041 h -0.103186 v -0.30994 c 0,-0.058 -0.04621,-0.1035 -0.103235,-0.1035 z m 1.652303,0 c -0.05702,0 -0.103238,0.0469 -0.103238,0.1039 v 0.30985 h -0.103238 c -0.05702,0 -0.103185,0.0468 -0.103185,0.1041 v 0.72287 h 0.826115 v -0.72287 c 0,-0.058 -0.0462,-0.1041 -0.10324,-0.1041 h -0.10318 v -0.30994 c 0,-0.058 -0.0462,-0.1035 -0.10324,-0.1035 z m 1.652218,0 c -0.057,0 -0.10318,0.0469 -0.10318,0.1039 v 0.30985 h -0.10324 c -0.057,0 -0.10324,0.0468 -0.10324,0.1041 v 0.72287 h 0.826177 v -0.72287 c 0,-0.058 -0.0462,-0.1041 -0.10323,-0.1041 h -0.10324 v -0.30994 c 0,-0.058 -0.0462,-0.1035 -0.10317,-0.1035 z m 1.6523,0 c -0.057,0 -0.10318,0.0469 -0.10318,0.1039 v 0.30985 h -0.10324 c -0.057,0 -0.10324,0.0468 -0.10324,0.1041 v 0.72287 h 0.826187 v -0.72287 c 0,-0.058 -0.0462,-0.1041 -0.10324,-0.1041 h -0.10324 v -0.30994 c 0,-0.058 -0.0461,-0.1035 -0.10318,-0.1035 z m -5.954263,1.65146 c -0.456271,0 -0.826192,0.36988 -0.826192,0.82608 v 7.16003 c 0,0.45627 0.369921,0.82615 0.826192,0.82615 h 7.15829 c 0.45627,0 0.82611,-0.36988 0.82611,-0.82615 v -7.16003 c 0,-0.4562 -0.36984,-0.82608 -0.82611,-0.82608 z m -1.962105,1.51461 c -0.05702,0 -0.103234,0.0469 -0.103234,0.10446 v 0.1039 h -0.309809 c -0.05702,0 -0.103238,0.0469 -0.103238,0.10388 v 0.20658 c 0,0.058 0.04621,0.10389 0.103238,0.10389 H 91.9247 v 0.10446 c 10e-7,0.058 0.04621,0.1042 0.103234,0.1042 h 0.722899 v -0.82618 z m 10.359605,0 v 0.82623 h 0.7229 c 0.057,0 0.10318,-0.0469 0.10318,-0.1044 v -0.10446 h 0.30981 c 0.057,0 0.10323,-0.0468 0.10323,-0.10446 v -0.20661 c 0,-0.058 -0.0462,-0.1042 -0.10323,-0.1042 h -0.30981 v -0.10418 c 0,-0.058 -0.0461,-0.1042 -0.10318,-0.1042 z m -7.481146,0.0815 h 0.70399 v 4.61067 h 2.533549 v 0.59244 h -3.237539 z m -2.878459,1.57198 c -0.05702,0 -0.103234,0.0469 -0.103234,0.10456 v 0.10447 h -0.309809 c -0.05702,0 -0.103238,0.0469 -0.103238,0.10449 v 0.20647 c 0,0.058 0.04621,0.1039 0.103238,0.1039 H 91.9247 v 0.10387 c 0,0.058 0.04621,0.10398 0.103234,0.10398 h 0.722899 v -0.82637 z m 10.359605,0 v 0.82614 h 0.7229 c 0.057,0 0.10318,-0.0468 0.10318,-0.10368 v -0.10436 h 0.30981 c 0.057,0 0.10323,-0.0469 0.10323,-0.10389 v -0.20652 c 0,-0.058 -0.0462,-0.10399 -0.10323,-0.10399 h -0.30981 v -0.10369 c 0,-0.058 -0.0462,-0.10436 -0.10318,-0.10436 z m -10.359605,1.65231 c -0.05702,0 -0.103234,0.0469 -0.103234,0.10446 v 0.10368 h -0.309809 c -0.05702,0 -0.103238,0.0469 -0.103238,0.1043 v 0.20625 c 0,0.058 0.04621,0.1043 0.103238,0.1043 H 91.9247 v 0.1041 c 0,0.058 0.04621,0.1041 0.103234,0.1041 h 0.722899 v -0.82611 z m 10.359605,0 v 0.8261 h 0.7229 c 0.057,0 0.10318,-0.0468 0.10318,-0.10399 v -0.1041 h 0.30981 c 0.057,0 0.10323,-0.0469 0.10323,-0.10467 v -0.20654 c 0,-0.058 -0.0462,-0.10446 -0.10323,-0.10446 h -0.30981 v -0.10347 c 0,-0.058 -0.0461,-0.1042 -0.10318,-0.1042 z m -10.359605,1.65227 c -0.05702,0 -0.103234,0.0468 -0.103234,0.1043 v 0.10446 h -0.309809 c -0.05702,0 -0.103238,0.0469 -0.103238,0.1041 v 0.20657 c 1e-6,0.058 0.04621,0.10466 0.103238,0.10466 H 91.9247 v 0.10456 c 0,0.058 0.04621,0.10431 0.103234,0.10431 h 0.722899 v -0.82625 z m 10.359605,0 v 0.82613 h 0.7229 c 0.057,0 0.10318,-0.0468 0.10318,-0.1043 v -0.10449 h 0.30981 c 0.057,0 0.10323,-0.0469 0.10323,-0.10437 v -0.20647 c 0,-0.058 -0.0462,-0.10446 -0.10323,-0.10446 h -0.30981 v -0.1043 c 0,-0.058 -0.0461,-0.10399 -0.10318,-0.10399 z m -7.70986,2.75298 v 0.72287 c 0,0.058 0.04615,0.10431 0.103184,0.10431 h 0.103238 v 0.30984 c 0,0.058 0.04621,0.1039 0.103236,0.1039 h 0.206519 c 0.05702,0 0.103238,-0.0469 0.103238,-0.1039 v -0.30984 h 0.103185 c 0.05702,0 0.103238,-0.0469 0.103238,-0.10431 v -0.72287 z m 1.652302,0 v 0.72287 c -10e-7,0.058 0.04615,0.10431 0.103185,0.10431 h 0.103237 v 0.30984 c 0,0.058 0.04621,0.1039 0.103237,0.1039 h 0.206508 c 0.057,0 0.10324,-0.0469 0.10324,-0.1039 v -0.30984 h 0.10318 c 0.057,0 0.10324,-0.0469 0.10324,-0.10431 v -0.72287 z m 1.652221,0 v 0.72287 c 0,0.058 0.0462,0.10431 0.10324,0.10431 h 0.10324 v 0.30984 c 0,0.058 0.0461,0.1039 0.10318,0.1039 h 0.206577 c 0.057,0 0.10317,-0.0469 0.10317,-0.1039 v -0.30984 h 0.10324 c 0.057,0 0.10324,-0.0469 0.10324,-0.10431 v -0.72287 z m 1.6523,0 v 0.72287 c 0,0.058 0.0462,0.10431 0.10324,0.10431 h 0.10325 v 0.30984 c 0,0.058 0.0461,0.1039 0.10318,0.1039 h 0.206577 c 0.057,0 0.10319,-0.0469 0.10319,-0.1039 v -0.30984 h 0.10324 c 0.057,0 0.10323,-0.0469 0.10323,-0.10431 v -0.72287 z"
       style="display:inline;opacity:1;fill:currentColor;stroke-width:0.0172114"
       inkscape:connector-curvature="0" />
    <path
       inkscape:connector-curvature="0"
       style="display:inline;opacity:1;fill:currentColor;stroke-width:0.0172114"
       d="m 110.86248,258.04749 c -0.057,0 -0.10324,0.0469 -0.10324,0.1039 v 0.30985 h -0.10325 c -0.057,0 -0.10318,0.0468 -0.10318,0.1041 v 0.72287 h 0.82612 v -0.72287 c 0,-0.058 -0.0462,-0.1041 -0.10324,-0.1041 h -0.10319 v -0.30994 c 0,-0.058 -0.0462,-0.1035 -0.10323,-0.1035 z m 1.6523,0 c -0.057,0 -0.10324,0.0469 -0.10324,0.1039 v 0.30985 h -0.10323 c -0.057,0 -0.10319,0.0468 -0.10319,0.1041 v 0.72287 h 0.82612 v -0.72287 c 0,-0.058 -0.0462,-0.1041 -0.10324,-0.1041 h -0.10318 v -0.30994 c 0,-0.058 -0.0462,-0.1035 -0.10324,-0.1035 z m 1.65223,0 c -0.057,0 -0.10318,0.0469 -0.10318,0.1039 v 0.30985 h -0.10324 c -0.057,0 -0.10324,0.0468 -0.10324,0.1041 v 0.72287 h 0.82618 v -0.72287 c 0,-0.058 -0.0462,-0.1041 -0.10323,-0.1041 h -0.10324 v -0.30994 c 0,-0.058 -0.0462,-0.1035 -0.10317,-0.1035 z m 1.6523,0 c -0.057,0 -0.10318,0.0469 -0.10318,0.1039 v 0.30985 h -0.10324 c -0.057,0 -0.10324,0.0468 -0.10324,0.1041 v 0.72287 h 0.82619 v -0.72287 c 0,-0.058 -0.0462,-0.1041 -0.10324,-0.1041 h -0.10324 v -0.30994 c 0,-0.058 -0.0461,-0.1035 -0.10318,-0.1035 z m -5.95427,1.65146 c -0.45627,0 -0.82619,0.36988 -0.82619,0.82608 v 7.16003 c 0,0.45627 0.36992,0.82615 0.82619,0.82615 h 7.1583 c 0.45627,0 0.82611,-0.36988 0.82611,-0.82615 v -7.16003 c 0,-0.4562 -0.36984,-0.82608 -0.82611,-0.82608 z m -1.96211,1.51461 c -0.057,0 -0.10323,0.0469 -0.10323,0.10446 v 0.1039 h -0.30981 c -0.057,0 -0.10324,0.0469 -0.10324,0.10388 v 0.20658 c 0,0.058 0.0462,0.10389 0.10324,0.10389 h 0.30981 v 0.10446 c 0,0.058 0.0462,0.1042 0.10323,0.1042 h 0.7229 v -0.82618 z m 10.35962,0 v 0.82623 h 0.7229 c 0.057,0 0.10318,-0.0469 0.10318,-0.1044 v -0.10446 h 0.30981 c 0.057,0 0.10323,-0.0468 0.10323,-0.10446 v -0.20661 c 0,-0.058 -0.0462,-0.1042 -0.10323,-0.1042 h -0.30981 v -0.10418 c 0,-0.058 -0.0461,-0.1042 -0.10318,-0.1042 z m -7.48116,0.0815 h 0.70399 v 4.61067 h 2.53356 v 0.59244 h -3.23755 z m -2.87846,1.57198 c -0.057,0 -0.10323,0.0469 -0.10323,0.10456 v 0.10447 h -0.30981 c -0.057,0 -0.10324,0.0469 -0.10324,0.10449 v 0.20647 c 0,0.058 0.0462,0.1039 0.10324,0.1039 h 0.30981 v 0.10387 c 0,0.058 0.0462,0.10398 0.10323,0.10398 h 0.7229 v -0.82637 z m 10.35962,0 v 0.82614 h 0.7229 c 0.057,0 0.10318,-0.0468 0.10318,-0.10368 v -0.10436 h 0.30981 c 0.057,0 0.10323,-0.0469 0.10323,-0.10389 v -0.20652 c 0,-0.058 -0.0462,-0.10399 -0.10323,-0.10399 h -0.30981 v -0.10369 c 0,-0.058 -0.0462,-0.10436 -0.10318,-0.10436 z m -10.35962,1.65231 c -0.057,0 -0.10323,0.0469 -0.10323,0.10446 v 0.10368 h -0.30981 c -0.057,0 -0.10324,0.0469 -0.10324,0.1043 v 0.20625 c 0,0.058 0.0462,0.1043 0.10324,0.1043 h 0.30981 v 0.1041 c 0,0.058 0.0462,0.1041 0.10323,0.1041 h 0.7229 v -0.82611 z m 10.35962,0 v 0.8261 h 0.7229 c 0.057,0 0.10318,-0.0468 0.10318,-0.10399 v -0.1041 h 0.30981 c 0.057,0 0.10323,-0.0469 0.10323,-0.10467 v -0.20654 c 0,-0.058 -0.0462,-0.10446 -0.10323,-0.10446 h -0.30981 v -0.10347 c 0,-0.058 -0.0461,-0.1042 -0.10318,-0.1042 z m -10.35962,1.65227 c -0.057,0 -0.10323,0.0468 -0.10323,0.1043 v 0.10446 h -0.30981 c -0.057,0 -0.10324,0.0469 -0.10324,0.1041 v 0.20657 c 0,0.058 0.0462,0.10466 0.10324,0.10466 h 0.30981 v 0.10456 c 0,0.058 0.0462,0.10431 0.10323,0.10431 h 0.7229 v -0.82625 z m 10.35962,0 v 0.82613 h 0.7229 c 0.057,0 0.10318,-0.0468 0.10318,-0.1043 v -0.10449 h 0.30981 c 0.057,0 0.10323,-0.0469 0.10323,-0.10437 v -0.20647 c 0,-0.058 -0.0462,-0.10446 -0.10323,-0.10446 h -0.30981 v -0.1043 c 0,-0.058 -0.0461,-0.10399 -0.10318,-0.10399 z m -7.70987,2.75298 v 0.72287 c 0,0.058 0.0461,0.10431 0.10318,0.10431 h 0.10324 v 0.30984 c 0,0.058 0.0462,0.1039 0.10324,0.1039 h 0.20651 c 0.057,0 0.10324,-0.0469 0.10324,-0.1039 v -0.30984 h 0.10319 c 0.057,0 0.10324,-0.0469 0.10324,-0.10431 v -0.72287 z m 1.6523,0 v 0.72287 c 0,0.058 0.0461,0.10431 0.10318,0.10431 h 0.10324 v 0.30984 c 0,0.058 0.0462,0.1039 0.10324,0.1039 h 0.20651 c 0.057,0 0.10324,-0.0469 0.10324,-0.1039 v -0.30984 h 0.10318 c 0.057,0 0.10324,-0.0469 0.10324,-0.10431 v -0.72287 z m 1.65223,0 v 0.72287 c 0,0.058 0.0462,0.10431 0.10324,0.10431 h 0.10324 v 0.30984 c 0,0.058 0.0461,0.1039 0.10318,0.1039 h 0.20658 c 0.057,0 0.10317,-0.0469 0.10317,-0.1039 v -0.30984 h 0.10324 c 0.057,0 0.10324,-0.0469 0.10324,-0.10431 v -0.72287 z m 1.6523,0 v 0.72287 c 0,0.058 0.0462,0.10431 0.10324,0.10431 h 0.10325 v 0.30984 c 0,0.058 0.0461,0.1039 0.10318,0.1039 h 0.20658 c 0.057,0 0.10319,-0.0469 0.10319,-0.1039 v -0.30984 h 0.10324 c 0.057,0 0.10323,-0.0469 0.10323,-0.10431 v -0.72287 z"
       id="path1038" />
    <path
       id="path1040"
       d="m 126.73749,258.04749 c -0.057,0 -0.10324,0.0469 -0.10324,0.1039 v 0.30985 H 126.531 c -0.057,0 -0.10318,0.0468 -0.10318,0.1041 v 0.72287 h 0.82612 v -0.72287 c 0,-0.058 -0.0462,-0.1041 -0.10324,-0.1041 h -0.10319 v -0.30994 c 0,-0.058 -0.0462,-0.1035 -0.10323,-0.1035 z m 1.6523,0 c -0.057,0 -0.10324,0.0469 -0.10324,0.1039 v 0.30985 h -0.10323 c -0.057,0 -0.10319,0.0468 -0.10319,0.1041 v 0.72287 h 0.82612 v -0.72287 c 0,-0.058 -0.0462,-0.1041 -0.10324,-0.1041 h -0.10318 v -0.30994 c 0,-0.058 -0.0462,-0.1035 -0.10324,-0.1035 z m 1.65223,0 c -0.057,0 -0.10318,0.0469 -0.10318,0.1039 v 0.30985 h -0.10324 c -0.057,0 -0.10324,0.0468 -0.10324,0.1041 v 0.72287 h 0.82618 v -0.72287 c 0,-0.058 -0.0462,-0.1041 -0.10323,-0.1041 h -0.10324 v -0.30994 c 0,-0.058 -0.0462,-0.1035 -0.10317,-0.1035 z m 1.6523,0 c -0.057,0 -0.10318,0.0469 -0.10318,0.1039 v 0.30985 h -0.10324 c -0.057,0 -0.10324,0.0468 -0.10324,0.1041 v 0.72287 h 0.82619 v -0.72287 c 0,-0.058 -0.0462,-0.1041 -0.10324,-0.1041 h -0.10324 v -0.30994 c 0,-0.058 -0.0461,-0.1035 -0.10318,-0.1035 z m -5.95427,1.65146 c -0.45627,0 -0.82619,0.36988 -0.82619,0.82608 v 7.16003 c 0,0.45627 0.36992,0.82615 0.82619,0.82615 h 7.1583 c 0.45627,0 0.82611,-0.36988 0.82611,-0.82615 v -7.16003 c 0,-0.4562 -0.36984,-0.82608 -0.82611,-0.82608 z m -1.96211,1.51461 c -0.057,0 -0.10323,0.0469 -0.10323,0.10446 v 0.1039 h -0.30981 c -0.057,0 -0.10324,0.0469 -0.10324,0.10388 v 0.20658 c 0,0.058 0.0462,0.10389 0.10324,0.10389 h 0.30981 v 0.10446 c 0,0.058 0.0462,0.1042 0.10323,0.1042 h 0.7229 v -0.82618 z m 10.35962,0 v 0.82623 h 0.7229 c 0.057,0 0.10318,-0.0469 0.10318,-0.1044 v -0.10446 h 0.30981 c 0.057,0 0.10323,-0.0468 0.10323,-0.10446 v -0.20661 c 0,-0.058 -0.0462,-0.1042 -0.10323,-0.1042 h -0.30981 v -0.10418 c 0,-0.058 -0.0461,-0.1042 -0.10318,-0.1042 z m -7.48116,0.0815 h 0.70399 v 4.61067 h 2.53356 v 0.59244 h -3.23755 z m -2.87846,1.57198 c -0.057,0 -0.10323,0.0469 -0.10323,0.10456 v 0.10447 h -0.30981 c -0.057,0 -0.10324,0.0469 -0.10324,0.10449 v 0.20647 c 0,0.058 0.0462,0.1039 0.10324,0.1039 h 0.30981 v 0.10387 c 0,0.058 0.0462,0.10398 0.10323,0.10398 h 0.7229 v -0.82637 z m 10.35962,0 v 0.82614 h 0.7229 c 0.057,0 0.10318,-0.0468 0.10318,-0.10368 v -0.10436 h 0.30981 c 0.057,0 0.10323,-0.0469 0.10323,-0.10389 v -0.20652 c 0,-0.058 -0.0462,-0.10399 -0.10323,-0.10399 h -0.30981 v -0.10369 c 0,-0.058 -0.0462,-0.10436 -0.10318,-0.10436 z m -10.35962,1.65231 c -0.057,0 -0.10323,0.0469 -0.10323,0.10446 v 0.10368 h -0.30981 c -0.057,0 -0.10324,0.0469 -0.10324,0.1043 v 0.20625 c 0,0.058 0.0462,0.1043 0.10324,0.1043 h 0.30981 v 0.1041 c 0,0.058 0.0462,0.1041 0.10323,0.1041 h 0.7229 v -0.82611 z m 10.35962,0 v 0.8261 h 0.7229 c 0.057,0 0.10318,-0.0468 0.10318,-0.10399 v -0.1041 h 0.30981 c 0.057,0 0.10323,-0.0469 0.10323,-0.10467 v -0.20654 c 0,-0.058 -0.0462,-0.10446 -0.10323,-0.10446 h -0.30981 v -0.10347 c 0,-0.058 -0.0461,-0.1042 -0.10318,-0.1042 z m -10.35962,1.65227 c -0.057,0 -0.10323,0.0468 -0.10323,0.1043 v 0.10446 h -0.30981 c -0.057,0 -0.10324,0.0469 -0.10324,0.1041 v 0.20657 c 0,0.058 0.0462,0.10466 0.10324,0.10466 h 0.30981 v 0.10456 c 0,0.058 0.0462,0.10431 0.10323,0.10431 h 0.7229 v -0.82625 z m 10.35962,0 v 0.82613 h 0.7229 c 0.057,0 0.10318,-0.0468 0.10318,-0.1043 v -0.10449 h 0.30981 c 0.057,0 0.10323,-0.0469 0.10323,-0.10437 v -0.20647 c 0,-0.058 -0.0462,-0.10446 -0.10323,-0.10446 h -0.30981 v -0.1043 c 0,-0.058 -0.0461,-0.10399 -0.10318,-0.10399 z m -7.70987,2.75298 v 0.72287 c 0,0.058 0.0461,0.10431 0.10318,0.10431 h 0.10324 v 0.30984 c 0,0.058 0.0462,0.1039 0.10324,0.1039 h 0.20651 c 0.057,0 0.10324,-0.0469 0.10324,-0.1039 v -0.30984 h 0.10319 c 0.057,0 0.10324,-0.0469 0.10324,-0.10431 v -0.72287 z m 1.6523,0 v 0.72287 c 0,0.058 0.0461,0.10431 0.10318,0.10431 h 0.10324 v 0.30984 c 0,0.058 0.0462,0.1039 0.10324,0.1039 h 0.20651 c 0.057,0 0.10324,-0.0469 0.10324,-0.1039 v -0.30984 h 0.10318 c 0.057,0 0.10324,-0.0469 0.10324,-0.10431 v -0.72287 z m 1.65223,0 v 0.72287 c 0,0.058 0.0462,0.10431 0.10324,0.10431 h 0.10324 v 0.30984 c 0,0.058 0.0461,0.1039 0.10318,0.1039 h 0.20658 c 0.057,0 0.10317,-0.0469 0.10317,-0.1039 v -0.30984 h 0.10324 c 0.057,0 0.10324,-0.0469 0.10324,-0.10431 v -0.72287 z m 1.6523,0 v 0.72287 c 0,0.058 0.0462,0.10431 0.10324,0.10431 h 0.10325 v 0.30984 c 0,0.058 0.0461,0.1039 0.10318,0.1039 h 0.20658 c 0.057,0 0.10319,-0.0469 0.10319,-0.1039 v -0.30984 h 0.10324 c 0.057,0 0.10323,-0.0469 0.10323,-0.10431 v -0.72287 z"
       style="display:inline;opacity:1;fill:currentColor;stroke-width:0.0172114"
       inkscape:connector-curvature="0" />
    <path
       inkscape:connector-curvature="0"
       style="display:inline;opacity:1;fill:currentColor;stroke-width:0.0172114"
       d="m 142.6125,258.04749 c -0.057,0 -0.10324,0.0469 -0.10324,0.1039 v 0.30985 h -0.10325 c -0.057,0 -0.10318,0.0468 -0.10318,0.1041 v 0.72287 h 0.82612 v -0.72287 c 0,-0.058 -0.0462,-0.1041 -0.10324,-0.1041 h -0.10319 v -0.30994 c 0,-0.058 -0.0462,-0.1035 -0.10323,-0.1035 z m 1.6523,0 c -0.057,0 -0.10324,0.0469 -0.10324,0.1039 v 0.30985 h -0.10323 c -0.057,0 -0.10319,0.0468 -0.10319,0.1041 v 0.72287 h 0.82612 v -0.72287 c 0,-0.058 -0.0462,-0.1041 -0.10324,-0.1041 h -0.10318 v -0.30994 c 0,-0.058 -0.0462,-0.1035 -0.10324,-0.1035 z m 1.65223,0 c -0.057,0 -0.10318,0.0469 -0.10318,0.1039 v 0.30985 h -0.10324 c -0.057,0 -0.10324,0.0468 -0.10324,0.1041 v 0.72287 h 0.82618 v -0.72287 c 0,-0.058 -0.0462,-0.1041 -0.10323,-0.1041 h -0.10324 v -0.30994 c 0,-0.058 -0.0462,-0.1035 -0.10317,-0.1035 z m 1.6523,0 c -0.057,0 -0.10318,0.0469 -0.10318,0.1039 v 0.30985 h -0.10324 c -0.057,0 -0.10324,0.0468 -0.10324,0.1041 v 0.72287 h 0.82619 v -0.72287 c 0,-0.058 -0.0462,-0.1041 -0.10324,-0.1041 h -0.10324 v -0.30994 c 0,-0.058 -0.0461,-0.1035 -0.10318,-0.1035 z m -5.95427,1.65146 c -0.45627,0 -0.82619,0.36988 -0.82619,0.82608 v 7.16003 c 0,0.45627 0.36992,0.82615 0.82619,0.82615 h 7.1583 c 0.45627,0 0.82611,-0.36988 0.82611,-0.82615 v -7.16003 c 0,-0.4562 -0.36984,-0.82608 -0.82611,-0.82608 z m -1.96211,1.51461 c -0.057,0 -0.10323,0.0469 -0.10323,0.10446 v 0.1039 h -0.30981 c -0.057,0 -0.10324,0.0469 -0.10324,0.10388 v 0.20658 c 0,0.058 0.0462,0.10389 0.10324,0.10389 h 0.30981 v 0.10446 c 0,0.058 0.0462,0.1042 0.10323,0.1042 h 0.7229 v -0.82618 z m 10.35962,0 v 0.82623 h 0.7229 c 0.057,0 0.10318,-0.0469 0.10318,-0.1044 v -0.10446 h 0.30981 c 0.057,0 0.10323,-0.0468 0.10323,-0.10446 v -0.20661 c 0,-0.058 -0.0462,-0.1042 -0.10323,-0.1042 h -0.30981 v -0.10418 c 0,-0.058 -0.0461,-0.1042 -0.10318,-0.1042 z m -7.48116,0.0815 h 0.70399 v 4.61067 h 2.53356 v 0.59244 h -3.23755 z m -2.87846,1.57198 c -0.057,0 -0.10323,0.0469 -0.10323,0.10456 v 0.10447 h -0.30981 c -0.057,0 -0.10324,0.0469 -0.10324,0.10449 v 0.20647 c 0,0.058 0.0462,0.1039 0.10324,0.1039 h 0.30981 v 0.10387 c 0,0.058 0.0462,0.10398 0.10323,0.10398 h 0.7229 v -0.82637 z m 10.35962,0 v 0.82614 h 0.7229 c 0.057,0 0.10318,-0.0468 0.10318,-0.10368 v -0.10436 h 0.30981 c 0.057,0 0.10323,-0.0469 0.10323,-0.10389 v -0.20652 c 0,-0.058 -0.0462,-0.10399 -0.10323,-0.10399 h -0.30981 v -0.10369 c 0,-0.058 -0.0462,-0.10436 -0.10318,-0.10436 z m -10.35962,1.65231 c -0.057,0 -0.10323,0.0469 -0.10323,0.10446 v 0.10368 h -0.30981 c -0.057,0 -0.10324,0.0469 -0.10324,0.1043 v 0.20625 c 0,0.058 0.0462,0.1043 0.10324,0.1043 h 0.30981 v 0.1041 c 0,0.058 0.0462,0.1041 0.10323,0.1041 h 0.7229 v -0.82611 z m 10.35962,0 v 0.8261 h 0.7229 c 0.057,0 0.10318,-0.0468 0.10318,-0.10399 v -0.1041 h 0.30981 c 0.057,0 0.10323,-0.0469 0.10323,-0.10467 v -0.20654 c 0,-0.058 -0.0462,-0.10446 -0.10323,-0.10446 h -0.30981 v -0.10347 c 0,-0.058 -0.0461,-0.1042 -0.10318,-0.1042 z m -10.35962,1.65227 c -0.057,0 -0.10323,0.0468 -0.10323,0.1043 v 0.10446 h -0.30981 c -0.057,0 -0.10324,0.0469 -0.10324,0.1041 v 0.20657 c 0,0.058 0.0462,0.10466 0.10324,0.10466 h 0.30981 v 0.10456 c 0,0.058 0.0462,0.10431 0.10323,0.10431 h 0.7229 v -0.82625 z m 10.35962,0 v 0.82613 h 0.7229 c 0.057,0 0.10318,-0.0468 0.10318,-0.1043 v -0.10449 h 0.30981 c 0.057,0 0.10323,-0.0469 0.10323,-0.10437 v -0.20647 c 0,-0.058 -0.0462,-0.10446 -0.10323,-0.10446 h -0.30981 v -0.1043 c 0,-0.058 -0.0461,-0.10399 -0.10318,-0.10399 z m -7.70987,2.75298 v 0.72287 c 0,0.058 0.0461,0.10431 0.10318,0.10431 h 0.10324 v 0.30984 c 0,0.058 0.0462,0.1039 0.10324,0.1039 h 0.20651 c 0.057,0 0.10324,-0.0469 0.10324,-0.1039 v -0.30984 h 0.10319 c 0.057,0 0.10324,-0.0469 0.10324,-0.10431 v -0.72287 z m 1.6523,0 v 0.72287 c 0,0.058 0.0461,0.10431 0.10318,0.10431 h 0.10324 v 0.30984 c 0,0.058 0.0462,0.1039 0.10324,0.1039 h 0.20651 c 0.057,0 0.10324,-0.0469 0.10324,-0.1039 v -0.30984 h 0.10318 c 0.057,0 0.10324,-0.0469 0.10324,-0.10431 v -0.72287 z m 1.65223,0 v 0.72287 c 0,0.058 0.0462,0.10431 0.10324,0.10431 h 0.10324 v 0.30984 c 0,0.058 0.0461,0.1039 0.10318,0.1039 h 0.20658 c 0.057,0 0.10317,-0.0469 0.10317,-0.1039 v -0.30984 h 0.10324 c 0.057,0 0.10324,-0.0469 0.10324,-0.10431 v -0.72287 z m 1.6523,0 v 0.72287 c 0,0.058 0.0462,0.10431 0.10324,0.10431 h 0.10325 v 0.30984 c 0,0.058 0.0461,0.1039 0.10318,0.1039 h 0.20658 c 0.057,0 0.10319,-0.0469 0.10319,-0.1039 v -0.30984 h 0.10324 c 0.057,0 0.10323,-0.0469 0.10323,-0.10431 v -0.72287 z"
       id="path1042" />
    <path
       id="path1044"
       d="m 158.48751,258.04749 c -0.057,0 -0.10324,0.0469 -0.10324,0.1039 v 0.30985 h -0.10325 c -0.057,0 -0.10318,0.0468 -0.10318,0.1041 v 0.72287 h 0.82612 v -0.72287 c 0,-0.058 -0.0462,-0.1041 -0.10324,-0.1041 h -0.10319 v -0.30994 c 0,-0.058 -0.0462,-0.1035 -0.10323,-0.1035 z m 1.6523,0 c -0.057,0 -0.10324,0.0469 -0.10324,0.1039 v 0.30985 h -0.10323 c -0.057,0 -0.10319,0.0468 -0.10319,0.1041 v 0.72287 h 0.82612 v -0.72287 c 0,-0.058 -0.0462,-0.1041 -0.10324,-0.1041 h -0.10318 v -0.30994 c 0,-0.058 -0.0462,-0.1035 -0.10324,-0.1035 z m 1.65223,0 c -0.057,0 -0.10318,0.0469 -0.10318,0.1039 v 0.30985 h -0.10324 c -0.057,0 -0.10324,0.0468 -0.10324,0.1041 v 0.72287 h 0.82618 v -0.72287 c 0,-0.058 -0.0462,-0.1041 -0.10323,-0.1041 h -0.10324 v -0.30994 c 0,-0.058 -0.0462,-0.1035 -0.10317,-0.1035 z m 1.6523,0 c -0.057,0 -0.10318,0.0469 -0.10318,0.1039 v 0.30985 h -0.10324 c -0.057,0 -0.10324,0.0468 -0.10324,0.1041 v 0.72287 h 0.82619 v -0.72287 c 0,-0.058 -0.0462,-0.1041 -0.10324,-0.1041 h -0.10324 v -0.30994 c 0,-0.058 -0.0461,-0.1035 -0.10318,-0.1035 z m -5.95427,1.65146 c -0.45627,0 -0.82619,0.36988 -0.82619,0.82608 v 7.16003 c 0,0.45627 0.36992,0.82615 0.82619,0.82615 h 7.1583 c 0.45627,0 0.82611,-0.36988 0.82611,-0.82615 v -7.16003 c 0,-0.4562 -0.36984,-0.82608 -0.82611,-0.82608 z m -1.96211,1.51461 c -0.057,0 -0.10323,0.0469 -0.10323,0.10446 v 0.1039 h -0.30981 c -0.057,0 -0.10324,0.0469 -0.10324,0.10388 v 0.20658 c 0,0.058 0.0462,0.10389 0.10324,0.10389 h 0.30981 v 0.10446 c 0,0.058 0.0462,0.1042 0.10323,0.1042 h 0.7229 v -0.82618 z m 10.35962,0 v 0.82623 h 0.7229 c 0.057,0 0.10318,-0.0469 0.10318,-0.1044 v -0.10446 h 0.30981 c 0.057,0 0.10323,-0.0468 0.10323,-0.10446 v -0.20661 c 0,-0.058 -0.0462,-0.1042 -0.10323,-0.1042 h -0.30981 v -0.10418 c 0,-0.058 -0.0461,-0.1042 -0.10318,-0.1042 z m -7.48116,0.0815 h 0.70399 v 4.61067 h 2.53356 v 0.59244 h -3.23755 z m -2.87846,1.57198 c -0.057,0 -0.10323,0.0469 -0.10323,0.10456 v 0.10447 h -0.30981 c -0.057,0 -0.10324,0.0469 -0.10324,0.10449 v 0.20647 c 0,0.058 0.0462,0.1039 0.10324,0.1039 h 0.30981 v 0.10387 c 0,0.058 0.0462,0.10398 0.10323,0.10398 h 0.7229 v -0.82637 z m 10.35962,0 v 0.82614 h 0.7229 c 0.057,0 0.10318,-0.0468 0.10318,-0.10368 v -0.10436 h 0.30981 c 0.057,0 0.10323,-0.0469 0.10323,-0.10389 v -0.20652 c 0,-0.058 -0.0462,-0.10399 -0.10323,-0.10399 h -0.30981 v -0.10369 c 0,-0.058 -0.0462,-0.10436 -0.10318,-0.10436 z m -10.35962,1.65231 c -0.057,0 -0.10323,0.0469 -0.10323,0.10446 v 0.10368 h -0.30981 c -0.057,0 -0.10324,0.0469 -0.10324,0.1043 v 0.20625 c 0,0.058 0.0462,0.1043 0.10324,0.1043 h 0.30981 v 0.1041 c 0,0.058 0.0462,0.1041 0.10323,0.1041 h 0.7229 v -0.82611 z m 10.35962,0 v 0.8261 h 0.7229 c 0.057,0 0.10318,-0.0468 0.10318,-0.10399 v -0.1041 h 0.30981 c 0.057,0 0.10323,-0.0469 0.10323,-0.10467 v -0.20654 c 0,-0.058 -0.0462,-0.10446 -0.10323,-0.10446 h -0.30981 v -0.10347 c 0,-0.058 -0.0461,-0.1042 -0.10318,-0.1042 z m -10.35962,1.65227 c -0.057,0 -0.10323,0.0468 -0.10323,0.1043 v 0.10446 h -0.30981 c -0.057,0 -0.10324,0.0469 -0.10324,0.1041 v 0.20657 c 0,0.058 0.0462,0.10466 0.10324,0.10466 h 0.30981 v 0.10456 c 0,0.058 0.0462,0.10431 0.10323,0.10431 h 0.7229 v -0.82625 z m 10.35962,0 v 0.82613 h 0.7229 c 0.057,0 0.10318,-0.0468 0.10318,-0.1043 v -0.10449 h 0.30981 c 0.057,0 0.10323,-0.0469 0.10323,-0.10437 v -0.20647 c 0,-0.058 -0.0462,-0.10446 -0.10323,-0.10446 h -0.30981 v -0.1043 c 0,-0.058 -0.0461,-0.10399 -0.10318,-0.10399 z m -7.70987,2.75298 v 0.72287 c 0,0.058 0.0461,0.10431 0.10318,0.10431 h 0.10324 v 0.30984 c 0,0.058 0.0462,0.1039 0.10324,0.1039 h 0.20651 c 0.057,0 0.10324,-0.0469 0.10324,-0.1039 v -0.30984 h 0.10319 c 0.057,0 0.10324,-0.0469 0.10324,-0.10431 v -0.72287 z m 1.6523,0 v 0.72287 c 0,0.058 0.0461,0.10431 0.10318,0.10431 h 0.10324 v 0.30984 c 0,0.058 0.0462,0.1039 0.10324,0.1039 h 0.20651 c 0.057,0 0.10324,-0.0469 0.10324,-0.1039 v -0.30984 h 0.10318 c 0.057,0 0.10324,-0.0469 0.10324,-0.10431 v -0.72287 z m 1.65223,0 v 0.72287 c 0,0.058 0.0462,0.10431 0.10324,0.10431 h 0.10324 v 0.30984 c 0,0.058 0.0461,0.1039 0.10318,0.1039 h 0.20658 c 0.057,0 0.10317,-0.0469 0.10317,-0.1039 v -0.30984 h 0.10324 c 0.057,0 0.10324,-0.0469 0.10324,-0.10431 v -0.72287 z m 1.6523,0 v 0.72287 c 0,0.058 0.0462,0.10431 0.10324,0.10431 h 0.10325 v 0.30984 c 0,0.058 0.0461,0.1039 0.10318,0.1039 h 0.20658 c 0.057,0 0.10319,-0.0469 0.10319,-0.1039 v -0.30984 h 0.10324 c 0.057,0 0.10323,-0.0469 0.10323,-0.10431 v -0.72287 z"
       style="display:inline;opacity:1;fill:currentColor;stroke-width:0.0172114"
       inkscape:connector-curvature="0" />
    <path
       style="fill:none;stroke:#808080;stroke-width:0.79503804;stroke-linecap:butt;stroke-linejoin:miter;stroke-miterlimit:4;stroke-dasharray:none;stroke-opacity:1;marker-end:url(#marker3092)"
       d="m 72.824397,209.32512 c 15.816551,0.0186 31.633373,0.0372 39.685293,5.35964 8.05192,5.32245 8.33948,15.94899 4.87228,23.56214 -3.46721,7.61315 -10.6898,12.21304 -17.912084,16.81273"
       id="path3086"
       inkscape:connector-curvature="0"
       inkscape:path-effect="#path-effect3088"
       inkscape:original-d="m 72.824397,209.32512 c 0,0 31.633373,0.0369 47.449653,0.0558 0.28783,10.62628 0.57539,21.25282 0.86269,31.87963 -7.22202,4.59943 -21.666854,13.79908 -21.666854,13.79908"
       sodipodi:nodetypes="czzc" />
    <path
       style="fill:none;stroke:#808080;stroke-width:0.79503804;stroke-linecap:butt;stroke-linejoin:miter;stroke-miterlimit:4;stroke-dasharray:none;stroke-opacity:1;marker-end:url(#marker3280)"
       d="m 72.824397,209.32512 c 15.816551,0.0186 31.633373,0.0372 39.685293,5.35964 8.05192,5.32245 8.33948,15.94899 9.72426,23.56219 1.38477,7.6132 3.86686,12.21299 6.34889,16.81268"
       id="path3274"
       inkscape:connector-curvature="0"
       inkscape:path-effect="#path-effect3276"
       inkscape:original-d="m 72.824397,209.32512 c 0,0 31.633373,0.0369 47.449653,0.0558 0.28783,10.62628 0.57539,21.25282 0.86269,31.87963 2.4823,4.59943 7.4461,13.79908 7.4461,13.79908"
       sodipodi:nodetypes="czzc" />
    <path
       sodipodi:nodetypes="czzc"
       inkscape:original-d="m 72.824397,209.32512 c 0,0 31.633373,0.0369 47.449653,0.0558 0.28783,10.62628 0.57539,21.25282 0.86269,31.87963 7.28953,4.59943 21.86779,13.79908 21.86779,13.79908"
       inkscape:path-effect="#path-effect3392"
       inkscape:connector-curvature="0"
       id="path3390"
       d="m 72.824397,209.32512 c 15.816551,0.0186 31.633373,0.0372 39.685293,5.35964 8.05192,5.32245 8.33948,15.94899 12.12793,23.56226 3.78846,7.61327 11.07765,12.21292 18.36691,16.81261"
       style="fill:none;stroke:#808080;stroke-width:0.79503804;stroke-linecap:butt;stroke-linejoin:miter;stroke-miterlimit:4;stroke-dasharray:none;stroke-opacity:1;marker-end:url(#marker3396)" />
    <path
       sodipodi:nodetypes="ccccsssssssccssssscsssssssss"
       style="fill:currentColor;stroke-width:0.02900812"
       inkscape:connector-curvature="0"
       d="m 127.51852,228.09598 v -10.21086 h -14.85216 v 10.21086 c 0,0 0,0.20769 0,0.46413 v 0.92826 c 0,0.25644 0.0659,0.46413 0.32238,0.46413 h 3.85479 c 0.25644,0 0.46413,-0.20769 0.46413,-0.46413 v -5.10543 c 0,-1.53802 1.24676,-2.78478 2.78478,-2.78478 1.53802,0 2.78478,1.24676 2.78478,2.78478 l 5.5e-4,4.6413 v 0.46413 c 0,0.25644 0.20769,0.46413 0.46413,0.46413 h 3.85479 c 0.25644,0 0.32183,-0.20769 0.32183,-0.46413 v -0.92826 c 0,-0.25644 0,-0.46413 0,-0.46413 z m -0.3218,-12.99564 h -14.20856 c -0.25644,0 -0.3218,0.20769 -0.3218,0.46413 v 3.28604 c 0,0.25644 0.0654,0.46413 0.3218,0.46413 h 14.20856 c 0.25644,0 0.3218,-0.20769 0.3218,-0.46413 v -3.28604 c 0,-0.25644 -0.0653,-0.46413 -0.3218,-0.46413 z"
       id="path1185" />
  </g>
  <g
     inkscape:groupmode="layer"
     id="layer4"
     inkscape:label="texte"
     style="display:inline"
     transform="translate(-27.48254,-92.91227)" />
</svg>
